<?xml version="1.0" encoding="UTF-8" standalone="no"?>
<!DOCTYPE svg PUBLIC "-//W3C//DTD SVG 1.1//EN"
 "http://www.w3.org/Graphics/SVG/1.1/DTD/svg11.dtd">
<!-- Generated by graphviz version 12.2.1 (20241206.2353)
 -->
<!-- Title: malloc Pages: 1 -->
<svg width="724pt" height="327pt"
 viewBox="0.00 0.00 724.25 327.25" xmlns="http://www.w3.org/2000/svg" xmlns:xlink="http://www.w3.org/1999/xlink">
<g id="graph0" class="graph" transform="scale(1 1) rotate(0) translate(4 323.25)">
<title>malloc</title>
<!-- Node1 -->
<g id="Node000001" class="node">
<title>Node1</title>
<g id="a_Node000001"><a xlink:title="Allocates at least size bytes from the kernel heap.">
<polygon fill="#999999" stroke="#666666" points="716.25,-93.25 671.75,-93.25 671.75,-74 716.25,-74 716.25,-93.25"/>
<text text-anchor="middle" x="694" y="-79.75" font-family="Helvetica,sans-Serif" font-size="10.00">malloc</text>
</a>
</g>
</g>
<!-- Node2 -->
<g id="Node000002" class="node">
<title>Node2</title>
<g id="a_Node000002"><a xlink:href="string_8c.html#a6c1819f2460f96a82d3be06a279e9bfa" target="_top" xlink:title="Adds a number to a string by using &#39;d&#39; as placeholder.">
<polygon fill="white" stroke="#666666" points="631.25,-224.25 558.25,-224.25 558.25,-205 631.25,-205 631.25,-224.25"/>
<text text-anchor="middle" x="594.75" y="-210.75" font-family="Helvetica,sans-Serif" font-size="10.00">format_string</text>
</a>
</g>
</g>
<!-- Node1&#45;&gt;Node2 -->
<g id="edge1_Node000001_Node000002" class="edge">
<title>Node1&#45;&gt;Node2</title>
<g id="a_edge1_Node000001_Node000002"><a xlink:title=" ">
<path fill="none" stroke="#63b8ff" d="M678.83,-102.71C657.85,-130.97 619.27,-182.94 603.14,-204.66"/>
<polygon fill="#63b8ff" stroke="#63b8ff" points="681.64,-104.8 684.79,-94.69 676.02,-100.63 681.64,-104.8"/>
</a>
</g>
</g>
<!-- Node9 -->
<g id="Node000009" class="node">
<title>Node9</title>
<g id="a_Node000009"><a xlink:href="kernel_8c.html#aa2940097a0b9c33a8051af19d4b4c07e" target="_top" xlink:title=" ">
<polygon fill="white" stroke="#666666" points="79,-150.25 0,-150.25 0,-131 79,-131 79,-150.25"/>
<text text-anchor="middle" x="39.5" y="-136.75" font-family="Helvetica,sans-Serif" font-size="10.00">kernel_main_c</text>
</a>
</g>
</g>
<!-- Node1&#45;&gt;Node9 -->
<g id="edge14_Node000001_Node000009" class="edge">
<title>Node1&#45;&gt;Node9</title>
<g id="a_edge14_Node000001_Node000009"><a xlink:title=" ">
<path fill="none" stroke="#63b8ff" d="M660.5,-95.76C652.5,-98.37 643.89,-100.87 635.75,-102.62 557.07,-119.62 536.12,-121.62 455.62,-121.62 455.62,-121.62 455.62,-121.62 303.38,-121.62 223.53,-121.62 130.39,-130.45 79.19,-136.07"/>
<polygon fill="#63b8ff" stroke="#63b8ff" points="661.53,-99.1 669.85,-92.55 659.26,-92.48 661.53,-99.1"/>
</a>
</g>
</g>
<!-- Node12 -->
<g id="Node000012" class="node">
<title>Node12</title>
<g id="a_Node000012"><a xlink:href="command_8c.html#ab75f27674de8fd501f9e1e52ecbf5a75" target="_top" xlink:title=" ">
<polygon fill="white" stroke="#666666" points="635.75,-93.25 553.75,-93.25 553.75,-74 635.75,-74 635.75,-93.25"/>
<text text-anchor="middle" x="594.75" y="-79.75" font-family="Helvetica,sans-Serif" font-size="10.00">join_arguments</text>
</a>
</g>
</g>
<!-- Node1&#45;&gt;Node12 -->
<g id="edge12_Node000001_Node000012" class="edge">
<title>Node1&#45;&gt;Node12</title>
<g id="a_edge12_Node000001_Node000012"><a xlink:title=" ">
<path fill="none" stroke="#63b8ff" d="M659.95,-83.62C652.27,-83.62 644.01,-83.62 636.06,-83.62"/>
<polygon fill="#63b8ff" stroke="#63b8ff" points="659.9,-87.13 669.9,-83.63 659.9,-80.13 659.9,-87.13"/>
</a>
</g>
</g>
<!-- Node14 -->
<g id="Node000014" class="node">
<title>Node14</title>
<g id="a_Node000014"><a xlink:href="heap_8c.html#a14a1a8560e28deb3eb70cad2265bebfa" target="_top" xlink:title="Allocates memory and returns a page&#45;aligned pointer.">
<polygon fill="white" stroke="#666666" points="619.62,-56.25 569.88,-56.25 569.88,-37 619.62,-37 619.62,-56.25"/>
<text text-anchor="middle" x="594.75" y="-42.75" font-family="Helvetica,sans-Serif" font-size="10.00">pmalloc</text>
</a>
</g>
</g>
<!-- Node1&#45;&gt;Node14 -->
<g id="edge15_Node000001_Node000014" class="edge">
<title>Node1&#45;&gt;Node14</title>
<g id="a_edge15_Node000001_Node000014"><a xlink:title=" ">
<path fill="none" stroke="#63b8ff" d="M660.79,-71.37C647.49,-66.31 632.34,-60.55 620.01,-55.85"/>
<polygon fill="#63b8ff" stroke="#63b8ff" points="659.41,-74.59 670,-74.88 661.9,-68.05 659.41,-74.59"/>
</a>
</g>
</g>
<!-- Node15 -->
<g id="Node000015" class="node">
<title>Node15</title>
<g id="a_Node000015"><a xlink:href="tinyfs_8c.html#ab2840479eb353b6c88b0588bc2379b78" target="_top" xlink:title="Read a file.">
<polygon fill="white" stroke="#666666" points="635,-19.25 554.5,-19.25 554.5,0 635,0 635,-19.25"/>
<text text-anchor="middle" x="594.75" y="-5.75" font-family="Helvetica,sans-Serif" font-size="10.00">tinyfs_read_file</text>
</a>
</g>
</g>
<!-- Node1&#45;&gt;Node15 -->
<g id="edge16_Node000001_Node000015" class="edge">
<title>Node1&#45;&gt;Node15</title>
<g id="a_edge16_Node000001_Node000015"><a xlink:title=" ">
<path fill="none" stroke="#63b8ff" d="M677.6,-65.55C666.79,-53.66 651.49,-38.36 635.75,-27.62 631.35,-24.62 626.36,-21.91 621.44,-19.57"/>
<polygon fill="#63b8ff" stroke="#63b8ff" points="674.69,-67.53 683.93,-72.71 679.94,-62.9 674.69,-67.53"/>
</a>
</g>
</g>
<!-- Node3 -->
<g id="Node000003" class="node">
<title>Node3</title>
<g id="a_Node000003"><a xlink:href="command_8c.html#af2fe2eafdf47889f4dd3fdda65a6f558" target="_top" xlink:title="Displays memory info.">
<polygon fill="white" stroke="#666666" points="505,-319.25 404.25,-319.25 404.25,-300 505,-300 505,-319.25"/>
<text text-anchor="middle" x="454.62" y="-305.75" font-family="Helvetica,sans-Serif" font-size="10.00">command_heapinfo</text>
</a>
</g>
</g>
<!-- Node2&#45;&gt;Node3 -->
<g id="edge2_Node000002_Node000003" class="edge">
<title>Node2&#45;&gt;Node3</title>
<g id="a_edge2_Node000002_Node000003"><a xlink:title=" ">
<path fill="none" stroke="#63b8ff" d="M577.87,-233C563.48,-248.71 541.02,-271.03 517.75,-285.62 508.84,-291.21 498.41,-295.86 488.67,-299.53"/>
<polygon fill="#63b8ff" stroke="#63b8ff" points="580.29,-235.54 584.34,-225.75 575.07,-230.87 580.29,-235.54"/>
</a>
</g>
</g>
<!-- Node4 -->
<g id="Node000004" class="node">
<title>Node4</title>
<g id="a_Node000004"><a xlink:href="command_8c.html#afe7791ec19d420e0465fbc533ebb382e" target="_top" xlink:title="Plays a song.">
<polygon fill="white" stroke="#666666" points="355.5,-262.25 253.25,-262.25 253.25,-243 355.5,-243 355.5,-262.25"/>
<text text-anchor="middle" x="304.38" y="-248.75" font-family="Helvetica,sans-Serif" font-size="10.00">command_playsong</text>
</a>
</g>
</g>
<!-- Node2&#45;&gt;Node4 -->
<g id="edge3_Node000002_Node000004" class="edge">
<title>Node2&#45;&gt;Node4</title>
<g id="a_edge3_Node000002_Node000004"><a xlink:title=" ">
<path fill="none" stroke="#63b8ff" d="M569.24,-230.54C554.87,-238.91 536,-248.32 517.75,-252.62 463.56,-265.42 399.41,-263.12 355.9,-259.08"/>
<polygon fill="#63b8ff" stroke="#63b8ff" points="570.81,-233.68 577.54,-225.5 567.18,-227.7 570.81,-233.68"/>
</a>
</g>
</g>
<!-- Node5 -->
<g id="Node000005" class="node">
<title>Node5</title>
<g id="a_Node000005"><a xlink:href="command_8c.html#a3c36856f25ef0ec4115e0a3cd9922576" target="_top" xlink:title=" ">
<polygon fill="white" stroke="#666666" points="502.38,-243.25 406.88,-243.25 406.88,-224 502.38,-224 502.38,-243.25"/>
<text text-anchor="middle" x="454.62" y="-229.75" font-family="Helvetica,sans-Serif" font-size="10.00">display_song_help</text>
</a>
</g>
</g>
<!-- Node2&#45;&gt;Node5 -->
<g id="edge4_Node000002_Node000005" class="edge">
<title>Node2&#45;&gt;Node5</title>
<g id="a_edge4_Node000002_Node000005"><a xlink:title=" ">
<path fill="none" stroke="#63b8ff" d="M546.79,-221.08C532.61,-223.04 517.03,-225.18 502.83,-227.13"/>
<polygon fill="#63b8ff" stroke="#63b8ff" points="546.89,-224.6 556.32,-219.77 545.94,-217.67 546.89,-224.6"/>
</a>
</g>
</g>
<!-- Node6 -->
<g id="Node000006" class="node">
<title>Node6</title>
<g id="a_Node000006"><a xlink:href="shell_8c.html#a1dadf2da65cbd79e31c2307cf31aa495" target="_top" xlink:title=" ">
<polygon fill="white" stroke="#666666" points="517.75,-206.25 391.5,-206.25 391.5,-187 517.75,-187 517.75,-206.25"/>
<text text-anchor="middle" x="454.62" y="-192.75" font-family="Helvetica,sans-Serif" font-size="10.00">shell_submit_current_line</text>
</a>
</g>
</g>
<!-- Node2&#45;&gt;Node6 -->
<g id="edge6_Node000002_Node000006" class="edge">
<title>Node2&#45;&gt;Node6</title>
<g id="a_edge6_Node000002_Node000006"><a xlink:title=" ">
<path fill="none" stroke="#63b8ff" d="M546.58,-208.48C537.42,-207.28 527.69,-206.02 518.13,-204.77"/>
<polygon fill="#63b8ff" stroke="#63b8ff" points="545.95,-211.93 556.32,-209.75 546.86,-204.98 545.95,-211.93"/>
</a>
</g>
</g>
<!-- Node10 -->
<g id="Node000010" class="node">
<title>Node10</title>
<g id="a_Node000010"><a xlink:href="tinyfs_8c.html#a77b63c791d50fdd4b1662c5386553f2c" target="_top" xlink:title="Print listing of all files.">
<polygon fill="white" stroke="#666666" points="483.25,-169.25 426,-169.25 426,-150 483.25,-150 483.25,-169.25"/>
<text text-anchor="middle" x="454.62" y="-155.75" font-family="Helvetica,sans-Serif" font-size="10.00">tinyfs_list</text>
</a>
</g>
</g>
<!-- Node2&#45;&gt;Node10 -->
<g id="edge10_Node000002_Node000010" class="edge">
<title>Node2&#45;&gt;Node10</title>
<g id="a_edge10_Node000002_Node000010"><a xlink:title=" ">
<path fill="none" stroke="#63b8ff" d="M565.37,-199.37C551.3,-192.19 533.9,-183.84 517.75,-177.62 506.75,-173.39 494.32,-169.6 483.49,-166.6"/>
<polygon fill="#63b8ff" stroke="#63b8ff" points="563.58,-202.39 574.06,-203.89 566.81,-196.18 563.58,-202.39"/>
</a>
</g>
</g>
<!-- Node5&#45;&gt;Node4 -->
<g id="edge5_Node000005_Node000004" class="edge">
<title>Node5&#45;&gt;Node4</title>
<g id="a_edge5_Node000005_Node000004"><a xlink:title=" ">
<path fill="none" stroke="#63b8ff" d="M395.44,-241.08C382.35,-242.76 368.57,-244.53 355.82,-246.16"/>
<polygon fill="#63b8ff" stroke="#63b8ff" points="395.74,-244.57 405.22,-239.83 394.85,-237.63 395.74,-244.57"/>
</a>
</g>
</g>
<!-- Node7 -->
<g id="Node000007" class="node">
<title>Node7</title>
<g id="a_Node000007"><a xlink:href="shell_8c.html#ad1f95120378d24016c08ebb7a0499bf1" target="_top" xlink:title=" ">
<polygon fill="white" stroke="#666666" points="351.38,-206.25 257.38,-206.25 257.38,-187 351.38,-187 351.38,-206.25"/>
<text text-anchor="middle" x="304.38" y="-192.75" font-family="Helvetica,sans-Serif" font-size="10.00">shell_handle_char</text>
</a>
</g>
</g>
<!-- Node6&#45;&gt;Node7 -->
<g id="edge7_Node000006_Node000007" class="edge">
<title>Node6&#45;&gt;Node7</title>
<g id="a_edge7_Node000006_Node000007"><a xlink:title=" ">
<path fill="none" stroke="#63b8ff" d="M379.88,-196.62C370.22,-196.62 360.55,-196.62 351.53,-196.62"/>
<polygon fill="#63b8ff" stroke="#63b8ff" points="379.67,-200.13 389.67,-196.63 379.67,-193.13 379.67,-200.13"/>
</a>
</g>
</g>
<!-- Node8 -->
<g id="Node000008" class="node">
<title>Node8</title>
<g id="a_Node000008"><a xlink:href="shell_8c.html#af32457beee540bea37889869f89c9f2a" target="_top" xlink:title=" ">
<polygon fill="white" stroke="#666666" points="217.25,-187.25 115,-187.25 115,-168 217.25,-168 217.25,-187.25"/>
<text text-anchor="middle" x="166.12" y="-173.75" font-family="Helvetica,sans-Serif" font-size="10.00">shell_process_input</text>
</a>
</g>
</g>
<!-- Node7&#45;&gt;Node8 -->
<g id="edge8_Node000007_Node000008" class="edge">
<title>Node7&#45;&gt;Node8</title>
<g id="a_edge8_Node000007_Node000008"><a xlink:title=" ">
<path fill="none" stroke="#63b8ff" d="M245.89,-188.61C236.43,-187.29 226.68,-185.93 217.41,-184.64"/>
<polygon fill="#63b8ff" stroke="#63b8ff" points="245.36,-192.07 255.75,-189.98 246.33,-185.14 245.36,-192.07"/>
</a>
</g>
</g>
<!-- Node8&#45;&gt;Node9 -->
<g id="edge9_Node000008_Node000009" class="edge">
<title>Node8&#45;&gt;Node9</title>
<g id="a_edge9_Node000008_Node000009"><a xlink:title=" ">
<path fill="none" stroke="#63b8ff" d="M120.39,-164.34C105.27,-159.86 88.66,-154.92 74.51,-150.72"/>
<polygon fill="#63b8ff" stroke="#63b8ff" points="119.04,-167.59 129.62,-167.08 121.03,-160.88 119.04,-167.59"/>
</a>
</g>
</g>
<!-- Node11 -->
<g id="Node000011" class="node">
<title>Node11</title>
<g id="a_Node000011"><a xlink:href="command_8c.html#a0d2b819a56eb5e1d230f2b3319911612" target="_top" xlink:title=" ">
<polygon fill="white" stroke="#666666" points="340.12,-169.25 268.62,-169.25 268.62,-150 340.12,-150 340.12,-169.25"/>
<text text-anchor="middle" x="304.38" y="-155.75" font-family="Helvetica,sans-Serif" font-size="10.00">command_ls</text>
</a>
</g>
</g>
<!-- Node10&#45;&gt;Node11 -->
<g id="edge11_Node000010_Node000011" class="edge">
<title>Node10&#45;&gt;Node11</title>
<g id="a_edge11_Node000010_Node000011"><a xlink:title=" ">
<path fill="none" stroke="#63b8ff" d="M414.33,-159.62C391.37,-159.62 362.65,-159.62 340.46,-159.62"/>
<polygon fill="#63b8ff" stroke="#63b8ff" points="414.23,-163.13 424.23,-159.63 414.23,-156.13 414.23,-163.13"/>
</a>
</g>
</g>
<!-- Node13 -->
<g id="Node000013" class="node">
<title>Node13</title>
<g id="a_Node000013"><a xlink:href="command_8c.html#adbcf4ce21e295dea9b7805e697adec68" target="_top" xlink:title=" ">
<polygon fill="white" stroke="#666666" points="505.75,-93.25 403.5,-93.25 403.5,-74 505.75,-74 505.75,-93.25"/>
<text text-anchor="middle" x="454.62" y="-79.75" font-family="Helvetica,sans-Serif" font-size="10.00">command_write_file</text>
</a>
</g>
</g>
<!-- Node12&#45;&gt;Node13 -->
<g id="edge13_Node000012_Node000013" class="edge">
<title>Node12&#45;&gt;Node13</title>
<g id="a_edge13_Node000012_Node000013"><a xlink:title=" ">
<path fill="none" stroke="#63b8ff" d="M541.97,-83.62C530.22,-83.62 517.76,-83.62 506.07,-83.62"/>
<polygon fill="#63b8ff" stroke="#63b8ff" points="541.91,-87.13 551.91,-83.63 541.91,-80.13 541.91,-87.13"/>
</a>
</g>
</g>
<!-- Node16 -->
<g id="Node000016" class="node">
<title>Node16</title>
<g id="a_Node000016"><a xlink:href="command_8c.html#a48bd81771f1d749da03d8d4594541a2e" target="_top" xlink:title=" ">
<polygon fill="white" stroke="#666666" points="493.38,-19.25 415.88,-19.25 415.88,0 493.38,0 493.38,-19.25"/>
<text text-anchor="middle" x="454.62" y="-5.75" font-family="Helvetica,sans-Serif" font-size="10.00">command_cat</text>
</a>
</g>
</g>
<!-- Node15&#45;&gt;Node16 -->
<g id="edge17_Node000015_Node000016" class="edge">
<title>Node15&#45;&gt;Node16</title>
<g id="a_edge17_Node000015_Node000016"><a xlink:title=" ">
<path fill="none" stroke="#63b8ff" d="M542.69,-9.62C526.5,-9.62 508.9,-9.62 493.78,-9.62"/>
<polygon fill="#63b8ff" stroke="#63b8ff" points="542.66,-13.13 552.66,-9.63 542.66,-6.13 542.66,-13.13"/>
</a>
</g>
</g>
</g>
</svg>
