<?xml version="1.0" encoding="UTF-8" standalone="no"?>
<!DOCTYPE svg PUBLIC "-//W3C//DTD SVG 1.1//EN"
 "http://www.w3.org/Graphics/SVG/1.1/DTD/svg11.dtd">
<!-- Generated by graphviz version 12.2.1 (20241206.2353)
 -->
<!-- Title: src/group_29/src/memory/heap.h Pages: 1 -->
<svg width="762pt" height="304pt"
 viewBox="0.00 0.00 761.88 303.50" xmlns="http://www.w3.org/2000/svg" xmlns:xlink="http://www.w3.org/1999/xlink">
<g id="graph0" class="graph" transform="scale(1 1) rotate(0) translate(4 299.5)">
<title>src/group_29/src/memory/heap.h</title>
<!-- Node1 -->
<g id="Node000001" class="node">
<title>Node1</title>
<g id="a_Node000001"><a xlink:title=" ">
<polygon fill="#999999" stroke="#666666" points="313.88,-295.5 156.12,-295.5 156.12,-276.25 313.88,-276.25 313.88,-295.5"/>
<text text-anchor="middle" x="235" y="-282" font-family="Helvetica,sans-Serif" font-size="10.00">src/group_29/src/memory/heap.h</text>
</a>
</g>
</g>
<!-- Node2 -->
<g id="Node000002" class="node">
<title>Node2</title>
<g id="a_Node000002"><a xlink:href="tinyfs_8h.html" target="_top" xlink:title=" ">
<polygon fill="white" stroke="#666666" points="255.88,-185 122.12,-185 122.12,-165.75 255.88,-165.75 255.88,-185"/>
<text text-anchor="middle" x="189" y="-171.5" font-family="Helvetica,sans-Serif" font-size="10.00">src/group_29/src/fs/tinyfs.h</text>
</a>
</g>
</g>
<!-- Node1&#45;&gt;Node2 -->
<g id="edge1_Node000001_Node000002" class="edge">
<title>Node1&#45;&gt;Node2</title>
<g id="a_edge1_Node000001_Node000002"><a xlink:title=" ">
<path fill="none" stroke="#63b8ff" d="M150.94,-273.83C110.88,-266.67 69.09,-255.75 57,-240.25 34.21,-211.05 79.97,-194.4 123.71,-185.48"/>
<polygon fill="#63b8ff" stroke="#63b8ff" points="150.22,-277.26 160.67,-275.5 151.4,-270.36 150.22,-277.26"/>
</a>
</g>
</g>
<!-- Node6 -->
<g id="Node000006" class="node">
<title>Node6</title>
<g id="a_Node000006"><a xlink:href="kernel_8c.html" target="_top" xlink:title=" ">
<polygon fill="white" stroke="#666666" points="138.75,-19.25 13.25,-19.25 13.25,0 138.75,0 138.75,-19.25"/>
<text text-anchor="middle" x="76" y="-5.75" font-family="Helvetica,sans-Serif" font-size="10.00">src/group_29/src/kernel.c</text>
</a>
</g>
</g>
<!-- Node1&#45;&gt;Node6 -->
<g id="edge10_Node000001_Node000006" class="edge">
<title>Node1&#45;&gt;Node6</title>
<g id="a_edge10_Node000001_Node000006"><a xlink:title=" ">
<path fill="none" stroke="#63b8ff" d="M144.42,-278.69C78.23,-268.65 0,-242.75 0,-176.38 0,-176.38 0,-176.38 0,-119.12 0,-75.2 42.31,-36.42 63.79,-19.56"/>
<polygon fill="#63b8ff" stroke="#63b8ff" points="143.88,-282.15 154.27,-280.06 144.85,-275.21 143.88,-282.15"/>
</a>
</g>
</g>
<!-- Node9 -->
<g id="Node000009" class="node">
<title>Node9</title>
<g id="a_Node000009"><a xlink:href="heap_8c.html" target="_top" xlink:title=" ">
<polygon fill="white" stroke="#666666" points="223.88,-240.25 66.12,-240.25 66.12,-221 223.88,-221 223.88,-240.25"/>
<text text-anchor="middle" x="145" y="-226.75" font-family="Helvetica,sans-Serif" font-size="10.00">src/group_29/src/memory/heap.c</text>
</a>
</g>
</g>
<!-- Node1&#45;&gt;Node9 -->
<g id="edge11_Node000001_Node000009" class="edge">
<title>Node1&#45;&gt;Node9</title>
<g id="a_edge11_Node000001_Node000009"><a xlink:title=" ">
<path fill="none" stroke="#63b8ff" d="M209.98,-270.07C194.06,-260.65 173.94,-248.75 160.34,-240.7"/>
<polygon fill="#63b8ff" stroke="#63b8ff" points="208.04,-272.99 218.43,-275.07 211.61,-266.97 208.04,-272.99"/>
</a>
</g>
</g>
<!-- Node10 -->
<g id="Node000010" class="node">
<title>Node10</title>
<g id="a_Node000010"><a xlink:href="paging_8c.html" target="_top" xlink:title=" ">
<polygon fill="white" stroke="#666666" points="407.62,-240.25 242.38,-240.25 242.38,-221 407.62,-221 407.62,-240.25"/>
<text text-anchor="middle" x="325" y="-226.75" font-family="Helvetica,sans-Serif" font-size="10.00">src/group_29/src/memory/paging.c</text>
</a>
</g>
</g>
<!-- Node1&#45;&gt;Node10 -->
<g id="edge12_Node000001_Node000010" class="edge">
<title>Node1&#45;&gt;Node10</title>
<g id="a_edge12_Node000001_Node000010"><a xlink:title=" ">
<path fill="none" stroke="#63b8ff" d="M260.02,-270.07C275.94,-260.65 296.06,-248.75 309.66,-240.7"/>
<polygon fill="#63b8ff" stroke="#63b8ff" points="258.39,-266.97 251.57,-275.07 261.96,-272.99 258.39,-266.97"/>
</a>
</g>
</g>
<!-- Node11 -->
<g id="Node000011" class="node">
<title>Node11</title>
<g id="a_Node000011"><a xlink:href="src_2string_2string_8h.html" target="_top" xlink:title=" ">
<polygon fill="white" stroke="#666666" points="576.12,-240.25 425.88,-240.25 425.88,-221 576.12,-221 576.12,-240.25"/>
<text text-anchor="middle" x="501" y="-226.75" font-family="Helvetica,sans-Serif" font-size="10.00">src/group_29/src/string/string.h</text>
</a>
</g>
</g>
<!-- Node1&#45;&gt;Node11 -->
<g id="edge13_Node000001_Node000011" class="edge">
<title>Node1&#45;&gt;Node11</title>
<g id="a_edge13_Node000001_Node000011"><a xlink:title=" ">
<path fill="none" stroke="#63b8ff" d="M291.47,-273.57C340.44,-263.77 410.4,-249.76 455.76,-240.68"/>
<polygon fill="#63b8ff" stroke="#63b8ff" points="291.03,-270.09 281.91,-275.48 292.4,-276.95 291.03,-270.09"/>
</a>
</g>
</g>
<!-- Node13 -->
<g id="Node000013" class="node">
<title>Node13</title>
<g id="a_Node000013"><a xlink:href="user_8h.html" target="_top" xlink:title=" ">
<polygon fill="white" stroke="#666666" points="676.88,-185 537.12,-185 537.12,-165.75 676.88,-165.75 676.88,-185"/>
<text text-anchor="middle" x="607" y="-171.5" font-family="Helvetica,sans-Serif" font-size="10.00">src/group_29/src/user/user.h</text>
</a>
</g>
</g>
<!-- Node1&#45;&gt;Node13 -->
<g id="edge24_Node000001_Node000013" class="edge">
<title>Node1&#45;&gt;Node13</title>
<g id="a_edge24_Node000001_Node000013"><a xlink:title=" ">
<path fill="none" stroke="#63b8ff" d="M325.43,-283.94C415.7,-281.18 546.38,-271.67 585,-240.25 601.74,-226.63 605.78,-199.59 606.73,-185.46"/>
<polygon fill="#63b8ff" stroke="#63b8ff" points="325.49,-280.43 315.59,-284.21 325.69,-287.43 325.49,-280.43"/>
</a>
</g>
</g>
<!-- Node3 -->
<g id="Node000003" class="node">
<title>Node3</title>
<g id="a_Node000003"><a xlink:href="command_8h.html" target="_top" xlink:title=" ">
<polygon fill="white" stroke="#666666" points="481.88,-129.75 294.12,-129.75 294.12,-110.5 481.88,-110.5 481.88,-129.75"/>
<text text-anchor="middle" x="388" y="-116.25" font-family="Helvetica,sans-Serif" font-size="10.00">src/group_29/src/command/command.h</text>
</a>
</g>
</g>
<!-- Node2&#45;&gt;Node3 -->
<g id="edge2_Node000002_Node000003" class="edge">
<title>Node2&#45;&gt;Node3</title>
<g id="a_edge2_Node000002_Node000003"><a xlink:title=" ">
<path fill="none" stroke="#63b8ff" d="M233.58,-162.45C270.05,-152.69 320.86,-139.09 354.08,-130.2"/>
<polygon fill="#63b8ff" stroke="#63b8ff" points="232.98,-158.98 224.22,-164.95 234.78,-165.75 232.98,-158.98"/>
</a>
</g>
</g>
<!-- Node5 -->
<g id="Node000005" class="node">
<title>Node5</title>
<g id="a_Node000005"><a xlink:href="shell_8h.html" target="_top" xlink:title=" ">
<polygon fill="white" stroke="#666666" points="508.38,-74.5 365.62,-74.5 365.62,-55.25 508.38,-55.25 508.38,-74.5"/>
<text text-anchor="middle" x="437" y="-61" font-family="Helvetica,sans-Serif" font-size="10.00">src/group_29/src/shell/shell.h</text>
</a>
</g>
</g>
<!-- Node2&#45;&gt;Node5 -->
<g id="edge9_Node000002_Node000005" class="edge">
<title>Node2&#45;&gt;Node5</title>
<g id="a_edge9_Node000002_Node000005"><a xlink:title=" ">
<path fill="none" stroke="#63b8ff" d="M209.17,-158.32C227.89,-144.07 257.01,-123.55 285,-110.5 320.02,-94.17 362.39,-82.32 393.48,-74.96"/>
<polygon fill="#63b8ff" stroke="#63b8ff" points="207.1,-155.49 201.35,-164.38 211.39,-161.02 207.1,-155.49"/>
</a>
</g>
</g>
<!-- Node2&#45;&gt;Node6 -->
<g id="edge8_Node000002_Node000006" class="edge">
<title>Node2&#45;&gt;Node6</title>
<g id="a_edge8_Node000002_Node000006"><a xlink:title=" ">
<path fill="none" stroke="#63b8ff" d="M139.73,-161.31C123.12,-154.52 106.02,-144.46 95,-129.75 69.51,-95.72 72.5,-40.75 74.83,-19.45"/>
<polygon fill="#63b8ff" stroke="#63b8ff" points="138.5,-164.59 149.09,-164.79 140.94,-158.03 138.5,-164.59"/>
</a>
</g>
</g>
<!-- Node8 -->
<g id="Node000008" class="node">
<title>Node8</title>
<g id="a_Node000008"><a xlink:href="tinyfs_8c.html" target="_top" xlink:title=" ">
<polygon fill="white" stroke="#666666" points="237.88,-129.75 104.12,-129.75 104.12,-110.5 237.88,-110.5 237.88,-129.75"/>
<text text-anchor="middle" x="171" y="-116.25" font-family="Helvetica,sans-Serif" font-size="10.00">src/group_29/src/fs/tinyfs.c</text>
</a>
</g>
</g>
<!-- Node2&#45;&gt;Node8 -->
<g id="edge7_Node000002_Node000008" class="edge">
<title>Node2&#45;&gt;Node8</title>
<g id="a_edge7_Node000002_Node000008"><a xlink:title=" ">
<path fill="none" stroke="#63b8ff" d="M182.35,-154.71C179.5,-146.27 176.31,-136.83 174.04,-130.11"/>
<polygon fill="#63b8ff" stroke="#63b8ff" points="179.02,-155.8 185.54,-164.15 185.66,-153.55 179.02,-155.8"/>
</a>
</g>
</g>
<!-- Node4 -->
<g id="Node000004" class="node">
<title>Node4</title>
<g id="a_Node000004"><a xlink:href="command_8c.html" target="_top" xlink:title=" ">
<polygon fill="white" stroke="#666666" points="347.88,-74.5 160.12,-74.5 160.12,-55.25 347.88,-55.25 347.88,-74.5"/>
<text text-anchor="middle" x="254" y="-61" font-family="Helvetica,sans-Serif" font-size="10.00">src/group_29/src/command/command.c</text>
</a>
</g>
</g>
<!-- Node3&#45;&gt;Node4 -->
<g id="edge3_Node000003_Node000004" class="edge">
<title>Node3&#45;&gt;Node4</title>
<g id="a_edge3_Node000003_Node000004"><a xlink:title=" ">
<path fill="none" stroke="#63b8ff" d="M354.75,-105.91C330.5,-96.27 298.25,-83.46 276.84,-74.95"/>
<polygon fill="#63b8ff" stroke="#63b8ff" points="353.28,-109.09 363.86,-109.53 355.86,-102.59 353.28,-109.09"/>
</a>
</g>
</g>
<!-- Node3&#45;&gt;Node5 -->
<g id="edge4_Node000003_Node000005" class="edge">
<title>Node3&#45;&gt;Node5</title>
<g id="a_edge4_Node000003_Node000005"><a xlink:title=" ">
<path fill="none" stroke="#63b8ff" d="M403.72,-102.04C412.04,-93 421.91,-82.27 428.73,-74.86"/>
<polygon fill="#63b8ff" stroke="#63b8ff" points="401.31,-99.49 397.12,-109.22 406.46,-104.23 401.31,-99.49"/>
</a>
</g>
</g>
<!-- Node5&#45;&gt;Node6 -->
<g id="edge5_Node000005_Node000006" class="edge">
<title>Node5&#45;&gt;Node6</title>
<g id="a_edge5_Node000005_Node000006"><a xlink:title=" ">
<path fill="none" stroke="#63b8ff" d="M364.13,-53.13C297.64,-43.32 200.44,-28.98 137.7,-19.73"/>
<polygon fill="#63b8ff" stroke="#63b8ff" points="363.45,-56.56 373.85,-54.56 364.47,-49.64 363.45,-56.56"/>
</a>
</g>
</g>
<!-- Node7 -->
<g id="Node000007" class="node">
<title>Node7</title>
<g id="a_Node000007"><a xlink:href="shell_8c.html" target="_top" xlink:title=" ">
<polygon fill="white" stroke="#666666" points="508.38,-19.25 365.62,-19.25 365.62,0 508.38,0 508.38,-19.25"/>
<text text-anchor="middle" x="437" y="-5.75" font-family="Helvetica,sans-Serif" font-size="10.00">src/group_29/src/shell/shell.c</text>
</a>
</g>
</g>
<!-- Node5&#45;&gt;Node7 -->
<g id="edge6_Node000005_Node000007" class="edge">
<title>Node5&#45;&gt;Node7</title>
<g id="a_edge6_Node000005_Node000007"><a xlink:title=" ">
<path fill="none" stroke="#63b8ff" d="M437,-43.63C437,-35.34 437,-26.17 437,-19.61"/>
<polygon fill="#63b8ff" stroke="#63b8ff" points="433.5,-43.57 437,-53.57 440.5,-43.57 433.5,-43.57"/>
</a>
</g>
</g>
<!-- Node11&#45;&gt;Node2 -->
<g id="edge15_Node000011_Node000002" class="edge">
<title>Node11&#45;&gt;Node2</title>
<g id="a_edge15_Node000011_Node000002"><a xlink:title=" ">
<path fill="none" stroke="#63b8ff" d="M436.59,-218.63C379.17,-208.83 296.1,-194.65 242.32,-185.48"/>
<polygon fill="#63b8ff" stroke="#63b8ff" points="435.78,-222.04 446.23,-220.28 436.96,-215.14 435.78,-222.04"/>
</a>
</g>
</g>
<!-- Node11&#45;&gt;Node3 -->
<g id="edge14_Node000011_Node000003" class="edge">
<title>Node11&#45;&gt;Node3</title>
<g id="a_edge14_Node000011_Node000003"><a xlink:title=" ">
<path fill="none" stroke="#63b8ff" d="M489.32,-211.47C480.13,-197.98 466.49,-179.6 452,-165.75 437.11,-151.53 417.34,-138.46 403.74,-130.19"/>
<polygon fill="#63b8ff" stroke="#63b8ff" points="486.14,-213.01 494.58,-219.41 491.97,-209.14 486.14,-213.01"/>
</a>
</g>
</g>
<!-- Node11&#45;&gt;Node5 -->
<g id="edge17_Node000011_Node000005" class="edge">
<title>Node11&#45;&gt;Node5</title>
<g id="a_edge17_Node000011_Node000005"><a xlink:title=" ">
<path fill="none" stroke="#63b8ff" d="M503.86,-209.42C506.38,-184.62 507.47,-141.98 491,-110.5 482.83,-94.87 466.59,-82.63 454.04,-74.96"/>
<polygon fill="#63b8ff" stroke="#63b8ff" points="500.41,-208.76 502.67,-219.11 507.36,-209.61 500.41,-208.76"/>
</a>
</g>
</g>
<!-- Node11&#45;&gt;Node6 -->
<g id="edge16_Node000011_Node000006" class="edge">
<title>Node11&#45;&gt;Node6</title>
<g id="a_edge16_Node000011_Node000006"><a xlink:title=" ">
<path fill="none" stroke="#63b8ff" d="M414.14,-220.61C301.7,-208.8 119.26,-189.1 113,-185 62.19,-151.7 65.94,-115.87 70,-55.25 70.84,-42.77 72.97,-28.46 74.45,-19.48"/>
<polygon fill="#63b8ff" stroke="#63b8ff" points="413.65,-224.08 423.97,-221.64 414.39,-217.12 413.65,-224.08"/>
</a>
</g>
</g>
<!-- Node12 -->
<g id="Node000012" class="node">
<title>Node12</title>
<g id="a_Node000012"><a xlink:href="string_8c.html" target="_top" xlink:title=" ">
<polygon fill="white" stroke="#666666" points="443.12,-185 292.88,-185 292.88,-165.75 443.12,-165.75 443.12,-185"/>
<text text-anchor="middle" x="368" y="-171.5" font-family="Helvetica,sans-Serif" font-size="10.00">src/group_29/src/string/string.c</text>
</a>
</g>
</g>
<!-- Node11&#45;&gt;Node12 -->
<g id="edge18_Node000011_Node000012" class="edge">
<title>Node11&#45;&gt;Node12</title>
<g id="a_edge18_Node000011_Node000012"><a xlink:title=" ">
<path fill="none" stroke="#63b8ff" d="M468,-216.41C443.93,-206.77 411.92,-193.96 390.67,-185.45"/>
<polygon fill="#63b8ff" stroke="#63b8ff" points="466.45,-219.56 477.03,-220.03 469.05,-213.06 466.45,-219.56"/>
</a>
</g>
</g>
<!-- Node11&#45;&gt;Node13 -->
<g id="edge19_Node000011_Node000013" class="edge">
<title>Node11&#45;&gt;Node13</title>
<g id="a_edge19_Node000011_Node000013"><a xlink:title=" ">
<path fill="none" stroke="#63b8ff" d="M529.13,-215.49C548.09,-205.97 572.53,-193.69 588.93,-185.45"/>
<polygon fill="#63b8ff" stroke="#63b8ff" points="527.7,-212.3 520.33,-219.91 530.84,-218.55 527.7,-212.3"/>
</a>
</g>
</g>
<!-- Node13&#45;&gt;Node3 -->
<g id="edge20_Node000013_Node000003" class="edge">
<title>Node13&#45;&gt;Node3</title>
<g id="a_edge20_Node000013_Node000003"><a xlink:title=" ">
<path fill="none" stroke="#63b8ff" d="M558.72,-162.63C518.53,-152.86 462.13,-139.15 425.33,-130.2"/>
<polygon fill="#63b8ff" stroke="#63b8ff" points="557.84,-166.02 568.38,-164.98 559.49,-159.22 557.84,-166.02"/>
</a>
</g>
</g>
<!-- Node13&#45;&gt;Node5 -->
<g id="edge22_Node000013_Node000005" class="edge">
<title>Node13&#45;&gt;Node5</title>
<g id="a_edge22_Node000013_Node000005"><a xlink:title=" ">
<path fill="none" stroke="#63b8ff" d="M588.1,-158.23C571.73,-144.64 547.11,-125.15 524,-110.5 502.06,-96.6 475.27,-83.37 457.26,-74.98"/>
<polygon fill="#63b8ff" stroke="#63b8ff" points="585.64,-160.74 595.55,-164.49 590.14,-155.38 585.64,-160.74"/>
</a>
</g>
</g>
<!-- Node13&#45;&gt;Node6 -->
<g id="edge21_Node000013_Node000006" class="edge">
<title>Node13&#45;&gt;Node6</title>
<g id="a_edge21_Node000013_Node000006"><a xlink:title=" ">
<path fill="none" stroke="#63b8ff" d="M598.72,-155.27C585.72,-127.86 557.72,-78.15 517,-55.25 453.87,-19.74 245.12,-12.33 139.05,-10.89"/>
<polygon fill="#63b8ff" stroke="#63b8ff" points="595.42,-156.48 602.74,-164.13 601.8,-153.58 595.42,-156.48"/>
</a>
</g>
</g>
<!-- Node14 -->
<g id="Node000014" class="node">
<title>Node14</title>
<g id="a_Node000014"><a xlink:href="user_8c.html" target="_top" xlink:title=" ">
<polygon fill="white" stroke="#666666" points="753.88,-129.75 614.12,-129.75 614.12,-110.5 753.88,-110.5 753.88,-129.75"/>
<text text-anchor="middle" x="684" y="-116.25" font-family="Helvetica,sans-Serif" font-size="10.00">src/group_29/src/user/user.c</text>
</a>
</g>
</g>
<!-- Node13&#45;&gt;Node14 -->
<g id="edge23_Node000013_Node000014" class="edge">
<title>Node13&#45;&gt;Node14</title>
<g id="a_edge23_Node000013_Node000014"><a xlink:title=" ">
<path fill="none" stroke="#63b8ff" d="M629.19,-159.03C642.68,-149.7 659.46,-138.1 670.87,-130.2"/>
<polygon fill="#63b8ff" stroke="#63b8ff" points="627.54,-155.91 621.31,-164.48 631.52,-161.67 627.54,-155.91"/>
</a>
</g>
</g>
</g>
</svg>
