<?xml version="1.0" encoding="UTF-8" standalone="no"?>
<!DOCTYPE svg PUBLIC "-//W3C//DTD SVG 1.1//EN"
 "http://www.w3.org/Graphics/SVG/1.1/DTD/svg11.dtd">
<!-- Generated by graphviz version 12.2.1 (20241206.2353)
 -->
<!-- Title: shell_handle_char Pages: 1 -->
<!--zoomable 480 -->

<svg id="main" version="1.1" xmlns="http://www.w3.org/2000/svg" xmlns:xlink="http://www.w3.org/1999/xlink" xml:space="preserve" onload="init(evt)">

<style type="text/css"><![CDATA[
.node, .edge {opacity: 0.7;}
.node.selected, .edge.selected {opacity: 1;}
.edge:hover path { stroke: red; }
.edge:hover polygon { stroke: red; fill: red; }
]]></style>

<defs>
  <circle id="rim" cx="0" cy="0" r="7"/>
  <circle id="rim2" cx="0" cy="0" r="3.5"/>
  <g id="zoomPlus">
    <use xlink:href="#rim" fill="#404040"><set attributeName="fill" to="#808080" begin="zoomplus.mouseover" end="zoomplus.mouseout"/></use>
    <path d="M-4,0h8M0,-4v8" fill="none" stroke="white" stroke-width="1.5" pointer-events="none"/>
  </g>
  <g id="zoomMin">
    <use xlink:href="#rim" fill="#404040"><set attributeName="fill" to="#808080" begin="zoomminus.mouseover" end="zoomminus.mouseout"/></use>
    <path d="M-4,0h8" fill="none" stroke="white" stroke-width="1.5" pointer-events="none"/>
  </g>
  <g id="arrowUp" transform="translate(30 24)">
    <use xlink:href="#rim"/>
    <path pointer-events="none" fill="none" stroke="white" stroke-width="1.5" d="M0,-3.0v7 M-2.5,-0.5L0,-3.0L2.5,-0.5"/>
  </g>
  <g id="arrowRight" transform="rotate(90) translate(36 -43)">
    <use xlink:href="#rim"/>
    <path pointer-events="none" fill="none" stroke="white" stroke-width="1.5" d="M0,-3.0v7 M-2.5,-0.5L0,-3.0L2.5,-0.5"/>
  </g>
  <g id="arrowDown" transform="rotate(180) translate(-30 -48)">
    <use xlink:href="#rim"/>
    <path pointer-events="none" fill="none" stroke="white" stroke-width="1.5" d="M0,-3.0v7 M-2.5,-0.5L0,-3.0L2.5,-0.5"/>
  </g>
  <g id="arrowLeft" transform="rotate(270) translate(-36 17)">
    <use xlink:href="#rim"/>
    <path pointer-events="none" fill="none" stroke="white" stroke-width="1.5" d="M0,-3.0v7 M-2.5,-0.5L0,-3.0L2.5,-0.5"/>
  </g>
  <g id="resetDef">
    <use xlink:href="#rim2" fill="#404040"><set attributeName="fill" to="#808080" begin="reset.mouseover" end="reset.mouseout"/></use>
  </g>
</defs>
<script type="application/ecmascript">
var viewWidth = 1064;
var viewHeight = 480;
var sectionId = 'dynsection-10';
</script>
<script type="application/ecmascript" xlink:href="svg.min.js"/>
<svg id="graph" class="graph">
<g id="viewport">
<title>shell_handle_char</title>
<!-- Node1 -->
<g id="Node000001" class="node">
<title>Node1</title>
<g id="a_Node000001"><a xlink:title=" ">
<polygon fill="#999999" stroke="#666666" points="94,-245.25 0,-245.25 0,-226 94,-226 94,-245.25"/>
<text text-anchor="middle" x="47" y="-231.75" font-family="Helvetica,sans-Serif" font-size="10.00">shell_handle_char</text>
</a>
</g>
</g>
<!-- Node2 -->
<g id="Node000002" class="node">
<title>Node2</title>
<g id="a_Node000002"><a xlink:href="shell_8c.html#a5ae2421b8ab61612c521928c4b5de0f6" target="_top" xlink:title=" ">
<polygon fill="white" stroke="#666666" points="241.62,-397.25 144.62,-397.25 144.62,-378 241.62,-378 241.62,-397.25"/>
<text text-anchor="middle" x="193.12" y="-383.75" font-family="Helvetica,sans-Serif" font-size="10.00">shell_append_char</text>
</a>
</g>
</g>
<!-- Node1&#45;&gt;Node2 -->
<g id="edge1_Node000001_Node000002" class="edge">
<title>Node1&#45;&gt;Node2</title>
<g id="a_edge1_Node000001_Node000002"><a xlink:title=" ">
<path fill="none" stroke="#63b8ff" d="M57.46,-245.6C81.38,-270.83 144.59,-337.5 175.13,-369.71"/>
<polygon fill="#63b8ff" stroke="#63b8ff" points="172.36,-371.87 181.78,-376.71 177.44,-367.05 172.36,-371.87"/>
</a>
</g>
</g>
<!-- Node8 -->
<g id="Node000008" class="node">
<title>Node8</title>
<g id="a_Node000008"><a xlink:href="shell_8c.html#ae53a7acb94668b48601900802986bb86" target="_top" xlink:title=" ">
<polygon fill="white" stroke="#666666" points="426,-95.25 337.25,-95.25 337.25,-76 426,-76 426,-95.25"/>
<text text-anchor="middle" x="381.62" y="-81.75" font-family="Helvetica,sans-Serif" font-size="10.00">shell_backspace</text>
</a>
</g>
</g>
<!-- Node1&#45;&gt;Node8 -->
<g id="edge7_Node000001_Node000008" class="edge">
<title>Node1&#45;&gt;Node8</title>
<g id="a_edge7_Node000001_Node000008"><a xlink:title=" ">
<path fill="none" stroke="#63b8ff" d="M62.7,-225.65C99.6,-201.08 199.82,-137.18 292.25,-103.62 302.85,-99.78 314.47,-96.67 325.71,-94.19"/>
<polygon fill="#63b8ff" stroke="#63b8ff" points="326.2,-97.67 335.29,-92.22 324.79,-90.81 326.2,-97.67"/>
</a>
</g>
</g>
<!-- Node13 -->
<g id="Node000013" class="node">
<title>Node13</title>
<g id="a_Node000013"><a xlink:href="shell_8c.html#a1dadf2da65cbd79e31c2307cf31aa495" target="_top" xlink:title=" ">
<polygon fill="white" stroke="#666666" points="256.25,-245.25 130,-245.25 130,-226 256.25,-226 256.25,-245.25"/>
<text text-anchor="middle" x="193.12" y="-231.75" font-family="Helvetica,sans-Serif" font-size="10.00">shell_submit_current_line</text>
</a>
</g>
</g>
<!-- Node1&#45;&gt;Node13 -->
<g id="edge12_Node000001_Node000013" class="edge">
<title>Node1&#45;&gt;Node13</title>
<g id="a_edge12_Node000001_Node000013"><a xlink:title=" ">
<path fill="none" stroke="#63b8ff" d="M94.4,-235.62C102,-235.62 110.05,-235.62 118.13,-235.62"/>
<polygon fill="#63b8ff" stroke="#63b8ff" points="118.01,-239.13 128.01,-235.63 118.01,-232.13 118.01,-239.13"/>
</a>
</g>
</g>
<!-- Node3 -->
<g id="Node000003" class="node">
<title>Node3</title>
<g id="a_Node000003"><a xlink:href="stdio_8h.html#aaed07ef5e23dd5193105592f06e5bef9" target="_top" xlink:title=" ">
<polygon fill="white" stroke="#666666" points="592.38,-359.25 557.62,-359.25 557.62,-340 592.38,-340 592.38,-359.25"/>
<text text-anchor="middle" x="575" y="-345.75" font-family="Helvetica,sans-Serif" font-size="10.00">print</text>
</a>
</g>
</g>
<!-- Node2&#45;&gt;Node3 -->
<g id="edge2_Node000002_Node000003" class="edge">
<title>Node2&#45;&gt;Node3</title>
<g id="a_edge2_Node000002_Node000003"><a xlink:title=" ">
<path fill="none" stroke="#63b8ff" d="M241.72,-384.21C296.93,-380.08 390.68,-372.56 471,-363.62 496.49,-360.79 525.42,-356.79 546.11,-353.79"/>
<polygon fill="#63b8ff" stroke="#63b8ff" points="546.38,-357.29 555.76,-352.37 545.36,-350.36 546.38,-357.29"/>
</a>
</g>
</g>
<!-- Node4 -->
<g id="Node000004" class="node">
<title>Node4</title>
<g id="a_Node000004"><a xlink:href="shell_8c.html#add963027cdb151b015a08d32179c8475" target="_top" xlink:title=" ">
<polygon fill="white" stroke="#666666" points="437.62,-472.25 325.62,-472.25 325.62,-453 437.62,-453 437.62,-472.25"/>
<text text-anchor="middle" x="381.62" y="-458.75" font-family="Helvetica,sans-Serif" font-size="10.00">shell_max_edit_length</text>
</a>
</g>
</g>
<!-- Node2&#45;&gt;Node4 -->
<g id="edge3_Node000002_Node000004" class="edge">
<title>Node2&#45;&gt;Node4</title>
<g id="a_edge3_Node000002_Node000004"><a xlink:title=" ">
<path fill="none" stroke="#63b8ff" d="M208.02,-397.67C226.39,-410.48 260.21,-432.43 292.25,-444.62 299.23,-447.28 306.68,-449.57 314.18,-451.54"/>
<polygon fill="#63b8ff" stroke="#63b8ff" points="313.14,-454.89 323.68,-453.85 314.79,-448.09 313.14,-454.89"/>
</a>
</g>
</g>
<!-- Node5 -->
<g id="Node000005" class="node">
<title>Node5</title>
<g id="a_Node000005"><a xlink:href="shell_8c.html#ae5dcb6504cc16b4c688e75a49a035f77" target="_top" xlink:title=" ">
<polygon fill="white" stroke="#666666" points="634.38,-472.25 515.62,-472.25 515.62,-453 634.38,-453 634.38,-472.25"/>
<text text-anchor="middle" x="575" y="-458.75" font-family="Helvetica,sans-Serif" font-size="10.00">get_shell_prompt_width</text>
</a>
</g>
</g>
<!-- Node4&#45;&gt;Node5 -->
<g id="edge4_Node000004_Node000005" class="edge">
<title>Node4&#45;&gt;Node5</title>
<g id="a_edge4_Node000004_Node000005"><a xlink:title=" ">
<path fill="none" stroke="#63b8ff" d="M437.98,-462.62C458.56,-462.62 482.2,-462.62 503.93,-462.62"/>
<polygon fill="#63b8ff" stroke="#63b8ff" points="503.92,-466.13 513.92,-462.63 503.92,-459.13 503.92,-466.13"/>
</a>
</g>
</g>
<!-- Node6 -->
<g id="Node000006" class="node">
<title>Node6</title>
<g id="a_Node000006"><a xlink:href="include_2libc_2string_8h.html#a008e171a518fe0e0352f31b245e03875" target="_top" xlink:title=" ">
<polygon fill="white" stroke="#666666" points="749.75,-472.25 709.75,-472.25 709.75,-453 749.75,-453 749.75,-472.25"/>
<text text-anchor="middle" x="729.75" y="-458.75" font-family="Helvetica,sans-Serif" font-size="10.00">strlen</text>
</a>
</g>
</g>
<!-- Node5&#45;&gt;Node6 -->
<g id="edge5_Node000005_Node000006" class="edge">
<title>Node5&#45;&gt;Node6</title>
<g id="a_edge5_Node000005_Node000006"><a xlink:title=" ">
<path fill="none" stroke="#63b8ff" d="M634.62,-462.62C656.19,-462.62 679.76,-462.62 697.91,-462.62"/>
<polygon fill="#63b8ff" stroke="#63b8ff" points="697.75,-466.13 707.75,-462.63 697.75,-459.13 697.75,-466.13"/>
</a>
</g>
</g>
<!-- Node7 -->
<g id="Node000007" class="node">
<title>Node7</title>
<g id="a_Node000007"><a xlink:href="user_8c.html#a9becccc1c11c8b560cc289c85fa77a25" target="_top" xlink:title=" ">
<polygon fill="white" stroke="#666666" points="780.5,-378.25 679,-378.25 679,-359 780.5,-359 780.5,-378.25"/>
<text text-anchor="middle" x="729.75" y="-364.75" font-family="Helvetica,sans-Serif" font-size="10.00">user_get_username</text>
</a>
</g>
</g>
<!-- Node5&#45;&gt;Node7 -->
<g id="edge6_Node000005_Node000007" class="edge">
<title>Node5&#45;&gt;Node7</title>
<g id="a_edge6_Node000005_Node000007"><a xlink:title=" ">
<path fill="none" stroke="#63b8ff" d="M624.26,-452.57C630.75,-450.39 637.17,-447.76 643,-444.62 670.74,-429.69 696.98,-404.14 712.96,-386.83"/>
<polygon fill="#63b8ff" stroke="#63b8ff" points="715.24,-389.53 719.32,-379.76 710.03,-384.85 715.24,-389.53"/>
</a>
</g>
</g>
<!-- Node9 -->
<g id="Node000009" class="node">
<title>Node9</title>
<g id="a_Node000009"><a xlink:href="shell_8c.html#a187e518d5a686a99f5a7bd18eaecb00e" target="_top" xlink:title=" ">
<polygon fill="white" stroke="#666666" points="776.75,-132.25 682.75,-132.25 682.75,-113 776.75,-113 776.75,-132.25"/>
<text text-anchor="middle" x="729.75" y="-118.75" font-family="Helvetica,sans-Serif" font-size="10.00">shell_sync_cursor</text>
</a>
</g>
</g>
<!-- Node8&#45;&gt;Node9 -->
<g id="edge8_Node000008_Node000009" class="edge">
<title>Node8&#45;&gt;Node9</title>
<g id="a_edge8_Node000008_Node000009"><a xlink:title=" ">
<path fill="none" stroke="#63b8ff" d="M426.31,-92.1C450.13,-95.5 480.15,-99.58 507,-102.62 562.65,-108.93 626.34,-114.51 671.14,-118.16"/>
<polygon fill="#63b8ff" stroke="#63b8ff" points="670.64,-121.63 680.88,-118.95 671.2,-114.65 670.64,-121.63"/>
</a>
</g>
</g>
<!-- Node12 -->
<g id="Node000012" class="node">
<title>Node12</title>
<g id="a_Node000012"><a xlink:href="vga__text__mode__interface_8c.html#aa54caf9a43b2057b73d7fd442fbaa3f6" target="_top" xlink:title="Puts together two values from standard_vga_text_color into a single uint8_t.">
<polygon fill="white" stroke="#666666" points="602.88,-244.25 547.12,-244.25 547.12,-225 602.88,-225 602.88,-244.25"/>
<text text-anchor="middle" x="575" y="-230.75" font-family="Helvetica,sans-Serif" font-size="10.00">VgaColor</text>
</a>
</g>
</g>
<!-- Node8&#45;&gt;Node12 -->
<g id="edge11_Node000008_Node000012" class="edge">
<title>Node8&#45;&gt;Node12</title>
<g id="a_edge11_Node000008_Node000012"><a xlink:title=" ">
<path fill="none" stroke="#63b8ff" d="M426.27,-85.64C442.01,-87.75 458.87,-92.76 471,-103.62 509.95,-138.51 469.39,-179.3 507,-215.62 514.79,-223.15 525.34,-227.74 535.75,-230.52"/>
<polygon fill="#63b8ff" stroke="#63b8ff" points="534.88,-233.91 545.39,-232.57 536.33,-227.06 534.88,-233.91"/>
</a>
</g>
</g>
<!-- Node10 -->
<g id="Node000010" class="node">
<title>Node10</title>
<g id="a_Node000010"><a xlink:href="vga__text__mode__interface_8c.html#a8c45da99a0cc6cede9fb20fb07173be4" target="_top" xlink:title="Updates the VGA hardware cursor to the current text cell.">
<polygon fill="white" stroke="#666666" points="984.75,-243.25 816.5,-243.25 816.5,-224 984.75,-224 984.75,-243.25"/>
<text text-anchor="middle" x="900.62" y="-229.75" font-family="Helvetica,sans-Serif" font-size="10.00">VgaTextModeCursorSyncHardware</text>
</a>
</g>
</g>
<!-- Node9&#45;&gt;Node10 -->
<g id="edge9_Node000009_Node000010" class="edge">
<title>Node9&#45;&gt;Node10</title>
<g id="a_edge9_Node000009_Node000010"><a xlink:title=" ">
<path fill="none" stroke="#63b8ff" d="M763.25,-132.7C769.14,-135 775.11,-137.65 780.5,-140.62 819.25,-162.05 858.67,-195.64 881.05,-216.05"/>
<polygon fill="#63b8ff" stroke="#63b8ff" points="878.45,-218.41 888.17,-222.64 883.21,-213.27 878.45,-218.41"/>
</a>
</g>
</g>
<!-- Node11 -->
<g id="Node000011" class="node">
<title>Node11</title>
<g id="a_Node000011"><a xlink:href="vga__text__mode__interface_8c.html#ab52bf4ee1747fde943d805c11698c2b5" target="_top" xlink:title=" ">
<polygon fill="white" stroke="#666666" points="1055.5,-243.25 1020.75,-243.25 1020.75,-224 1055.5,-224 1055.5,-243.25"/>
<text text-anchor="middle" x="1038.12" y="-229.75" font-family="Helvetica,sans-Serif" font-size="10.00">outb</text>
</a>
</g>
</g>
<!-- Node10&#45;&gt;Node11 -->
<g id="edge10_Node000010_Node000011" class="edge">
<title>Node10&#45;&gt;Node11</title>
<g id="a_edge10_Node000010_Node000011"><a xlink:title=" ">
<path fill="none" stroke="#63b8ff" d="M985.12,-233.62C993.78,-233.62 1002.07,-233.62 1009.39,-233.62"/>
<polygon fill="#63b8ff" stroke="#63b8ff" points="1009.17,-237.13 1019.17,-233.63 1009.17,-230.13 1009.17,-237.13"/>
</a>
</g>
</g>
<!-- Node13&#45;&gt;Node3 -->
<g id="edge21_Node000013_Node000003" class="edge">
<title>Node13&#45;&gt;Node3</title>
<g id="a_edge21_Node000013_Node000003"><a xlink:title=" ">
<path fill="none" stroke="#63b8ff" d="M200.77,-245.72C214.82,-266.09 249.78,-311.75 292.25,-330.62 378.1,-368.79 493.31,-360.46 545.81,-353.86"/>
<polygon fill="#63b8ff" stroke="#63b8ff" points="546.23,-357.34 555.68,-352.54 545.3,-350.4 546.23,-357.34"/>
</a>
</g>
</g>
<!-- Node13&#45;&gt;Node12 -->
<g id="edge39_Node000013_Node000012" class="edge">
<title>Node13&#45;&gt;Node12</title>
<g id="a_edge39_Node000013_Node000012"><a xlink:title=" ">
<path fill="none" stroke="#63b8ff" d="M236.85,-225.51C253.97,-221.94 273.94,-218.38 292.25,-216.62 371.33,-209.04 391.85,-209.76 471,-216.62 492.52,-218.49 516.28,-222.51 535.56,-226.28"/>
<polygon fill="#63b8ff" stroke="#63b8ff" points="534.65,-229.67 545.14,-228.21 536.03,-222.8 534.65,-229.67"/>
</a>
</g>
</g>
<!-- Node14 -->
<g id="Node000014" class="node">
<title>Node14</title>
<g id="a_Node000014"><a xlink:href="string_8c.html#a6c1819f2460f96a82d3be06a279e9bfa" target="_top" xlink:title="Adds a number to a string by using &#39;d&#39; as placeholder.">
<polygon fill="white" stroke="#666666" points="418.12,-57.25 345.12,-57.25 345.12,-38 418.12,-38 418.12,-57.25"/>
<text text-anchor="middle" x="381.62" y="-43.75" font-family="Helvetica,sans-Serif" font-size="10.00">format_string</text>
</a>
</g>
</g>
<!-- Node13&#45;&gt;Node14 -->
<g id="edge13_Node000013_Node000014" class="edge">
<title>Node13&#45;&gt;Node14</title>
<g id="a_edge13_Node000013_Node000014"><a xlink:title=" ">
<path fill="none" stroke="#63b8ff" d="M196.79,-225.7C205.23,-196.22 234.33,-108.7 292.25,-66.62 304.17,-57.96 319.24,-53.1 333.54,-50.41"/>
<polygon fill="#63b8ff" stroke="#63b8ff" points="333.91,-53.9 343.27,-48.92 332.86,-46.98 333.91,-53.9"/>
</a>
</g>
</g>
<!-- Node20 -->
<g id="Node000020" class="node">
<title>Node20</title>
<g id="a_Node000020"><a xlink:href="heap_8c.html#afbedc913aa4651b3c3b4b3aecd9b4711" target="_top" xlink:title="Frees a block previously returned by malloc.">
<polygon fill="white" stroke="#666666" points="397.88,-435.25 365.38,-435.25 365.38,-416 397.88,-416 397.88,-435.25"/>
<text text-anchor="middle" x="381.62" y="-421.75" font-family="Helvetica,sans-Serif" font-size="10.00">free</text>
</a>
</g>
</g>
<!-- Node13&#45;&gt;Node20 -->
<g id="edge19_Node000013_Node000020" class="edge">
<title>Node13&#45;&gt;Node20</title>
<g id="a_edge19_Node000013_Node000020"><a xlink:title=" ">
<path fill="none" stroke="#63b8ff" d="M200.14,-245.42C214.3,-267.98 251.62,-324.68 292.25,-363.62 311.57,-382.14 336.83,-399.29 355.39,-410.84"/>
<polygon fill="#63b8ff" stroke="#63b8ff" points="353.54,-413.8 363.9,-416.01 357.18,-407.82 353.54,-413.8"/>
</a>
</g>
</g>
<!-- Node22 -->
<g id="Node000022" class="node">
<title>Node22</title>
<g id="a_Node000022"><a xlink:href="printing_8c.html#a6f34b320d469f8ea4009e4e1f02356af" target="_top" xlink:title="Prints a string with specific VGA colors.">
<polygon fill="white" stroke="#666666" points="605.5,-281.25 544.5,-281.25 544.5,-262 605.5,-262 605.5,-281.25"/>
<text text-anchor="middle" x="575" y="-267.75" font-family="Helvetica,sans-Serif" font-size="10.00">print_color</text>
</a>
</g>
</g>
<!-- Node13&#45;&gt;Node22 -->
<g id="edge22_Node000013_Node000022" class="edge">
<title>Node13&#45;&gt;Node22</title>
<g id="a_edge22_Node000013_Node000022"><a xlink:title=" ">
<path fill="none" stroke="#63b8ff" d="M239.36,-245.67C255.92,-249.01 274.86,-252.43 292.25,-254.62 377.4,-265.39 477.92,-269.38 532.92,-270.83"/>
<polygon fill="#63b8ff" stroke="#63b8ff" points="532.67,-274.33 542.76,-271.07 532.85,-267.33 532.67,-274.33"/>
</a>
</g>
</g>
<!-- Node24 -->
<g id="Node000024" class="node">
<title>Node24</title>
<g id="a_Node000024"><a xlink:href="command_8c.html#a7a9997820f8c324cee6561dd49b8dd71" target="_top" xlink:title="Parses and runs a command.">
<polygon fill="white" stroke="#666666" points="420.38,-169.25 342.88,-169.25 342.88,-150 420.38,-150 420.38,-169.25"/>
<text text-anchor="middle" x="381.62" y="-155.75" font-family="Helvetica,sans-Serif" font-size="10.00">run_command</text>
</a>
</g>
</g>
<!-- Node13&#45;&gt;Node24 -->
<g id="edge26_Node000013_Node000024" class="edge">
<title>Node13&#45;&gt;Node24</title>
<g id="a_edge26_Node000013_Node000024"><a xlink:title=" ">
<path fill="none" stroke="#63b8ff" d="M210.26,-225.63C229.28,-214.2 262.13,-195.53 292.25,-183.62 304.72,-178.7 318.56,-174.42 331.51,-170.89"/>
<polygon fill="#63b8ff" stroke="#63b8ff" points="332.36,-174.28 341.15,-168.36 330.59,-167.51 332.36,-174.28"/>
</a>
</g>
</g>
<!-- Node28 -->
<g id="Node000028" class="node">
<title>Node28</title>
<g id="a_Node000028"><a xlink:href="shell_8c.html#ab670747068e5e5c5eab6d736c3c38028" target="_top" xlink:title=" ">
<polygon fill="white" stroke="#666666" points="431.62,-321.25 331.62,-321.25 331.62,-302 431.62,-302 431.62,-321.25"/>
<text text-anchor="middle" x="381.62" y="-307.75" font-family="Helvetica,sans-Serif" font-size="10.00">shell_begin_prompt</text>
</a>
</g>
</g>
<!-- Node13&#45;&gt;Node28 -->
<g id="edge30_Node000013_Node000028" class="edge">
<title>Node13&#45;&gt;Node28</title>
<g id="a_edge30_Node000013_Node000028"><a xlink:title=" ">
<path fill="none" stroke="#63b8ff" d="M210.26,-245.62C229.28,-257.05 262.13,-275.72 292.25,-287.62 302.67,-291.74 314.06,-295.41 325.09,-298.57"/>
<polygon fill="#63b8ff" stroke="#63b8ff" points="323.91,-301.88 334.48,-301.15 325.77,-295.13 323.91,-301.88"/>
</a>
</g>
</g>
<!-- Node29 -->
<g id="Node000029" class="node">
<title>Node29</title>
<g id="a_Node000029"><a xlink:href="shell_8c.html#a8d972e33cce9ef6d1f935312df6b7d5f" target="_top" xlink:title=" ">
<polygon fill="white" stroke="#666666" points="471,-132.25 292.25,-132.25 292.25,-113 471,-113 471,-132.25"/>
<text text-anchor="middle" x="381.62" y="-118.75" font-family="Helvetica,sans-Serif" font-size="10.00">shell_copy_current_line_to_submitted</text>
</a>
</g>
</g>
<!-- Node13&#45;&gt;Node29 -->
<g id="edge35_Node000013_Node000029" class="edge">
<title>Node13&#45;&gt;Node29</title>
<g id="a_edge35_Node000013_Node000029"><a xlink:title=" ">
<path fill="none" stroke="#63b8ff" d="M201.22,-225.69C215.82,-206.02 251.35,-162.18 292.25,-140.62 295.11,-139.12 298.08,-137.74 301.12,-136.47"/>
<polygon fill="#63b8ff" stroke="#63b8ff" points="302.11,-139.84 310.3,-133.12 299.71,-133.27 302.11,-139.84"/>
</a>
</g>
</g>
<!-- Node30 -->
<g id="Node000030" class="node">
<title>Node30</title>
<g id="a_Node000030"><a xlink:href="shell_8c.html#af7429323ee7c94e69218f62db5ce47d1" target="_top" xlink:title=" ">
<polygon fill="white" stroke="#666666" points="450,-245.25 313.25,-245.25 313.25,-226 450,-226 450,-245.25"/>
<text text-anchor="middle" x="381.62" y="-231.75" font-family="Helvetica,sans-Serif" font-size="10.00">shell_print_failure_message</text>
</a>
</g>
</g>
<!-- Node13&#45;&gt;Node30 -->
<g id="edge36_Node000013_Node000030" class="edge">
<title>Node13&#45;&gt;Node30</title>
<g id="a_edge36_Node000013_Node000030"><a xlink:title=" ">
<path fill="none" stroke="#63b8ff" d="M256.75,-235.62C271.17,-235.62 286.68,-235.62 301.7,-235.62"/>
<polygon fill="#63b8ff" stroke="#63b8ff" points="301.54,-239.13 311.54,-235.63 301.54,-232.13 301.54,-239.13"/>
</a>
</g>
</g>
<!-- Node15 -->
<g id="Node000015" class="node">
<title>Node15</title>
<g id="a_Node000015"><a xlink:href="string_8c.html#a26be53fd83753908febff7d06351de3a" target="_top" xlink:title="Converts a 32&#45;bit signed integer to its decimal string representation.">
<polygon fill="white" stroke="#666666" points="603.25,-93.25 546.75,-93.25 546.75,-74 603.25,-74 603.25,-93.25"/>
<text text-anchor="middle" x="575" y="-79.75" font-family="Helvetica,sans-Serif" font-size="10.00">int_to_str</text>
</a>
</g>
</g>
<!-- Node14&#45;&gt;Node15 -->
<g id="edge14_Node000014_Node000015" class="edge">
<title>Node14&#45;&gt;Node15</title>
<g id="a_edge14_Node000014_Node000015"><a xlink:title=" ">
<path fill="none" stroke="#63b8ff" d="M418.62,-54.4C451.99,-60.67 501.48,-69.98 535.59,-76.4"/>
<polygon fill="#63b8ff" stroke="#63b8ff" points="534.57,-79.77 545.04,-78.18 535.86,-72.89 534.57,-79.77"/>
</a>
</g>
</g>
<!-- Node16 -->
<g id="Node000016" class="node">
<title>Node16</title>
<g id="a_Node000016"><a xlink:href="heap_8c.html#a9c36d0fe3ec4675cbffdc9b52f5fb399" target="_top" xlink:title="Allocates at least size bytes from the kernel heap.">
<polygon fill="white" stroke="#666666" points="597.25,-56.25 552.75,-56.25 552.75,-37 597.25,-37 597.25,-56.25"/>
<text text-anchor="middle" x="575" y="-42.75" font-family="Helvetica,sans-Serif" font-size="10.00">malloc</text>
</a>
</g>
</g>
<!-- Node14&#45;&gt;Node16 -->
<g id="edge15_Node000014_Node000016" class="edge">
<title>Node14&#45;&gt;Node16</title>
<g id="a_edge15_Node000014_Node000016"><a xlink:title=" ">
<path fill="none" stroke="#63b8ff" d="M418.62,-47.44C453.88,-47.25 507.13,-46.97 541.23,-46.8"/>
<polygon fill="#63b8ff" stroke="#63b8ff" points="540.94,-50.3 550.92,-46.75 540.9,-43.3 540.94,-50.3"/>
</a>
</g>
</g>
<!-- Node19 -->
<g id="Node000019" class="node">
<title>Node19</title>
<g id="a_Node000019"><a xlink:href="string_8c.html#a12bee89ccd121c793b3e81305a60c211" target="_top" xlink:title="Finds the length of a string.">
<polygon fill="white" stroke="#666666" points="595,-19.25 555,-19.25 555,0 595,0 595,-19.25"/>
<text text-anchor="middle" x="575" y="-5.75" font-family="Helvetica,sans-Serif" font-size="10.00">strlen</text>
</a>
</g>
</g>
<!-- Node14&#45;&gt;Node19 -->
<g id="edge18_Node000014_Node000019" class="edge">
<title>Node14&#45;&gt;Node19</title>
<g id="a_edge18_Node000014_Node000019"><a xlink:title=" ">
<path fill="none" stroke="#63b8ff" d="M418.62,-40.48C454.65,-33.32 509.48,-22.44 543.45,-15.69"/>
<polygon fill="#63b8ff" stroke="#63b8ff" points="543.92,-19.17 553.05,-13.78 542.56,-12.3 543.92,-19.17"/>
</a>
</g>
</g>
<!-- Node17 -->
<g id="Node000017" class="node">
<title>Node17</title>
<g id="a_Node000017"><a xlink:href="heap_8c.html#a401aaf24b99f6928ef5b161a6ad97c38" target="_top" xlink:title=" ">
<polygon fill="white" stroke="#666666" points="755.75,-37.25 703.75,-37.25 703.75,-18 755.75,-18 755.75,-37.25"/>
<text text-anchor="middle" x="729.75" y="-23.75" font-family="Helvetica,sans-Serif" font-size="10.00">align_up</text>
</a>
</g>
</g>
<!-- Node16&#45;&gt;Node17 -->
<g id="edge16_Node000016_Node000017" class="edge">
<title>Node16&#45;&gt;Node17</title>
<g id="a_edge16_Node000016_Node000017"><a xlink:title=" ">
<path fill="none" stroke="#63b8ff" d="M597.56,-43.94C622.17,-40.88 662.83,-35.82 692.37,-32.15"/>
<polygon fill="#63b8ff" stroke="#63b8ff" points="692.49,-35.66 701.98,-30.95 691.63,-28.72 692.49,-35.66"/>
</a>
</g>
</g>
<!-- Node18 -->
<g id="Node000018" class="node">
<title>Node18</title>
<g id="a_Node000018"><a xlink:href="heap_8c.html#a18e1cd07c4b070ddb71e7ee3044e55ab" target="_top" xlink:title=" ">
<polygon fill="white" stroke="#666666" points="761,-74.25 698.5,-74.25 698.5,-55 761,-55 761,-74.25"/>
<text text-anchor="middle" x="729.75" y="-60.75" font-family="Helvetica,sans-Serif" font-size="10.00">split_block</text>
</a>
</g>
</g>
<!-- Node16&#45;&gt;Node18 -->
<g id="edge17_Node000016_Node000018" class="edge">
<title>Node16&#45;&gt;Node18</title>
<g id="a_edge17_Node000016_Node000018"><a xlink:title=" ">
<path fill="none" stroke="#63b8ff" d="M597.56,-49.17C620.62,-51.88 657.76,-56.26 686.65,-59.66"/>
<polygon fill="#63b8ff" stroke="#63b8ff" points="686.22,-63.14 696.56,-60.83 687.04,-56.19 686.22,-63.14"/>
</a>
</g>
</g>
<!-- Node21 -->
<g id="Node000021" class="node">
<title>Node21</title>
<g id="a_Node000021"><a xlink:href="heap_8c.html#a633593169d6bae2a826e29ac687b9326" target="_top" xlink:title=" ">
<polygon fill="white" stroke="#666666" points="630.25,-435.25 519.75,-435.25 519.75,-416 630.25,-416 630.25,-435.25"/>
<text text-anchor="middle" x="575" y="-421.75" font-family="Helvetica,sans-Serif" font-size="10.00">coalesce_free_blocks</text>
</a>
</g>
</g>
<!-- Node20&#45;&gt;Node21 -->
<g id="edge20_Node000020_Node000021" class="edge">
<title>Node20&#45;&gt;Node21</title>
<g id="a_edge20_Node000020_Node000021"><a xlink:title=" ">
<path fill="none" stroke="#63b8ff" d="M398.29,-425.62C422.09,-425.62 468.77,-425.62 508.03,-425.62"/>
<polygon fill="#63b8ff" stroke="#63b8ff" points="507.9,-429.13 517.9,-425.63 507.9,-422.13 507.9,-429.13"/>
</a>
</g>
</g>
<!-- Node22&#45;&gt;Node10 -->
<g id="edge25_Node000022_Node000010" class="edge">
<title>Node22&#45;&gt;Node10</title>
<g id="a_edge25_Node000022_Node000010"><a xlink:title=" ">
<path fill="none" stroke="#63b8ff" d="M605.63,-265.38C626.14,-261.24 654.13,-255.98 679,-252.62 720.09,-247.08 765.72,-242.83 804.77,-239.78"/>
<polygon fill="#63b8ff" stroke="#63b8ff" points="804.92,-243.28 814.62,-239.02 804.38,-236.3 804.92,-243.28"/>
</a>
</g>
</g>
<!-- Node23 -->
<g id="Node000023" class="node">
<title>Node23</title>
<g id="a_Node000023"><a xlink:href="printing_8c.html#a84aa5d70fb7071886a0c2fc4d5380535" target="_top" xlink:title=" ">
<polygon fill="white" stroke="#666666" points="766.62,-281.25 692.88,-281.25 692.88,-262 766.62,-262 766.62,-281.25"/>
<text text-anchor="middle" x="729.75" y="-267.75" font-family="Helvetica,sans-Serif" font-size="10.00">scroll_screen</text>
</a>
</g>
</g>
<!-- Node22&#45;&gt;Node23 -->
<g id="edge23_Node000022_Node000023" class="edge">
<title>Node22&#45;&gt;Node23</title>
<g id="a_edge23_Node000022_Node000023"><a xlink:title=" ">
<path fill="none" stroke="#63b8ff" d="M605.81,-271.62C627.25,-271.62 656.6,-271.62 681.25,-271.62"/>
<polygon fill="#63b8ff" stroke="#63b8ff" points="681.04,-275.13 691.04,-271.63 681.04,-268.13 681.04,-275.13"/>
</a>
</g>
</g>
<!-- Node23&#45;&gt;Node10 -->
<g id="edge24_Node000023_Node000010" class="edge">
<title>Node23&#45;&gt;Node10</title>
<g id="a_edge24_Node000023_Node000010"><a xlink:title=" ">
<path fill="none" stroke="#63b8ff" d="M766.98,-263.47C789.35,-258.44 818.51,-251.88 843.79,-246.19"/>
<polygon fill="#63b8ff" stroke="#63b8ff" points="844.26,-249.67 853.25,-244.06 842.73,-242.84 844.26,-249.67"/>
</a>
</g>
</g>
<!-- Node25 -->
<g id="Node000025" class="node">
<title>Node25</title>
<g id="a_Node000025"><a xlink:href="command_8c.html#a5b83f2a7adb63823be746312c4851941" target="_top" xlink:title="Dispatches command to the correct handler.">
<polygon fill="white" stroke="#666666" points="621.25,-169.25 528.75,-169.25 528.75,-150 621.25,-150 621.25,-169.25"/>
<text text-anchor="middle" x="575" y="-155.75" font-family="Helvetica,sans-Serif" font-size="10.00">handle_command</text>
</a>
</g>
</g>
<!-- Node24&#45;&gt;Node25 -->
<g id="edge27_Node000024_Node000025" class="edge">
<title>Node24&#45;&gt;Node25</title>
<g id="a_edge27_Node000024_Node000025"><a xlink:title=" ">
<path fill="none" stroke="#63b8ff" d="M420.43,-159.62C448.08,-159.62 486.06,-159.62 517.33,-159.62"/>
<polygon fill="#63b8ff" stroke="#63b8ff" points="517,-163.13 527,-159.63 517,-156.13 517,-163.13"/>
</a>
</g>
</g>
<!-- Node27 -->
<g id="Node000027" class="node">
<title>Node27</title>
<g id="a_Node000027"><a xlink:href="command_8c.html#a293123cae1546d5162b72e81825401a5" target="_top" xlink:title="Parses input into arguments (argument_count/argument_count style).">
<polygon fill="white" stroke="#666666" points="643,-206.25 507,-206.25 507,-187 643,-187 643,-206.25"/>
<text text-anchor="middle" x="575" y="-192.75" font-family="Helvetica,sans-Serif" font-size="10.00">parse_command_aguments</text>
</a>
</g>
</g>
<!-- Node24&#45;&gt;Node27 -->
<g id="edge29_Node000024_Node000027" class="edge">
<title>Node24&#45;&gt;Node27</title>
<g id="a_edge29_Node000024_Node000027"><a xlink:title=" ">
<path fill="none" stroke="#63b8ff" d="M420.43,-166.94C446.13,-171.9 480.74,-178.59 510.6,-184.37"/>
<polygon fill="#63b8ff" stroke="#63b8ff" points="509.81,-187.78 520.29,-186.24 511.14,-180.91 509.81,-187.78"/>
</a>
</g>
</g>
<!-- Node26 -->
<g id="Node000026" class="node">
<title>Node26</title>
<g id="a_Node000026"><a xlink:href="string_8c.html#a3ea408adfb4c8bab4a00adf0d9af1ae5" target="_top" xlink:title="Compares two null&#45;terminated strings lexicographically.">
<polygon fill="white" stroke="#666666" points="752.75,-169.25 706.75,-169.25 706.75,-150 752.75,-150 752.75,-169.25"/>
<text text-anchor="middle" x="729.75" y="-155.75" font-family="Helvetica,sans-Serif" font-size="10.00">strcmp</text>
</a>
</g>
</g>
<!-- Node25&#45;&gt;Node26 -->
<g id="edge28_Node000025_Node000026" class="edge">
<title>Node25&#45;&gt;Node26</title>
<g id="a_edge28_Node000025_Node000026"><a xlink:title=" ">
<path fill="none" stroke="#63b8ff" d="M621.42,-159.62C645.16,-159.62 673.71,-159.62 695.4,-159.62"/>
<polygon fill="#63b8ff" stroke="#63b8ff" points="695.15,-163.13 705.15,-159.63 695.15,-156.13 695.15,-163.13"/>
</a>
</g>
</g>
<!-- Node28&#45;&gt;Node3 -->
<g id="edge31_Node000028_Node000003" class="edge">
<title>Node28&#45;&gt;Node3</title>
<g id="a_edge31_Node000028_Node000003"><a xlink:title=" ">
<path fill="none" stroke="#63b8ff" d="M431.91,-321.41C468.12,-328.6 516.03,-338.11 545.92,-344.05"/>
<polygon fill="#63b8ff" stroke="#63b8ff" points="545.2,-347.48 555.69,-345.99 546.57,-340.61 545.2,-347.48"/>
</a>
</g>
</g>
<!-- Node28&#45;&gt;Node7 -->
<g id="edge33_Node000028_Node000007" class="edge">
<title>Node28&#45;&gt;Node7</title>
<g id="a_edge33_Node000028_Node000007"><a xlink:title=" ">
<path fill="none" stroke="#63b8ff" d="M431.88,-310.23C484.84,-309.89 571.11,-312.65 643,-330.62 663.22,-335.68 684.65,-345.18 701.03,-353.41"/>
<polygon fill="#63b8ff" stroke="#63b8ff" points="699.17,-356.39 709.66,-357.88 702.39,-350.17 699.17,-356.39"/>
</a>
</g>
</g>
<!-- Node28&#45;&gt;Node12 -->
<g id="edge34_Node000028_Node000012" class="edge">
<title>Node28&#45;&gt;Node12</title>
<g id="a_edge34_Node000028_Node000012"><a xlink:title=" ">
<path fill="none" stroke="#63b8ff" d="M401.13,-301.54C425.04,-288.83 468.2,-266.91 507,-252.62 516.26,-249.22 526.46,-246.15 536.04,-243.55"/>
<polygon fill="#63b8ff" stroke="#63b8ff" points="536.66,-247 545.45,-241.1 534.9,-240.23 536.66,-247"/>
</a>
</g>
</g>
<!-- Node28&#45;&gt;Node22 -->
<g id="edge32_Node000028_Node000022" class="edge">
<title>Node28&#45;&gt;Node22</title>
<g id="a_edge32_Node000028_Node000022"><a xlink:title=" ">
<path fill="none" stroke="#63b8ff" d="M430.92,-301.53C462.53,-294.92 503.38,-286.38 533.34,-280.12"/>
<polygon fill="#63b8ff" stroke="#63b8ff" points="533.69,-283.63 542.76,-278.15 532.26,-276.77 533.69,-283.63"/>
</a>
</g>
</g>
<!-- Node30&#45;&gt;Node12 -->
<g id="edge38_Node000030_Node000012" class="edge">
<title>Node30&#45;&gt;Node12</title>
<g id="a_edge38_Node000030_Node000012"><a xlink:title=" ">
<path fill="none" stroke="#63b8ff" d="M450.37,-235.27C479.01,-235.12 511.32,-234.95 535.72,-234.83"/>
<polygon fill="#63b8ff" stroke="#63b8ff" points="535.52,-238.33 545.5,-234.77 535.49,-231.33 535.52,-238.33"/>
</a>
</g>
</g>
<!-- Node30&#45;&gt;Node22 -->
<g id="edge37_Node000030_Node000022" class="edge">
<title>Node30&#45;&gt;Node22</title>
<g id="a_edge37_Node000030_Node000022"><a xlink:title=" ">
<path fill="none" stroke="#63b8ff" d="M436.44,-245.75C467.05,-251.51 504.78,-258.6 532.98,-263.91"/>
<polygon fill="#63b8ff" stroke="#63b8ff" points="532.08,-267.3 542.56,-265.71 533.38,-260.42 532.08,-267.3"/>
</a>
</g>
</g>
</g>
</svg>

<g id="navigator" transform="translate(0 0)" fill="#404254">
  <rect fill="#f2f5e9" fill-opacity="0.5" stroke="#606060" stroke-width=".5" x="0" y="0" width="60" height="60"/>
  <use id="zoomplus" xlink:href="#zoomPlus" x="17" y="9" onmousedown="handleZoom(evt,'in')"/>
  <use id="zoomminus" xlink:href="#zoomMin" x="42" y="9" onmousedown="handleZoom(evt,'out')"/>
  <use id="reset" xlink:href="#resetDef" x="30" y="36" onmousedown="handleReset()"/>
   <use id="arrowup" xlink:href="#arrowUp" x="0" y="0" onmousedown="handlePan(0,-1)"/>
  <use id="arrowright" xlink:href="#arrowRight" x="0" y="0" onmousedown="handlePan(1,0)"/>
  <use id="arrowdown" xlink:href="#arrowDown" x="0" y="0" onmousedown="handlePan(0,1)"/>
  <use id="arrowleft" xlink:href="#arrowLeft" x="0" y="0" onmousedown="handlePan(-1,0)"/>
</g>
<svg viewBox="0 0 15 15" width="100%" height="30px" preserveAspectRatio="xMaxYMin meet">
 <g id="arrow_out" transform="scale(0.3 0.3)">
  <a xlink:href="shell_8c_ad1f95120378d24016c08ebb7a0499bf1_cgraph_org.svg" target="_base">
   <rect id="button" ry="5" rx="5" y="6" x="6" height="38" width="38"
        fill="#f2f5e9" fill-opacity="0.5" stroke="#606060" stroke-width="1.0"/>
   <path id="arrow"
     d="M 11.500037,31.436501 C 11.940474,20.09759 22.043105,11.32322 32.158766,21.979434 L 37.068811,17.246167 C 37.068811,17.246167 37.088388,32 37.088388,32 L 22.160133,31.978069 C 22.160133,31.978069 26.997745,27.140456 26.997745,27.140456 C 18.528582,18.264221 13.291696,25.230495 11.500037,31.436501 z"
     style="fill:#404040;"/>
  </a>
 </g>
</svg>

<style type='text/css'>
<![CDATA[
[data-mouse-over-selected='false'] { opacity: 0.7; }
[data-mouse-over-selected='true']  { opacity: 1.0; }
]]>
</style>
<script type="application/ecmascript"><![CDATA[
document.addEventListener('DOMContentLoaded', (event) => {
  highlightEdges();
  highlightAdjacentNodes();
});
]]></script>
</svg>
