<?xml version="1.0" encoding="UTF-8" standalone="no"?>
<!DOCTYPE svg PUBLIC "-//W3C//DTD SVG 1.1//EN"
 "http://www.w3.org/Graphics/SVG/1.1/DTD/svg11.dtd">
<!-- Generated by graphviz version 12.2.1 (20241206.2353)
 -->
<!-- Title: multiboot_tag_framebuffer Pages: 1 -->
<svg width="431pt" height="401pt"
 viewBox="0.00 0.00 431.00 400.75" xmlns="http://www.w3.org/2000/svg" xmlns:xlink="http://www.w3.org/1999/xlink">

<svg id="main" version="1.1" xmlns="http://www.w3.org/2000/svg" xmlns:xlink="http://www.w3.org/1999/xlink" xml:space="preserve">

<style type="text/css"><![CDATA[
.node, .edge {opacity: 0.7;}
.node.selected, .edge.selected {opacity: 1;}
.edge:hover path { stroke: red; }
.edge:hover polygon { stroke: red; fill: red; }
]]></style>
<script type="application/ecmascript" xlink:href="svg.min.js"/>
<svg id="graph" class="graph">
<g id="graph0" class="graph" transform="scale(1 1) rotate(0) translate(4 396.75)">
<title>multiboot_tag_framebuffer</title>
<!-- Node1 -->
<g id="Node000001" class="node">
<title>Node1</title>
<g id="a_Node000001"><a xlink:title=" ">
<polygon fill="#999999" stroke="none" points="423,-167.75 0,-167.75 0,0 423,0 423,-167.75"/>
<text text-anchor="start" x="155.25" y="-154.25" font-family="Helvetica,sans-Serif" font-size="10.00">multiboot_tag_framebuffer</text>
<text text-anchor="start" x="4" y="-139" font-family="Helvetica,sans-Serif" font-size="10.00">+</text>
<text text-anchor="start" x="14" y="-139" font-family="Helvetica,sans-Serif" font-size="10.00">multiboot_uint16_t framebuffer_palette_num_colors</text>
<text text-anchor="start" x="4" y="-123.75" font-family="Helvetica,sans-Serif" font-size="10.00">+</text>
<text text-anchor="start" x="14" y="-123.75" font-family="Helvetica,sans-Serif" font-size="10.00">multiboot_uint8_t framebuffer_red_field_position</text>
<text text-anchor="start" x="4" y="-108.5" font-family="Helvetica,sans-Serif" font-size="10.00">+</text>
<text text-anchor="start" x="14" y="-108.5" font-family="Helvetica,sans-Serif" font-size="10.00">multiboot_uint8_t framebuffer_red_mask_size</text>
<text text-anchor="start" x="4" y="-93.25" font-family="Helvetica,sans-Serif" font-size="10.00">+</text>
<text text-anchor="start" x="14" y="-93.25" font-family="Helvetica,sans-Serif" font-size="10.00">multiboot_uint8_t framebuffer_green_field_position</text>
<text text-anchor="start" x="4" y="-78" font-family="Helvetica,sans-Serif" font-size="10.00">+</text>
<text text-anchor="start" x="14" y="-78" font-family="Helvetica,sans-Serif" font-size="10.00">multiboot_uint8_t framebuffer_green_mask_size</text>
<text text-anchor="start" x="4" y="-62.75" font-family="Helvetica,sans-Serif" font-size="10.00">+</text>
<text text-anchor="start" x="14" y="-62.75" font-family="Helvetica,sans-Serif" font-size="10.00">multiboot_uint8_t framebuffer_blue_field_position</text>
<text text-anchor="start" x="4" y="-47.5" font-family="Helvetica,sans-Serif" font-size="10.00">+</text>
<text text-anchor="start" x="14" y="-47.5" font-family="Helvetica,sans-Serif" font-size="10.00">multiboot_uint8_t framebuffer_blue_mask_size</text>
<text text-anchor="start" x="4" y="-32.25" font-family="Helvetica,sans-Serif" font-size="10.00">+</text>
<text text-anchor="start" x="14" y="-32.25" font-family="Helvetica,sans-Serif" font-size="10.00">union multiboot_tag_framebuffer::@334212261060017321335244067322116064330062054060</text>
<text text-anchor="start" x="14" y="-21" font-family="Helvetica,sans-Serif" font-size="10.00"> @041316301136102336146176247313062052033053041221</text>
<text text-anchor="start" x="210" y="-5.75" font-family="Helvetica,sans-Serif" font-size="10.00"> </text>
<polygon fill="#666666" stroke="#666666" points="0,-150.5 0,-150.5 423,-150.5 423,-150.5 0,-150.5"/>
<polygon fill="#666666" stroke="#666666" points="0,-17.25 0,-17.25 12,-17.25 12,-17.25 0,-17.25"/>
<polygon fill="#666666" stroke="#666666" points="12,-17.25 12,-17.25 423,-17.25 423,-17.25 12,-17.25"/>
<polygon fill="none" stroke="#666666" points="0,0 0,-167.75 423,-167.75 423,0 0,0"/>
</a>
</g>
</g>
<!-- Node2 -->
<g id="Node000002" class="node">
<title>Node2</title>
<g id="a_Node000002"><a xlink:href="structmultiboot__tag__framebuffer__common.html" target="_top" xlink:title=" ">
<polygon fill="white" stroke="none" points="218.5,-392.75 38.5,-392.75 38.5,-221 218.5,-221 218.5,-392.75"/>
<text text-anchor="start" x="50.88" y="-379.25" font-family="Helvetica,sans-Serif" font-size="10.00">multiboot_tag_framebuffer_common</text>
<text text-anchor="start" x="42.5" y="-364" font-family="Helvetica,sans-Serif" font-size="10.00">+</text>
<text text-anchor="start" x="52.5" y="-364" font-family="Helvetica,sans-Serif" font-size="10.00">multiboot_uint32_t type</text>
<text text-anchor="start" x="42.5" y="-348.75" font-family="Helvetica,sans-Serif" font-size="10.00">+</text>
<text text-anchor="start" x="52.5" y="-348.75" font-family="Helvetica,sans-Serif" font-size="10.00">multiboot_uint32_t size</text>
<text text-anchor="start" x="42.5" y="-333.5" font-family="Helvetica,sans-Serif" font-size="10.00">+</text>
<text text-anchor="start" x="52.5" y="-333.5" font-family="Helvetica,sans-Serif" font-size="10.00">multiboot_uint64_t framebuffer_addr</text>
<text text-anchor="start" x="42.5" y="-318.25" font-family="Helvetica,sans-Serif" font-size="10.00">+</text>
<text text-anchor="start" x="52.5" y="-318.25" font-family="Helvetica,sans-Serif" font-size="10.00">multiboot_uint32_t framebuffer_pitch</text>
<text text-anchor="start" x="42.5" y="-303" font-family="Helvetica,sans-Serif" font-size="10.00">+</text>
<text text-anchor="start" x="52.5" y="-303" font-family="Helvetica,sans-Serif" font-size="10.00">multiboot_uint32_t framebuffer_width</text>
<text text-anchor="start" x="42.5" y="-287.75" font-family="Helvetica,sans-Serif" font-size="10.00">+</text>
<text text-anchor="start" x="52.5" y="-287.75" font-family="Helvetica,sans-Serif" font-size="10.00">multiboot_uint32_t framebuffer_height</text>
<text text-anchor="start" x="42.5" y="-272.5" font-family="Helvetica,sans-Serif" font-size="10.00">+</text>
<text text-anchor="start" x="52.5" y="-272.5" font-family="Helvetica,sans-Serif" font-size="10.00">multiboot_uint8_t framebuffer_bpp</text>
<text text-anchor="start" x="42.5" y="-257.25" font-family="Helvetica,sans-Serif" font-size="10.00">+</text>
<text text-anchor="start" x="52.5" y="-257.25" font-family="Helvetica,sans-Serif" font-size="10.00">multiboot_uint8_t framebuffer_type</text>
<text text-anchor="start" x="42.5" y="-242" font-family="Helvetica,sans-Serif" font-size="10.00">+</text>
<text text-anchor="start" x="52.5" y="-242" font-family="Helvetica,sans-Serif" font-size="10.00">multiboot_uint16_t reserved</text>
<text text-anchor="start" x="127" y="-226.75" font-family="Helvetica,sans-Serif" font-size="10.00"> </text>
<polygon fill="#666666" stroke="#666666" points="38.5,-375.5 38.5,-375.5 218.5,-375.5 218.5,-375.5 38.5,-375.5"/>
<polygon fill="#666666" stroke="#666666" points="38.5,-238.25 38.5,-238.25 50.5,-238.25 50.5,-238.25 38.5,-238.25"/>
<polygon fill="#666666" stroke="#666666" points="50.5,-238.25 50.5,-238.25 218.5,-238.25 218.5,-238.25 50.5,-238.25"/>
<polygon fill="none" stroke="#666666" points="38.5,-221 38.5,-392.75 218.5,-392.75 218.5,-221 38.5,-221"/>
</a>
</g>
</g>
<!-- Node2&#45;&gt;Node1 -->
<g id="edge1_Node000001_Node000002" class="edge">
<title>Node2&#45;&gt;Node1</title>
<g id="a_edge1_Node000001_Node000002"><a xlink:title=" ">
<path fill="none" stroke="#63b8ff" d="M160.35,-221.06C165.44,-207.51 170.74,-193.4 175.91,-179.63"/>
<polygon fill="none" stroke="#63b8ff" points="175.88,-179.72 174.25,-172.69 180.1,-168.48 181.73,-175.51 175.88,-179.72"/>
</a>
</g>
<text text-anchor="start" x="175.49" y="-190.5" font-family="Helvetica,sans-Serif" font-size="10.00" fill="grey">+common</text>
</g>
<!-- Node3 -->
<g id="Node000003" class="node">
<title>Node3</title>
<g id="a_Node000003"><a xlink:href="structmultiboot__color.html" target="_top" xlink:title=" ">
<polygon fill="white" stroke="none" points="354.75,-347 236.25,-347 236.25,-266.75 354.75,-266.75 354.75,-347"/>
<text text-anchor="start" x="262.5" y="-333.5" font-family="Helvetica,sans-Serif" font-size="10.00">multiboot_color</text>
<text text-anchor="start" x="240.25" y="-318.25" font-family="Helvetica,sans-Serif" font-size="10.00">+</text>
<text text-anchor="start" x="250.25" y="-318.25" font-family="Helvetica,sans-Serif" font-size="10.00">multiboot_uint8_t red</text>
<text text-anchor="start" x="240.25" y="-303" font-family="Helvetica,sans-Serif" font-size="10.00">+</text>
<text text-anchor="start" x="250.25" y="-303" font-family="Helvetica,sans-Serif" font-size="10.00">multiboot_uint8_t green</text>
<text text-anchor="start" x="240.25" y="-287.75" font-family="Helvetica,sans-Serif" font-size="10.00">+</text>
<text text-anchor="start" x="250.25" y="-287.75" font-family="Helvetica,sans-Serif" font-size="10.00">multiboot_uint8_t blue</text>
<text text-anchor="start" x="294" y="-272.5" font-family="Helvetica,sans-Serif" font-size="10.00"> </text>
<polygon fill="#666666" stroke="#666666" points="236.25,-329.75 236.25,-329.75 354.75,-329.75 354.75,-329.75 236.25,-329.75"/>
<polygon fill="#666666" stroke="#666666" points="236.25,-284 236.25,-284 248.25,-284 248.25,-284 236.25,-284"/>
<polygon fill="#666666" stroke="#666666" points="248.25,-284 248.25,-284 354.75,-284 354.75,-284 248.25,-284"/>
<polygon fill="none" stroke="#666666" points="236.25,-266.75 236.25,-347 354.75,-347 354.75,-266.75 236.25,-266.75"/>
</a>
</g>
</g>
<!-- Node3&#45;&gt;Node1 -->
<g id="edge2_Node000001_Node000003" class="edge">
<title>Node3&#45;&gt;Node1</title>
<g id="a_edge2_Node000001_Node000003"><a xlink:title=" ">
<path fill="none" stroke="#63b8ff" d="M280.68,-266.87C271.45,-242.59 259.15,-210.23 247.48,-179.53"/>
<polygon fill="none" stroke="#63b8ff" points="247.46,-179.48 241.59,-175.29 243.19,-168.26 249.07,-172.45 247.46,-179.48"/>
</a>
</g>
<text text-anchor="start" x="259.02" y="-190.5" font-family="Helvetica,sans-Serif" font-size="10.00" fill="grey">+framebuffer_palette</text>
</g>
</g>
</svg>
</svg>

<style type='text/css'>
<![CDATA[
[data-mouse-over-selected='false'] { opacity: 0.7; }
[data-mouse-over-selected='true']  { opacity: 1.0; }
]]>
</style>
<script type="application/ecmascript"><![CDATA[
document.addEventListener('DOMContentLoaded', (event) => {
  highlightEdges();
  highlightAdjacentNodes();
});
]]></script>
</svg>
