<?xml version="1.0" encoding="UTF-8" standalone="no"?>
<!DOCTYPE svg PUBLIC "-//W3C//DTD SVG 1.1//EN"
 "http://www.w3.org/Graphics/SVG/1.1/DTD/svg11.dtd">
<!-- Generated by graphviz version 12.2.1 (20241206.2353)
 -->
<!-- Title: src/group_29/src/fs/tinyfs.c Pages: 1 -->
<svg width="626pt" height="414pt"
 viewBox="0.00 0.00 626.00 414.00" xmlns="http://www.w3.org/2000/svg" xmlns:xlink="http://www.w3.org/1999/xlink">
<g id="graph0" class="graph" transform="scale(1 1) rotate(0) translate(4 410)">
<title>src/group_29/src/fs/tinyfs.c</title>
<!-- Node1 -->
<g id="Node000001" class="node">
<title>Node1</title>
<g id="a_Node000001"><a xlink:title=" ">
<polygon fill="#999999" stroke="#666666" points="315.88,-406 182.12,-406 182.12,-386.75 315.88,-386.75 315.88,-406"/>
<text text-anchor="middle" x="249" y="-392.5" font-family="Helvetica,sans-Serif" font-size="10.00">src/group_29/src/fs/tinyfs.c</text>
</a>
</g>
</g>
<!-- Node2 -->
<g id="Node000002" class="node">
<title>Node2</title>
<g id="a_Node000002"><a xlink:href="tinyfs_8h.html" target="_top" xlink:title=" ">
<polygon fill="white" stroke="#666666" points="275,-350.75 223,-350.75 223,-331.5 275,-331.5 275,-350.75"/>
<text text-anchor="middle" x="249" y="-337.25" font-family="Helvetica,sans-Serif" font-size="10.00">./tinyfs.h</text>
</a>
</g>
</g>
<!-- Node1&#45;&gt;Node2 -->
<g id="edge1_Node000001_Node000002" class="edge">
<title>Node1&#45;&gt;Node2</title>
<g id="a_edge1_Node000001_Node000002"><a xlink:title=" ">
<path fill="none" stroke="#63b8ff" d="M249,-386.58C249,-380.07 249,-370.92 249,-362.62"/>
<polygon fill="#63b8ff" stroke="#63b8ff" points="252.5,-362.62 249,-352.62 245.5,-362.62 252.5,-362.62"/>
</a>
</g>
</g>
<!-- Node3 -->
<g id="Node000003" class="node">
<title>Node3</title>
<g id="a_Node000003"><a xlink:href="stdbool_8h.html" target="_top" xlink:title=" ">
<polygon fill="white" stroke="#666666" points="230.88,-185 109.12,-185 109.12,-165.75 230.88,-165.75 230.88,-185"/>
<text text-anchor="middle" x="170" y="-171.5" font-family="Helvetica,sans-Serif" font-size="10.00">../../include/libc/stdbool.h</text>
</a>
</g>
</g>
<!-- Node2&#45;&gt;Node3 -->
<g id="edge2_Node000002_Node000003" class="edge">
<title>Node2&#45;&gt;Node3</title>
<g id="a_edge2_Node000002_Node000003"><a xlink:title=" ">
<path fill="none" stroke="#63b8ff" d="M244.75,-331.32C232.38,-305.67 196.14,-230.55 179.08,-195.19"/>
<polygon fill="#63b8ff" stroke="#63b8ff" points="182.42,-194.07 174.93,-186.59 176.12,-197.11 182.42,-194.07"/>
</a>
</g>
</g>
<!-- Node4 -->
<g id="Node000004" class="node">
<title>Node4</title>
<g id="a_Node000004"><a xlink:href="stdint_8h.html" target="_top" xlink:title=" ">
<polygon fill="white" stroke="#666666" points="201.12,-19.25 86.88,-19.25 86.88,0 201.12,0 201.12,-19.25"/>
<text text-anchor="middle" x="144" y="-5.75" font-family="Helvetica,sans-Serif" font-size="10.00">../../include/libc/stdint.h</text>
</a>
</g>
</g>
<!-- Node2&#45;&gt;Node4 -->
<g id="edge3_Node000002_Node000004" class="edge">
<title>Node2&#45;&gt;Node4</title>
<g id="a_edge3_Node000002_Node000004"><a xlink:title=" ">
<path fill="none" stroke="#63b8ff" d="M222.82,-340.43C158.89,-339.66 0,-328.06 0,-231.62 0,-231.62 0,-231.62 0,-119.12 0,-68.44 57.6,-38.47 99.94,-23.28"/>
<polygon fill="#63b8ff" stroke="#63b8ff" points="100.83,-26.68 109.17,-20.14 98.57,-20.05 100.83,-26.68"/>
</a>
</g>
</g>
<!-- Node5 -->
<g id="Node000005" class="node">
<title>Node5</title>
<g id="a_Node000005"><a xlink:href="ata_8h.html" target="_top" xlink:title=" ">
<polygon fill="white" stroke="#666666" points="130.75,-240.25 65.25,-240.25 65.25,-221 130.75,-221 130.75,-240.25"/>
<text text-anchor="middle" x="98" y="-226.75" font-family="Helvetica,sans-Serif" font-size="10.00">../disk/ata.h</text>
</a>
</g>
</g>
<!-- Node2&#45;&gt;Node5 -->
<g id="edge4_Node000002_Node000005" class="edge">
<title>Node2&#45;&gt;Node5</title>
<g id="a_edge4_Node000002_Node000005"><a xlink:title=" ">
<path fill="none" stroke="#63b8ff" d="M231.3,-331.09C215.31,-322.65 191.38,-309.3 172,-295.5 151.39,-280.83 129.69,-261.59 115.16,-248.07"/>
<polygon fill="#63b8ff" stroke="#63b8ff" points="117.89,-245.84 108.22,-241.52 113.09,-250.93 117.89,-245.84"/>
</a>
</g>
</g>
<!-- Node7 -->
<g id="Node000007" class="node">
<title>Node7</title>
<g id="a_Node000007"><a xlink:href="heap_8h.html" target="_top" xlink:title=" ">
<polygon fill="white" stroke="#666666" points="463.75,-240.25 374.25,-240.25 374.25,-221 463.75,-221 463.75,-240.25"/>
<text text-anchor="middle" x="419" y="-226.75" font-family="Helvetica,sans-Serif" font-size="10.00">../memory/heap.h</text>
</a>
</g>
</g>
<!-- Node2&#45;&gt;Node7 -->
<g id="edge9_Node000002_Node000007" class="edge">
<title>Node2&#45;&gt;Node7</title>
<g id="a_edge9_Node000002_Node000007"><a xlink:title=" ">
<path fill="none" stroke="#63b8ff" d="M263.2,-331.06C292.4,-312.43 359.43,-269.65 395.31,-246.75"/>
<polygon fill="#63b8ff" stroke="#63b8ff" points="397.14,-249.73 403.68,-241.4 393.37,-243.83 397.14,-249.73"/>
</a>
</g>
</g>
<!-- Node9 -->
<g id="Node000009" class="node">
<title>Node9</title>
<g id="a_Node000009"><a xlink:href="printing_8h.html" target="_top" xlink:title=" ">
<polygon fill="white" stroke="#666666" points="345.5,-185 248.5,-185 248.5,-165.75 345.5,-165.75 345.5,-185"/>
<text text-anchor="middle" x="297" y="-171.5" font-family="Helvetica,sans-Serif" font-size="10.00">../printing/printing.h</text>
</a>
</g>
</g>
<!-- Node2&#45;&gt;Node9 -->
<g id="edge21_Node000002_Node000009" class="edge">
<title>Node2&#45;&gt;Node9</title>
<g id="a_edge21_Node000002_Node000009"><a xlink:title=" ">
<path fill="none" stroke="#63b8ff" d="M251.58,-331.32C259.04,-305.89 280.74,-231.85 291.21,-196.12"/>
<polygon fill="#63b8ff" stroke="#63b8ff" points="294.53,-197.26 293.98,-186.67 287.81,-195.29 294.53,-197.26"/>
</a>
</g>
</g>
<!-- Node12 -->
<g id="Node000012" class="node">
<title>Node12</title>
<g id="a_Node000012"><a xlink:href="src_2string_2string_8h.html" target="_top" xlink:title=" ">
<polygon fill="white" stroke="#666666" points="499,-295.5 417,-295.5 417,-276.25 499,-276.25 499,-295.5"/>
<text text-anchor="middle" x="458" y="-282" font-family="Helvetica,sans-Serif" font-size="10.00">../string/string.h</text>
</a>
</g>
</g>
<!-- Node2&#45;&gt;Node12 -->
<g id="edge22_Node000002_Node000012" class="edge">
<title>Node2&#45;&gt;Node12</title>
<g id="a_edge22_Node000002_Node000012"><a xlink:title=" ">
<path fill="none" stroke="#63b8ff" d="M275.47,-333.38C309.58,-324.69 369.46,-309.43 411.3,-298.77"/>
<polygon fill="#63b8ff" stroke="#63b8ff" points="412.03,-302.2 420.85,-296.34 410.3,-295.42 412.03,-302.2"/>
</a>
</g>
</g>
<!-- Node5&#45;&gt;Node3 -->
<g id="edge5_Node000005_Node000003" class="edge">
<title>Node5&#45;&gt;Node3</title>
<g id="a_edge5_Node000005_Node000003"><a xlink:title=" ">
<path fill="none" stroke="#63b8ff" d="M110.21,-220.59C120.83,-212.74 136.44,-201.2 149.04,-191.87"/>
<polygon fill="#63b8ff" stroke="#63b8ff" points="150.79,-194.94 156.75,-186.17 146.63,-189.31 150.79,-194.94"/>
</a>
</g>
</g>
<!-- Node5&#45;&gt;Node4 -->
<g id="edge6_Node000005_Node000004" class="edge">
<title>Node5&#45;&gt;Node4</title>
<g id="a_edge6_Node000005_Node000004"><a xlink:title=" ">
<path fill="none" stroke="#63b8ff" d="M91.47,-220.55C72.83,-193.4 22.79,-111.25 57,-55.25 65.92,-40.66 81.29,-30.64 96.66,-23.85"/>
<polygon fill="#63b8ff" stroke="#63b8ff" points="97.81,-27.16 105.81,-20.22 95.22,-20.66 97.81,-27.16"/>
</a>
</g>
</g>
<!-- Node6 -->
<g id="Node000006" class="node">
<title>Node6</title>
<g id="a_Node000006"><a xlink:href="io_8h.html" target="_top" xlink:title=" ">
<polygon fill="white" stroke="#666666" points="115.5,-74.5 66.5,-74.5 66.5,-55.25 115.5,-55.25 115.5,-74.5"/>
<text text-anchor="middle" x="91" y="-61" font-family="Helvetica,sans-Serif" font-size="10.00">../io/io.h</text>
</a>
</g>
</g>
<!-- Node5&#45;&gt;Node6 -->
<g id="edge7_Node000005_Node000006" class="edge">
<title>Node5&#45;&gt;Node6</title>
<g id="a_edge7_Node000005_Node000006"><a xlink:title=" ">
<path fill="none" stroke="#63b8ff" d="M97.62,-220.82C96.54,-195.5 93.4,-122 91.86,-86.09"/>
<polygon fill="#63b8ff" stroke="#63b8ff" points="95.37,-86.08 91.44,-76.23 88.37,-86.37 95.37,-86.08"/>
</a>
</g>
</g>
<!-- Node6&#45;&gt;Node4 -->
<g id="edge8_Node000006_Node000004" class="edge">
<title>Node6&#45;&gt;Node4</title>
<g id="a_edge8_Node000006_Node000004"><a xlink:title=" ">
<path fill="none" stroke="#63b8ff" d="M99.75,-55.08C107.15,-47.65 117.96,-36.79 127.05,-27.66"/>
<polygon fill="#63b8ff" stroke="#63b8ff" points="129.42,-30.24 133.99,-20.68 124.46,-25.3 129.42,-30.24"/>
</a>
</g>
</g>
<!-- Node7&#45;&gt;Node3 -->
<g id="edge12_Node000007_Node000003" class="edge">
<title>Node7&#45;&gt;Node3</title>
<g id="a_edge12_Node000007_Node000003"><a xlink:title=" ">
<path fill="none" stroke="#63b8ff" d="M376.48,-220.53C334.22,-211.49 269.28,-197.61 223.54,-187.82"/>
<polygon fill="#63b8ff" stroke="#63b8ff" points="224.34,-184.42 213.83,-185.75 222.87,-191.26 224.34,-184.42"/>
</a>
</g>
</g>
<!-- Node7&#45;&gt;Node4 -->
<g id="edge10_Node000007_Node000004" class="edge">
<title>Node7&#45;&gt;Node4</title>
<g id="a_edge10_Node000007_Node000004"><a xlink:title=" ">
<path fill="none" stroke="#63b8ff" d="M432.17,-220.6C467.03,-196.68 559.2,-133.22 561,-129.75 564.94,-122.16 566.3,-117.22 561,-110.5 518.35,-56.43 319.56,-28.35 212.58,-16.93"/>
<polygon fill="#63b8ff" stroke="#63b8ff" points="213.08,-13.47 202.77,-15.91 212.35,-20.43 213.08,-13.47"/>
</a>
</g>
</g>
<!-- Node8 -->
<g id="Node000008" class="node">
<title>Node8</title>
<g id="a_Node000008"><a xlink:href="stddef_8h.html" target="_top" xlink:title=" ">
<polygon fill="white" stroke="#666666" points="590.25,-185 521.75,-185 521.75,-165.75 590.25,-165.75 590.25,-185"/>
<text text-anchor="middle" x="556" y="-171.5" font-family="Helvetica,sans-Serif" font-size="10.00">libc/stddef.h</text>
</a>
</g>
</g>
<!-- Node7&#45;&gt;Node8 -->
<g id="edge11_Node000007_Node000008" class="edge">
<title>Node7&#45;&gt;Node8</title>
<g id="a_edge11_Node000007_Node000008"><a xlink:title=" ">
<path fill="none" stroke="#63b8ff" d="M442.24,-220.59C464.19,-212.06 497.35,-199.17 522.21,-189.51"/>
<polygon fill="#63b8ff" stroke="#63b8ff" points="523.18,-192.89 531.24,-186 520.65,-186.36 523.18,-192.89"/>
</a>
</g>
</g>
<!-- Node7&#45;&gt;Node9 -->
<g id="edge13_Node000007_Node000009" class="edge">
<title>Node7&#45;&gt;Node9</title>
<g id="a_edge13_Node000007_Node000009"><a xlink:title=" ">
<path fill="none" stroke="#63b8ff" d="M398.3,-220.59C379.11,-212.22 350.29,-199.63 328.28,-190.03"/>
<polygon fill="#63b8ff" stroke="#63b8ff" points="329.75,-186.85 319.18,-186.06 326.95,-193.27 329.75,-186.85"/>
</a>
</g>
</g>
<!-- Node10 -->
<g id="Node000010" class="node">
<title>Node10</title>
<g id="a_Node000010"><a xlink:href="vga__text__mode__interface_8h.html" target="_top" xlink:title=" ">
<polygon fill="white" stroke="#666666" points="393.75,-129.75 142.25,-129.75 142.25,-110.5 393.75,-110.5 393.75,-129.75"/>
<text text-anchor="middle" x="268" y="-116.25" font-family="Helvetica,sans-Serif" font-size="10.00">../vga_text_mode_interface/vga_text_mode_interface.h</text>
</a>
</g>
</g>
<!-- Node7&#45;&gt;Node10 -->
<g id="edge19_Node000007_Node000010" class="edge">
<title>Node7&#45;&gt;Node10</title>
<g id="a_edge19_Node000007_Node000010"><a xlink:title=" ">
<path fill="none" stroke="#63b8ff" d="M411.84,-220.91C400.7,-207.75 378.1,-182.56 355,-165.75 338.07,-153.42 317.24,-142.61 300.22,-134.72"/>
<polygon fill="#63b8ff" stroke="#63b8ff" points="302.11,-131.73 291.55,-130.82 299.23,-138.12 302.11,-131.73"/>
</a>
</g>
</g>
<!-- Node11 -->
<g id="Node000011" class="node">
<title>Node11</title>
<g id="a_Node000011"><a xlink:href="memory__macros_8h.html" target="_top" xlink:title=" ">
<polygon fill="white" stroke="#666666" points="552.25,-129.75 411.75,-129.75 411.75,-110.5 552.25,-110.5 552.25,-129.75"/>
<text text-anchor="middle" x="482" y="-116.25" font-family="Helvetica,sans-Serif" font-size="10.00">../memory/memory_macros.h</text>
</a>
</g>
</g>
<!-- Node7&#45;&gt;Node11 -->
<g id="edge20_Node000007_Node000011" class="edge">
<title>Node7&#45;&gt;Node11</title>
<g id="a_edge20_Node000007_Node000011"><a xlink:title=" ">
<path fill="none" stroke="#63b8ff" d="M424.16,-220.75C434.35,-203.18 457.3,-163.66 471.03,-140.02"/>
<polygon fill="#63b8ff" stroke="#63b8ff" points="474.02,-141.84 476.01,-131.44 467.97,-138.33 474.02,-141.84"/>
</a>
</g>
</g>
<!-- Node9&#45;&gt;Node4 -->
<g id="edge18_Node000009_Node000004" class="edge">
<title>Node9&#45;&gt;Node4</title>
<g id="a_edge18_Node000009_Node000004"><a xlink:title=" ">
<path fill="none" stroke="#63b8ff" d="M253.2,-165.31C207.19,-155.35 140.44,-139.48 133,-129.75 121.47,-114.66 132.03,-60.34 139,-30.54"/>
<polygon fill="#63b8ff" stroke="#63b8ff" points="142.37,-31.47 141.33,-20.92 135.57,-29.81 142.37,-31.47"/>
</a>
</g>
</g>
<!-- Node9&#45;&gt;Node10 -->
<g id="edge14_Node000009_Node000010" class="edge">
<title>Node9&#45;&gt;Node10</title>
<g id="a_edge14_Node000009_Node000010"><a xlink:title=" ">
<path fill="none" stroke="#63b8ff" d="M292.21,-165.58C288.46,-158.69 283.09,-148.84 278.37,-140.16"/>
<polygon fill="#63b8ff" stroke="#63b8ff" points="281.47,-138.55 273.62,-131.44 275.33,-141.89 281.47,-138.55"/>
</a>
</g>
</g>
<!-- Node9&#45;&gt;Node11 -->
<g id="edge17_Node000009_Node000011" class="edge">
<title>Node9&#45;&gt;Node11</title>
<g id="a_edge17_Node000009_Node000011"><a xlink:title=" ">
<path fill="none" stroke="#63b8ff" d="M328.38,-165.34C358.95,-156.54 405.62,-143.11 439.51,-133.36"/>
<polygon fill="#63b8ff" stroke="#63b8ff" points="440.37,-136.75 449.01,-130.62 438.43,-130.02 440.37,-136.75"/>
</a>
</g>
</g>
<!-- Node10&#45;&gt;Node4 -->
<g id="edge15_Node000010_Node000004" class="edge">
<title>Node10&#45;&gt;Node4</title>
<g id="a_edge15_Node000010_Node000004"><a xlink:title=" ">
<path fill="none" stroke="#63b8ff" d="M257.85,-110.25C237.05,-92.05 189.31,-50.27 162.73,-27.01"/>
<polygon fill="#63b8ff" stroke="#63b8ff" points="165.26,-24.57 155.43,-20.62 160.65,-29.84 165.26,-24.57"/>
</a>
</g>
</g>
<!-- Node10&#45;&gt;Node6 -->
<g id="edge16_Node000010_Node000006" class="edge">
<title>Node10&#45;&gt;Node6</title>
<g id="a_edge16_Node000010_Node000006"><a xlink:title=" ">
<path fill="none" stroke="#63b8ff" d="M237.97,-110.09C207.18,-100.83 159.3,-86.42 126.61,-76.59"/>
<polygon fill="#63b8ff" stroke="#63b8ff" points="127.77,-73.28 117.19,-73.75 125.75,-79.99 127.77,-73.28"/>
</a>
</g>
</g>
<!-- Node12&#45;&gt;Node4 -->
<g id="edge23_Node000012_Node000004" class="edge">
<title>Node12&#45;&gt;Node4</title>
<g id="a_edge23_Node000012_Node000004"><a xlink:title=" ">
<path fill="none" stroke="#63b8ff" d="M499.2,-275.91C546.61,-262.9 618,-233.77 618,-176.38 618,-176.38 618,-176.38 618,-119.12 618,-36.97 344.03,-17.02 212.67,-12.18"/>
<polygon fill="#63b8ff" stroke="#63b8ff" points="212.8,-8.68 202.69,-11.83 212.56,-15.68 212.8,-8.68"/>
</a>
</g>
</g>
<!-- Node12&#45;&gt;Node7 -->
<g id="edge25_Node000012_Node000007" class="edge">
<title>Node12&#45;&gt;Node7</title>
<g id="a_edge25_Node000012_Node000007"><a xlink:title=" ">
<path fill="none" stroke="#63b8ff" d="M451.56,-276.08C446.34,-268.96 438.81,-258.68 432.31,-249.8"/>
<polygon fill="#63b8ff" stroke="#63b8ff" points="435.21,-247.83 426.47,-241.83 429.56,-251.97 435.21,-247.83"/>
</a>
</g>
</g>
<!-- Node12&#45;&gt;Node8 -->
<g id="edge24_Node000012_Node000008" class="edge">
<title>Node12&#45;&gt;Node8</title>
<g id="a_edge24_Node000012_Node000008"><a xlink:title=" ">
<path fill="none" stroke="#63b8ff" d="M466.02,-276C482.24,-258.03 519.21,-217.11 540.36,-193.69"/>
<polygon fill="#63b8ff" stroke="#63b8ff" points="542.75,-196.27 546.85,-186.5 537.55,-191.57 542.75,-196.27"/>
</a>
</g>
</g>
</g>
</svg>
