<?xml version="1.0" encoding="UTF-8" standalone="no"?>
<!DOCTYPE svg PUBLIC "-//W3C//DTD SVG 1.1//EN"
 "http://www.w3.org/Graphics/SVG/1.1/DTD/svg11.dtd">
<!-- Generated by graphviz version 12.2.0 (20241103.1931)
 -->
<!-- Title: UnityAssertEqualIntArray Pages: 1 -->
<!--zoomable 252 -->

<svg id="main" version="1.1" xmlns="http://www.w3.org/2000/svg" xmlns:xlink="http://www.w3.org/1999/xlink" xml:space="preserve" onload="init(evt)">

<style type="text/css"><![CDATA[
.node, .edge {opacity: 0.7;}
.node.selected, .edge.selected {opacity: 1;}
.edge:hover path { stroke: red; }
.edge:hover polygon { stroke: red; fill: red; }
]]></style>

<defs>
  <circle id="rim" cx="0" cy="0" r="7"/>
  <circle id="rim2" cx="0" cy="0" r="3.5"/>
  <g id="zoomPlus">
    <use xlink:href="#rim" fill="#404040"><set attributeName="fill" to="#808080" begin="zoomplus.mouseover" end="zoomplus.mouseout"/></use>
    <path d="M-4,0h8M0,-4v8" fill="none" stroke="white" stroke-width="1.5" pointer-events="none"/>
  </g>
  <g id="zoomMin">
    <use xlink:href="#rim" fill="#404040"><set attributeName="fill" to="#808080" begin="zoomminus.mouseover" end="zoomminus.mouseout"/></use>
    <path d="M-4,0h8" fill="none" stroke="white" stroke-width="1.5" pointer-events="none"/>
  </g>
  <g id="arrowUp" transform="translate(30 24)">
    <use xlink:href="#rim"/>
    <path pointer-events="none" fill="none" stroke="white" stroke-width="1.5" d="M0,-3.0v7 M-2.5,-0.5L0,-3.0L2.5,-0.5"/>
  </g>
  <g id="arrowRight" transform="rotate(90) translate(36 -43)">
    <use xlink:href="#rim"/>
    <path pointer-events="none" fill="none" stroke="white" stroke-width="1.5" d="M0,-3.0v7 M-2.5,-0.5L0,-3.0L2.5,-0.5"/>
  </g>
  <g id="arrowDown" transform="rotate(180) translate(-30 -48)">
    <use xlink:href="#rim"/>
    <path pointer-events="none" fill="none" stroke="white" stroke-width="1.5" d="M0,-3.0v7 M-2.5,-0.5L0,-3.0L2.5,-0.5"/>
  </g>
  <g id="arrowLeft" transform="rotate(270) translate(-36 17)">
    <use xlink:href="#rim"/>
    <path pointer-events="none" fill="none" stroke="white" stroke-width="1.5" d="M0,-3.0v7 M-2.5,-0.5L0,-3.0L2.5,-0.5"/>
  </g>
  <g id="resetDef">
    <use xlink:href="#rim2" fill="#404040"><set attributeName="fill" to="#808080" begin="reset.mouseover" end="reset.mouseout"/></use>
  </g>
</defs>
<script type="application/ecmascript">
var viewWidth = 1049;
var viewHeight = 252;
var sectionId = 'dynsection-3';
</script>
<script type="application/ecmascript" xlink:href="../../svg.min.js"/>
<svg id="graph" class="graph">
<g id="viewport">
<title>UnityAssertEqualIntArray</title>
<!-- Node1 -->
<g id="Node000001" class="node">
<title>Node1</title>
<g id="a_Node000001"><a xlink:title=" ">
<polygon fill="#999999" stroke="#666666" points="124.75,-169.62 0,-169.62 0,-150.38 124.75,-150.38 124.75,-169.62"/>
<text text-anchor="middle" x="62.38" y="-156.12" font-family="Helvetica,sans-Serif" font-size="10.00">UnityAssertEqualIntArray</text>
</a>
</g>
</g>
<!-- Node2 -->
<g id="Node000002" class="node">
<title>Node2</title>
<g id="a_Node000002"><a xlink:href="../../d5/ddd/unity_8c.html#af0db89aa4947c98a55a44bae2a7035d7" target="_top" xlink:title=" ">
<polygon fill="white" stroke="#666666" points="427.12,-226.62 306.88,-226.62 306.88,-207.38 427.12,-207.38 427.12,-226.62"/>
<text text-anchor="middle" x="367" y="-213.12" font-family="Helvetica,sans-Serif" font-size="10.00">UnityAddMsgIfSpecified</text>
</a>
</g>
</g>
<!-- Node1&#45;&gt;Node2 -->
<g id="edge1_Node000001_Node000002" class="edge">
<title>Node1&#45;&gt;Node2</title>
<g id="a_edge1_Node000001_Node000002"><a xlink:title=" ">
<path fill="none" stroke="#63b8ff" d="M84.1,-170.06C103.45,-178.96 133.38,-191.53 160.75,-198 204.65,-208.38 255.08,-213.14 294.97,-215.31"/>
<polygon fill="#63b8ff" stroke="#63b8ff" points="294.79,-218.8 304.95,-215.8 295.13,-211.81 294.79,-218.8"/>
</a>
</g>
</g>
<!-- Node3 -->
<g id="Node000003" class="node">
<title>Node3</title>
<g id="a_Node000003"><a xlink:href="../../d5/ddd/unity_8c.html#accff2eb4cfd0273e8ad62c37639d3e3c" target="_top" xlink:title=" ">
<polygon fill="white" stroke="#666666" points="707,-179.62 648.25,-179.62 648.25,-160.38 707,-160.38 707,-179.62"/>
<text text-anchor="middle" x="677.62" y="-166.12" font-family="Helvetica,sans-Serif" font-size="10.00">UnityPrint</text>
</a>
</g>
</g>
<!-- Node1&#45;&gt;Node3 -->
<g id="edge14_Node000001_Node000003" class="edge">
<title>Node1&#45;&gt;Node3</title>
<g id="a_edge14_Node000001_Node000003"><a xlink:title=" ">
<path fill="none" stroke="#63b8ff" d="M76.02,-170.12C93.79,-183.75 127.68,-207.58 160.75,-219 220.2,-239.54 238.46,-232.22 301.25,-236 431.9,-243.88 470.6,-255.71 595,-215 615.69,-208.23 637.18,-196.15 652.91,-186.21"/>
<polygon fill="#63b8ff" stroke="#63b8ff" points="654.61,-189.27 661.08,-180.89 650.79,-183.41 654.61,-189.27"/>
</a>
</g>
</g>
<!-- Node6 -->
<g id="Node000006" class="node">
<title>Node6</title>
<g id="a_Node000006"><a xlink:href="../../d5/ddd/unity_8c.html#a1d072b377a166a6e96b590827e68d44f" target="_top" xlink:title=" ">
<polygon fill="white" stroke="#666666" points="265.25,-188.62 160.75,-188.62 160.75,-169.38 265.25,-169.38 265.25,-188.62"/>
<text text-anchor="middle" x="213" y="-175.12" font-family="Helvetica,sans-Serif" font-size="10.00">UnityIsOneArrayNull</text>
</a>
</g>
</g>
<!-- Node1&#45;&gt;Node6 -->
<g id="edge5_Node000001_Node000006" class="edge">
<title>Node1&#45;&gt;Node6</title>
<g id="a_edge5_Node000001_Node000006"><a xlink:title=" ">
<path fill="none" stroke="#63b8ff" d="M125.11,-167.89C133.14,-168.92 141.36,-169.97 149.4,-171"/>
<polygon fill="#63b8ff" stroke="#63b8ff" points="148.73,-174.44 159.09,-172.24 149.62,-167.5 148.73,-174.44"/>
</a>
</g>
</g>
<!-- Node7 -->
<g id="Node000007" class="node">
<title>Node7</title>
<g id="a_Node000007"><a xlink:href="../../d5/ddd/unity_8c.html#a2961260574158cc9df09ded14bbc2085" target="_top" xlink:title=" ">
<polygon fill="white" stroke="#666666" points="432.75,-150.62 301.25,-150.62 301.25,-131.38 432.75,-131.38 432.75,-150.62"/>
<text text-anchor="middle" x="367" y="-137.12" font-family="Helvetica,sans-Serif" font-size="10.00">UnityTestResultsFailBegin</text>
</a>
</g>
</g>
<!-- Node1&#45;&gt;Node7 -->
<g id="edge20_Node000001_Node000007" class="edge">
<title>Node1&#45;&gt;Node7</title>
<g id="a_edge20_Node000001_Node000007"><a xlink:title=" ">
<path fill="none" stroke="#63b8ff" d="M124.98,-156.13C172.54,-153.15 238.6,-149 289.54,-145.8"/>
<polygon fill="#63b8ff" stroke="#63b8ff" points="289.55,-149.31 299.31,-145.19 289.11,-142.32 289.55,-149.31"/>
</a>
</g>
</g>
<!-- Node10 -->
<g id="Node000010" class="node">
<title>Node10</title>
<g id="a_Node000010"><a xlink:href="../../d5/ddd/unity_8c.html#a3ef388786e9a8e769d13af2601b592dc" target="_top" xlink:title=" ">
<polygon fill="white" stroke="#666666" points="894.75,-85.62 760.25,-85.62 760.25,-66.38 894.75,-66.38 894.75,-85.62"/>
<text text-anchor="middle" x="827.5" y="-72.12" font-family="Helvetica,sans-Serif" font-size="10.00">UnityPrintNumberUnsigned</text>
</a>
</g>
</g>
<!-- Node1&#45;&gt;Node10 -->
<g id="edge19_Node000001_Node000010" class="edge">
<title>Node1&#45;&gt;Node10</title>
<g id="a_edge19_Node000001_Node000010"><a xlink:title=" ">
<path fill="none" stroke="#63b8ff" d="M73.33,-149.99C109.26,-114.96 237.04,0 366,0 366,0 366,0 532.88,0 629.97,0 739.52,-39.43 793.21,-61.48"/>
<polygon fill="#63b8ff" stroke="#63b8ff" points="791.83,-64.7 802.4,-65.32 794.53,-58.24 791.83,-64.7"/>
</a>
</g>
</g>
<!-- Node11 -->
<g id="Node000011" class="node">
<title>Node11</title>
<g id="a_Node000011"><a xlink:href="../../d5/ddd/unity_8c.html#a83c7c7072b2f0e3cce93e56960da46e7" target="_top" xlink:title=" ">
<polygon fill="white" stroke="#666666" points="595,-75.62 468.75,-75.62 468.75,-56.38 595,-56.38 595,-75.62"/>
<text text-anchor="middle" x="531.88" y="-62.12" font-family="Helvetica,sans-Serif" font-size="10.00">UnityPrintNumberByStyle</text>
</a>
</g>
</g>
<!-- Node1&#45;&gt;Node11 -->
<g id="edge15_Node000001_Node000011" class="edge">
<title>Node1&#45;&gt;Node11</title>
<g id="a_edge15_Node000001_Node000011"><a xlink:title=" ">
<path fill="none" stroke="#63b8ff" d="M113.41,-149.94C199.67,-132.6 376.12,-97.12 469.6,-78.32"/>
<polygon fill="#63b8ff" stroke="#63b8ff" points="470.25,-81.76 479.37,-76.36 468.87,-74.9 470.25,-81.76"/>
</a>
</g>
</g>
<!-- Node2&#45;&gt;Node3 -->
<g id="edge2_Node000002_Node000003" class="edge">
<title>Node2&#45;&gt;Node3</title>
<g id="a_edge2_Node000002_Node000003"><a xlink:title=" ">
<path fill="none" stroke="#63b8ff" d="M427.2,-213.5C473.24,-210.11 538.57,-203.85 595,-193 608.89,-190.33 623.86,-186.42 637.13,-182.58"/>
<polygon fill="#63b8ff" stroke="#63b8ff" points="637.78,-186.04 646.37,-179.84 635.79,-179.33 637.78,-186.04"/>
</a>
</g>
</g>
<!-- Node4 -->
<g id="Node000004" class="node">
<title>Node4</title>
<g id="a_Node000004"><a xlink:href="../../d5/ddd/unity_8c.html#aa3373f770c748cc1600d55cd8c7839c3" target="_top" xlink:title=" ">
<polygon fill="white" stroke="#666666" points="867,-150.62 788,-150.62 788,-131.38 867,-131.38 867,-150.62"/>
<text text-anchor="middle" x="827.5" y="-137.12" font-family="Helvetica,sans-Serif" font-size="10.00">UnityPrintChar</text>
</a>
</g>
</g>
<!-- Node3&#45;&gt;Node4 -->
<g id="edge3_Node000003_Node000004" class="edge">
<title>Node3&#45;&gt;Node4</title>
<g id="a_edge3_Node000003_Node000004"><a xlink:title=" ">
<path fill="none" stroke="#63b8ff" d="M707.49,-164.34C727.05,-160.5 753.41,-155.33 776.35,-150.84"/>
<polygon fill="#63b8ff" stroke="#63b8ff" points="777.01,-154.27 786.15,-148.91 775.66,-147.4 777.01,-154.27"/>
</a>
</g>
</g>
<!-- Node5 -->
<g id="Node000005" class="node">
<title>Node5</title>
<g id="a_Node000005"><a xlink:href="../../d5/ddd/unity_8c.html#ab5636c2c3e2d5ff0d89461e2323aa469" target="_top" xlink:title=" ">
<polygon fill="white" stroke="#666666" points="1041.25,-84.62 930.75,-84.62 930.75,-65.38 1041.25,-65.38 1041.25,-84.62"/>
<text text-anchor="middle" x="986" y="-71.12" font-family="Helvetica,sans-Serif" font-size="10.00">UnityPrintNumberHex</text>
</a>
</g>
</g>
<!-- Node4&#45;&gt;Node5 -->
<g id="edge4_Node000004_Node000005" class="edge">
<title>Node4&#45;&gt;Node5</title>
<g id="a_edge4_Node000004_Node000005"><a xlink:title=" ">
<path fill="none" stroke="#63b8ff" d="M852.27,-130.98C878.47,-119.93 920.84,-102.06 950.65,-89.49"/>
<polygon fill="#63b8ff" stroke="#63b8ff" points="951.76,-92.82 959.61,-85.71 949.04,-86.37 951.76,-92.82"/>
</a>
</g>
</g>
<!-- Node6&#45;&gt;Node2 -->
<g id="edge6_Node000006_Node000002" class="edge">
<title>Node6&#45;&gt;Node2</title>
<g id="a_edge6_Node000006_Node000002"><a xlink:title=" ">
<path fill="none" stroke="#63b8ff" d="M254.33,-189.08C272.87,-193.72 295.08,-199.27 314.78,-204.2"/>
<polygon fill="#63b8ff" stroke="#63b8ff" points="313.72,-207.54 324.27,-206.57 315.42,-200.75 313.72,-207.54"/>
</a>
</g>
</g>
<!-- Node6&#45;&gt;Node3 -->
<g id="edge7_Node000006_Node000003" class="edge">
<title>Node6&#45;&gt;Node3</title>
<g id="a_edge7_Node000006_Node000003"><a xlink:title=" ">
<path fill="none" stroke="#63b8ff" d="M265.72,-177.99C358.86,-176.18 552.85,-172.41 636.65,-170.78"/>
<polygon fill="#63b8ff" stroke="#63b8ff" points="636.51,-174.28 646.44,-170.59 636.38,-167.28 636.51,-174.28"/>
</a>
</g>
</g>
<!-- Node6&#45;&gt;Node7 -->
<g id="edge8_Node000006_Node000007" class="edge">
<title>Node6&#45;&gt;Node7</title>
<g id="a_edge8_Node000006_Node000007"><a xlink:title=" ">
<path fill="none" stroke="#63b8ff" d="M254.33,-168.92C272.87,-164.28 295.08,-158.73 314.78,-153.8"/>
<polygon fill="#63b8ff" stroke="#63b8ff" points="315.42,-157.25 324.27,-151.43 313.72,-150.46 315.42,-157.25"/>
</a>
</g>
</g>
<!-- Node7&#45;&gt;Node3 -->
<g id="edge9_Node000007_Node000003" class="edge">
<title>Node7&#45;&gt;Node3</title>
<g id="a_edge9_Node000007_Node000003"><a xlink:title=" ">
<path fill="none" stroke="#63b8ff" d="M433.07,-147.11C494.6,-152.9 584.96,-161.39 636.57,-166.24"/>
<polygon fill="#63b8ff" stroke="#63b8ff" points="636.1,-169.71 646.38,-167.16 636.75,-162.74 636.1,-169.71"/>
</a>
</g>
</g>
<!-- Node8 -->
<g id="Node000008" class="node">
<title>Node8</title>
<g id="a_Node000008"><a xlink:href="../../d5/ddd/unity_8c.html#af87f4beffdad7f78fb592861e61b1bae" target="_top" xlink:title=" ">
<polygon fill="white" stroke="#666666" points="589.75,-112.62 474,-112.62 474,-93.38 589.75,-93.38 589.75,-112.62"/>
<text text-anchor="middle" x="531.88" y="-99.12" font-family="Helvetica,sans-Serif" font-size="10.00">UnityTestResultsBegin</text>
</a>
</g>
</g>
<!-- Node7&#45;&gt;Node8 -->
<g id="edge10_Node000007_Node000008" class="edge">
<title>Node7&#45;&gt;Node8</title>
<g id="a_edge10_Node000007_Node000008"><a xlink:title=" ">
<path fill="none" stroke="#63b8ff" d="M411.22,-130.92C431.27,-126.24 455.32,-120.63 476.58,-115.67"/>
<polygon fill="#63b8ff" stroke="#63b8ff" points="477.32,-119.09 486.26,-113.41 475.73,-112.27 477.32,-119.09"/>
</a>
</g>
</g>
<!-- Node8&#45;&gt;Node3 -->
<g id="edge11_Node000008_Node000003" class="edge">
<title>Node8&#45;&gt;Node3</title>
<g id="a_edge11_Node000008_Node000003"><a xlink:title=" ">
<path fill="none" stroke="#63b8ff" d="M560.99,-113.07C571.75,-117.13 584.05,-122.02 595,-127 613.36,-135.35 633.41,-145.89 649.05,-154.45"/>
<polygon fill="#63b8ff" stroke="#63b8ff" points="647.32,-157.49 657.76,-159.27 650.71,-151.36 647.32,-157.49"/>
</a>
</g>
</g>
<!-- Node9 -->
<g id="Node000009" class="node">
<title>Node9</title>
<g id="a_Node000009"><a xlink:href="../../d5/ddd/unity_8c.html#a644211a214ab000dcabd5582c52e0313" target="_top" xlink:title=" ">
<polygon fill="white" stroke="#666666" points="724.25,-123.62 631,-123.62 631,-104.38 724.25,-104.38 724.25,-123.62"/>
<text text-anchor="middle" x="677.62" y="-110.12" font-family="Helvetica,sans-Serif" font-size="10.00">UnityPrintNumber</text>
</a>
</g>
</g>
<!-- Node8&#45;&gt;Node9 -->
<g id="edge12_Node000008_Node000009" class="edge">
<title>Node8&#45;&gt;Node9</title>
<g id="a_edge12_Node000008_Node000009"><a xlink:title=" ">
<path fill="none" stroke="#63b8ff" d="M590.1,-107.38C599.68,-108.11 609.61,-108.87 619.19,-109.61"/>
<polygon fill="#63b8ff" stroke="#63b8ff" points="618.9,-113.09 629.14,-110.37 619.44,-106.11 618.9,-113.09"/>
</a>
</g>
</g>
<!-- Node9&#45;&gt;Node10 -->
<g id="edge13_Node000009_Node000010" class="edge">
<title>Node9&#45;&gt;Node10</title>
<g id="a_edge13_Node000009_Node000010"><a xlink:title=" ">
<path fill="none" stroke="#63b8ff" d="M717.86,-103.92C735.82,-99.3 757.3,-93.78 776.4,-88.87"/>
<polygon fill="#63b8ff" stroke="#63b8ff" points="777.05,-92.32 785.87,-86.44 775.31,-85.54 777.05,-92.32"/>
</a>
</g>
</g>
<!-- Node11&#45;&gt;Node5 -->
<g id="edge17_Node000011_Node000005" class="edge">
<title>Node11&#45;&gt;Node5</title>
<g id="a_edge17_Node000011_Node000005"><a xlink:title=" ">
<path fill="none" stroke="#63b8ff" d="M595.48,-59.78C667.77,-53.68 790.15,-46.67 894.75,-57 907.04,-58.21 920.15,-60.34 932.45,-62.71"/>
<polygon fill="#63b8ff" stroke="#63b8ff" points="931.49,-66.09 941.99,-64.64 932.88,-59.23 931.49,-66.09"/>
</a>
</g>
</g>
<!-- Node11&#45;&gt;Node9 -->
<g id="edge16_Node000011_Node000009" class="edge">
<title>Node11&#45;&gt;Node9</title>
<g id="a_edge16_Node000011_Node000009"><a xlink:title=" ">
<path fill="none" stroke="#63b8ff" d="M569.14,-76.04C577.66,-78.53 586.68,-81.27 595,-84 609.83,-88.87 625.99,-94.69 639.99,-99.91"/>
<polygon fill="#63b8ff" stroke="#63b8ff" points="638.68,-103.16 649.27,-103.41 641.14,-96.61 638.68,-103.16"/>
</a>
</g>
</g>
<!-- Node11&#45;&gt;Node10 -->
<g id="edge18_Node000011_Node000010" class="edge">
<title>Node11&#45;&gt;Node10</title>
<g id="a_edge18_Node000011_Node000010"><a xlink:title=" ">
<path fill="none" stroke="#63b8ff" d="M595.15,-68.12C639.95,-69.65 700.69,-71.72 748.7,-73.35"/>
<polygon fill="#63b8ff" stroke="#63b8ff" points="748.35,-76.84 758.47,-73.68 748.59,-69.84 748.35,-76.84"/>
</a>
</g>
</g>
</g>
</svg>

<g id="navigator" transform="translate(0 0)" fill="#404254">
  <rect fill="#f2f5e9" fill-opacity="0.5" stroke="#606060" stroke-width=".5" x="0" y="0" width="60" height="60"/>
  <use id="zoomplus" xlink:href="#zoomPlus" x="17" y="9" onmousedown="handleZoom(evt,'in')"/>
  <use id="zoomminus" xlink:href="#zoomMin" x="42" y="9" onmousedown="handleZoom(evt,'out')"/>
  <use id="reset" xlink:href="#resetDef" x="30" y="36" onmousedown="handleReset()"/>
   <use id="arrowup" xlink:href="#arrowUp" x="0" y="0" onmousedown="handlePan(0,-1)"/>
  <use id="arrowright" xlink:href="#arrowRight" x="0" y="0" onmousedown="handlePan(1,0)"/>
  <use id="arrowdown" xlink:href="#arrowDown" x="0" y="0" onmousedown="handlePan(0,1)"/>
  <use id="arrowleft" xlink:href="#arrowLeft" x="0" y="0" onmousedown="handlePan(-1,0)"/>
</g>
<svg viewBox="0 0 15 15" width="100%" height="30px" preserveAspectRatio="xMaxYMin meet">
 <g id="arrow_out" transform="scale(0.3 0.3)">
  <a xlink:href="unity__internals_8h_a5d36ae0ba6becafccda94364caf61adf_cgraph_org.svg" target="_base">
   <rect id="button" ry="5" rx="5" y="6" x="6" height="38" width="38"
        fill="#f2f5e9" fill-opacity="0.5" stroke="#606060" stroke-width="1.0"/>
   <path id="arrow"
     d="M 11.500037,31.436501 C 11.940474,20.09759 22.043105,11.32322 32.158766,21.979434 L 37.068811,17.246167 C 37.068811,17.246167 37.088388,32 37.088388,32 L 22.160133,31.978069 C 22.160133,31.978069 26.997745,27.140456 26.997745,27.140456 C 18.528582,18.264221 13.291696,25.230495 11.500037,31.436501 z"
     style="fill:#404040;"/>
  </a>
 </g>
</svg>

<style type='text/css'>
<![CDATA[
[data-mouse-over-selected='false'] { opacity: 0.7; }
[data-mouse-over-selected='true']  { opacity: 1.0; }
]]>
</style>
<script type="application/ecmascript"><![CDATA[
document.addEventListener('DOMContentLoaded', (event) => {
  highlightEdges();
  highlightAdjacentNodes();
});
]]></script>
</svg>
