<?xml version="1.0" encoding="UTF-8" standalone="no"?>
<!DOCTYPE svg PUBLIC "-//W3C//DTD SVG 1.1//EN"
 "http://www.w3.org/Graphics/SVG/1.1/DTD/svg11.dtd">
<!-- Generated by graphviz version 12.2.0 (20241103.1931)
 -->
<!-- Title: UnityAssertFloatSpecial Pages: 1 -->
<!--zoomable 179 -->

<svg id="main" version="1.1" xmlns="http://www.w3.org/2000/svg" xmlns:xlink="http://www.w3.org/1999/xlink" xml:space="preserve" onload="init(evt)">

<style type="text/css"><![CDATA[
.node, .edge {opacity: 0.7;}
.node.selected, .edge.selected {opacity: 1;}
.edge:hover path { stroke: red; }
.edge:hover polygon { stroke: red; fill: red; }
]]></style>

<defs>
  <circle id="rim" cx="0" cy="0" r="7"/>
  <circle id="rim2" cx="0" cy="0" r="3.5"/>
  <g id="zoomPlus">
    <use xlink:href="#rim" fill="#404040"><set attributeName="fill" to="#808080" begin="zoomplus.mouseover" end="zoomplus.mouseout"/></use>
    <path d="M-4,0h8M0,-4v8" fill="none" stroke="white" stroke-width="1.5" pointer-events="none"/>
  </g>
  <g id="zoomMin">
    <use xlink:href="#rim" fill="#404040"><set attributeName="fill" to="#808080" begin="zoomminus.mouseover" end="zoomminus.mouseout"/></use>
    <path d="M-4,0h8" fill="none" stroke="white" stroke-width="1.5" pointer-events="none"/>
  </g>
  <g id="arrowUp" transform="translate(30 24)">
    <use xlink:href="#rim"/>
    <path pointer-events="none" fill="none" stroke="white" stroke-width="1.5" d="M0,-3.0v7 M-2.5,-0.5L0,-3.0L2.5,-0.5"/>
  </g>
  <g id="arrowRight" transform="rotate(90) translate(36 -43)">
    <use xlink:href="#rim"/>
    <path pointer-events="none" fill="none" stroke="white" stroke-width="1.5" d="M0,-3.0v7 M-2.5,-0.5L0,-3.0L2.5,-0.5"/>
  </g>
  <g id="arrowDown" transform="rotate(180) translate(-30 -48)">
    <use xlink:href="#rim"/>
    <path pointer-events="none" fill="none" stroke="white" stroke-width="1.5" d="M0,-3.0v7 M-2.5,-0.5L0,-3.0L2.5,-0.5"/>
  </g>
  <g id="arrowLeft" transform="rotate(270) translate(-36 17)">
    <use xlink:href="#rim"/>
    <path pointer-events="none" fill="none" stroke="white" stroke-width="1.5" d="M0,-3.0v7 M-2.5,-0.5L0,-3.0L2.5,-0.5"/>
  </g>
  <g id="resetDef">
    <use xlink:href="#rim2" fill="#404040"><set attributeName="fill" to="#808080" begin="reset.mouseover" end="reset.mouseout"/></use>
  </g>
</defs>
<script type="application/ecmascript">
var viewWidth = 899;
var viewHeight = 179;
var sectionId = 'dynsection-10';
</script>
<script type="application/ecmascript" xlink:href="../../svg.min.js"/>
<svg id="graph" class="graph">
<g id="viewport">
<title>UnityAssertFloatSpecial</title>
<!-- Node1 -->
<g id="Node000001" class="node">
<title>Node1</title>
<g id="a_Node000001"><a xlink:title=" ">
<polygon fill="#999999" stroke="#666666" points="121,-114.25 0,-114.25 0,-95 121,-95 121,-114.25"/>
<text text-anchor="middle" x="60.5" y="-100.75" font-family="Helvetica,sans-Serif" font-size="10.00">UnityAssertFloatSpecial</text>
</a>
</g>
</g>
<!-- Node2 -->
<g id="Node000002" class="node">
<title>Node2</title>
<g id="a_Node000002"><a xlink:href="../../d5/ddd/unity_8c.html#af0db89aa4947c98a55a44bae2a7035d7" target="_top" xlink:title=" ">
<polygon fill="white" stroke="#666666" points="444.75,-171.25 324.5,-171.25 324.5,-152 444.75,-152 444.75,-171.25"/>
<text text-anchor="middle" x="384.62" y="-157.75" font-family="Helvetica,sans-Serif" font-size="10.00">UnityAddMsgIfSpecified</text>
</a>
</g>
</g>
<!-- Node1&#45;&gt;Node2 -->
<g id="edge1_Node000001_Node000002" class="edge">
<title>Node1&#45;&gt;Node2</title>
<g id="a_edge1_Node000001_Node000002"><a xlink:title=" ">
<path fill="none" stroke="#63b8ff" d="M85.79,-114.74C104.83,-122.24 132.17,-132.1 157,-137.62 208.51,-149.1 267.87,-155.13 312.91,-158.28"/>
<polygon fill="#63b8ff" stroke="#63b8ff" points="312.62,-161.76 322.83,-158.93 313.08,-154.78 312.62,-161.76"/>
</a>
</g>
</g>
<!-- Node3 -->
<g id="Node000003" class="node">
<title>Node3</title>
<g id="a_Node000003"><a xlink:href="../../d5/ddd/unity_8c.html#accff2eb4cfd0273e8ad62c37639d3e3c" target="_top" xlink:title=" ">
<polygon fill="white" stroke="#666666" points="556.75,-95.25 498,-95.25 498,-76 556.75,-76 556.75,-95.25"/>
<text text-anchor="middle" x="527.38" y="-81.75" font-family="Helvetica,sans-Serif" font-size="10.00">UnityPrint</text>
</a>
</g>
</g>
<!-- Node1&#45;&gt;Node3 -->
<g id="edge5_Node000001_Node000003" class="edge">
<title>Node1&#45;&gt;Node3</title>
<g id="a_edge5_Node000001_Node000003"><a xlink:title=" ">
<path fill="none" stroke="#63b8ff" d="M121.43,-107.09C197.02,-109.45 330.88,-111.16 444.75,-99.62 458.47,-98.24 473.37,-95.92 486.63,-93.57"/>
<polygon fill="#63b8ff" stroke="#63b8ff" points="487.11,-97.04 496.31,-91.79 485.84,-90.16 487.11,-97.04"/>
</a>
</g>
</g>
<!-- Node6 -->
<g id="Node000006" class="node">
<title>Node6</title>
<g id="a_Node000006"><a xlink:href="../../d5/ddd/unity_8c.html#ac3d39bc0740a28949a2ba689588491c2" target="_top" xlink:title=" ">
<polygon fill="white" stroke="#666666" points="263,-95.25 182.5,-95.25 182.5,-76 263,-76 263,-95.25"/>
<text text-anchor="middle" x="222.75" y="-81.75" font-family="Helvetica,sans-Serif" font-size="10.00">UnityPrintFloat</text>
</a>
</g>
</g>
<!-- Node1&#45;&gt;Node6 -->
<g id="edge6_Node000001_Node000006" class="edge">
<title>Node1&#45;&gt;Node6</title>
<g id="a_edge6_Node000001_Node000006"><a xlink:title=" ">
<path fill="none" stroke="#63b8ff" d="M121.17,-97.55C137.64,-95.6 155.35,-93.5 171.24,-91.61"/>
<polygon fill="#63b8ff" stroke="#63b8ff" points="171.43,-95.12 180.95,-90.46 170.61,-88.16 171.43,-95.12"/>
</a>
</g>
</g>
<!-- Node7 -->
<g id="Node000007" class="node">
<title>Node7</title>
<g id="a_Node000007"><a xlink:href="../../d5/ddd/unity_8c.html#a2961260574158cc9df09ded14bbc2085" target="_top" xlink:title=" ">
<polygon fill="white" stroke="#666666" points="288.5,-57.25 157,-57.25 157,-38 288.5,-38 288.5,-57.25"/>
<text text-anchor="middle" x="222.75" y="-43.75" font-family="Helvetica,sans-Serif" font-size="10.00">UnityTestResultsFailBegin</text>
</a>
</g>
</g>
<!-- Node1&#45;&gt;Node7 -->
<g id="edge8_Node000001_Node000007" class="edge">
<title>Node1&#45;&gt;Node7</title>
<g id="a_edge8_Node000001_Node000007"><a xlink:title=" ">
<path fill="none" stroke="#63b8ff" d="M84.82,-94.64C104.02,-86.59 132.03,-75.23 157,-66.62 162.68,-64.67 168.67,-62.73 174.64,-60.89"/>
<polygon fill="#63b8ff" stroke="#63b8ff" points="175.25,-64.36 183.81,-58.12 173.23,-57.66 175.25,-64.36"/>
</a>
</g>
</g>
<!-- Node2&#45;&gt;Node3 -->
<g id="edge2_Node000002_Node000003" class="edge">
<title>Node2&#45;&gt;Node3</title>
<g id="a_edge2_Node000002_Node000003"><a xlink:title=" ">
<path fill="none" stroke="#63b8ff" d="M413.47,-151.53C423.51,-147.57 434.81,-142.76 444.75,-137.62 465.28,-127.03 487.29,-112.82 503.28,-101.93"/>
<polygon fill="#63b8ff" stroke="#63b8ff" points="504.91,-105.07 511.15,-96.5 500.93,-99.3 504.91,-105.07"/>
</a>
</g>
</g>
<!-- Node4 -->
<g id="Node000004" class="node">
<title>Node4</title>
<g id="a_Node000004"><a xlink:href="../../d5/ddd/unity_8c.html#aa3373f770c748cc1600d55cd8c7839c3" target="_top" xlink:title=" ">
<polygon fill="white" stroke="#666666" points="716.75,-95.25 637.75,-95.25 637.75,-76 716.75,-76 716.75,-95.25"/>
<text text-anchor="middle" x="677.25" y="-81.75" font-family="Helvetica,sans-Serif" font-size="10.00">UnityPrintChar</text>
</a>
</g>
</g>
<!-- Node3&#45;&gt;Node4 -->
<g id="edge3_Node000003_Node000004" class="edge">
<title>Node3&#45;&gt;Node4</title>
<g id="a_edge3_Node000003_Node000004"><a xlink:title=" ">
<path fill="none" stroke="#63b8ff" d="M557.24,-85.62C576.8,-85.62 603.16,-85.62 626.1,-85.62"/>
<polygon fill="#63b8ff" stroke="#63b8ff" points="625.87,-89.13 635.87,-85.63 625.87,-82.13 625.87,-89.13"/>
</a>
</g>
</g>
<!-- Node5 -->
<g id="Node000005" class="node">
<title>Node5</title>
<g id="a_Node000005"><a xlink:href="../../d5/ddd/unity_8c.html#ab5636c2c3e2d5ff0d89461e2323aa469" target="_top" xlink:title=" ">
<polygon fill="white" stroke="#666666" points="891,-95.25 780.5,-95.25 780.5,-76 891,-76 891,-95.25"/>
<text text-anchor="middle" x="835.75" y="-81.75" font-family="Helvetica,sans-Serif" font-size="10.00">UnityPrintNumberHex</text>
</a>
</g>
</g>
<!-- Node4&#45;&gt;Node5 -->
<g id="edge4_Node000004_Node000005" class="edge">
<title>Node4&#45;&gt;Node5</title>
<g id="a_edge4_Node000004_Node000005"><a xlink:title=" ">
<path fill="none" stroke="#63b8ff" d="M716.94,-85.62C732.6,-85.62 751.14,-85.62 768.82,-85.62"/>
<polygon fill="#63b8ff" stroke="#63b8ff" points="768.76,-89.13 778.76,-85.63 768.76,-82.13 768.76,-89.13"/>
</a>
</g>
</g>
<!-- Node6&#45;&gt;Node3 -->
<g id="edge7_Node000006_Node000003" class="edge">
<title>Node6&#45;&gt;Node3</title>
<g id="a_edge7_Node000006_Node000003"><a xlink:title=" ">
<path fill="none" stroke="#63b8ff" d="M263.31,-85.62C321.17,-85.62 428.28,-85.62 486.38,-85.62"/>
<polygon fill="#63b8ff" stroke="#63b8ff" points="486.14,-89.13 496.14,-85.63 486.14,-82.13 486.14,-89.13"/>
</a>
</g>
</g>
<!-- Node7&#45;&gt;Node3 -->
<g id="edge9_Node000007_Node000003" class="edge">
<title>Node7&#45;&gt;Node3</title>
<g id="a_edge9_Node000007_Node000003"><a xlink:title=" ">
<path fill="none" stroke="#63b8ff" d="M288.67,-55.78C348.64,-63.31 435.85,-74.26 486.27,-80.59"/>
<polygon fill="#63b8ff" stroke="#63b8ff" points="485.79,-84.06 496.15,-81.83 486.66,-77.11 485.79,-84.06"/>
</a>
</g>
</g>
<!-- Node8 -->
<g id="Node000008" class="node">
<title>Node8</title>
<g id="a_Node000008"><a xlink:href="../../d5/ddd/unity_8c.html#af87f4beffdad7f78fb592861e61b1bae" target="_top" xlink:title=" ">
<polygon fill="white" stroke="#666666" points="442.5,-19.25 326.75,-19.25 326.75,0 442.5,0 442.5,-19.25"/>
<text text-anchor="middle" x="384.62" y="-5.75" font-family="Helvetica,sans-Serif" font-size="10.00">UnityTestResultsBegin</text>
</a>
</g>
</g>
<!-- Node7&#45;&gt;Node8 -->
<g id="edge10_Node000007_Node000008" class="edge">
<title>Node7&#45;&gt;Node8</title>
<g id="a_edge10_Node000007_Node000008"><a xlink:title=" ">
<path fill="none" stroke="#63b8ff" d="M266.17,-37.54C285.86,-32.86 309.46,-27.25 330.33,-22.29"/>
<polygon fill="#63b8ff" stroke="#63b8ff" points="330.89,-25.76 339.81,-20.04 329.27,-18.95 330.89,-25.76"/>
</a>
</g>
</g>
<!-- Node8&#45;&gt;Node3 -->
<g id="edge11_Node000008_Node000003" class="edge">
<title>Node8&#45;&gt;Node3</title>
<g id="a_edge11_Node000008_Node000003"><a xlink:title=" ">
<path fill="none" stroke="#63b8ff" d="M413.47,-19.72C423.51,-23.68 434.81,-28.49 444.75,-33.62 465.28,-44.22 487.29,-58.43 503.28,-69.32"/>
<polygon fill="#63b8ff" stroke="#63b8ff" points="500.93,-71.95 511.15,-74.75 504.91,-66.18 500.93,-71.95"/>
</a>
</g>
</g>
<!-- Node9 -->
<g id="Node000009" class="node">
<title>Node9</title>
<g id="a_Node000009"><a xlink:href="../../d5/ddd/unity_8c.html#a644211a214ab000dcabd5582c52e0313" target="_top" xlink:title=" ">
<polygon fill="white" stroke="#666666" points="574,-19.25 480.75,-19.25 480.75,0 574,0 574,-19.25"/>
<text text-anchor="middle" x="527.38" y="-5.75" font-family="Helvetica,sans-Serif" font-size="10.00">UnityPrintNumber</text>
</a>
</g>
</g>
<!-- Node8&#45;&gt;Node9 -->
<g id="edge12_Node000008_Node000009" class="edge">
<title>Node8&#45;&gt;Node9</title>
<g id="a_edge12_Node000008_Node000009"><a xlink:title=" ">
<path fill="none" stroke="#63b8ff" d="M442.87,-9.62C451.45,-9.62 460.31,-9.62 468.89,-9.62"/>
<polygon fill="#63b8ff" stroke="#63b8ff" points="468.87,-13.13 478.87,-9.63 468.87,-6.13 468.87,-13.13"/>
</a>
</g>
</g>
<!-- Node10 -->
<g id="Node000010" class="node">
<title>Node10</title>
<g id="a_Node000010"><a xlink:href="../../d5/ddd/unity_8c.html#a3ef388786e9a8e769d13af2601b592dc" target="_top" xlink:title=" ">
<polygon fill="white" stroke="#666666" points="744.5,-19.25 610,-19.25 610,0 744.5,0 744.5,-19.25"/>
<text text-anchor="middle" x="677.25" y="-5.75" font-family="Helvetica,sans-Serif" font-size="10.00">UnityPrintNumberUnsigned</text>
</a>
</g>
</g>
<!-- Node9&#45;&gt;Node10 -->
<g id="edge13_Node000009_Node000010" class="edge">
<title>Node9&#45;&gt;Node10</title>
<g id="a_edge13_Node000009_Node000010"><a xlink:title=" ">
<path fill="none" stroke="#63b8ff" d="M574.35,-9.62C581.96,-9.62 590.03,-9.62 598.17,-9.62"/>
<polygon fill="#63b8ff" stroke="#63b8ff" points="598.16,-13.13 608.16,-9.63 598.16,-6.13 598.16,-13.13"/>
</a>
</g>
</g>
</g>
</svg>

<g id="navigator" transform="translate(0 0)" fill="#404254">
  <rect fill="#f2f5e9" fill-opacity="0.5" stroke="#606060" stroke-width=".5" x="0" y="0" width="60" height="60"/>
  <use id="zoomplus" xlink:href="#zoomPlus" x="17" y="9" onmousedown="handleZoom(evt,'in')"/>
  <use id="zoomminus" xlink:href="#zoomMin" x="42" y="9" onmousedown="handleZoom(evt,'out')"/>
  <use id="reset" xlink:href="#resetDef" x="30" y="36" onmousedown="handleReset()"/>
   <use id="arrowup" xlink:href="#arrowUp" x="0" y="0" onmousedown="handlePan(0,-1)"/>
  <use id="arrowright" xlink:href="#arrowRight" x="0" y="0" onmousedown="handlePan(1,0)"/>
  <use id="arrowdown" xlink:href="#arrowDown" x="0" y="0" onmousedown="handlePan(0,1)"/>
  <use id="arrowleft" xlink:href="#arrowLeft" x="0" y="0" onmousedown="handlePan(-1,0)"/>
</g>
<svg viewBox="0 0 15 15" width="100%" height="30px" preserveAspectRatio="xMaxYMin meet">
 <g id="arrow_out" transform="scale(0.3 0.3)">
  <a xlink:href="unity__internals_8h_aa7909741e6f90c6af19e07b91c88ad4c_cgraph_org.svg" target="_base">
   <rect id="button" ry="5" rx="5" y="6" x="6" height="38" width="38"
        fill="#f2f5e9" fill-opacity="0.5" stroke="#606060" stroke-width="1.0"/>
   <path id="arrow"
     d="M 11.500037,31.436501 C 11.940474,20.09759 22.043105,11.32322 32.158766,21.979434 L 37.068811,17.246167 C 37.068811,17.246167 37.088388,32 37.088388,32 L 22.160133,31.978069 C 22.160133,31.978069 26.997745,27.140456 26.997745,27.140456 C 18.528582,18.264221 13.291696,25.230495 11.500037,31.436501 z"
     style="fill:#404040;"/>
  </a>
 </g>
</svg>

<style type='text/css'>
<![CDATA[
[data-mouse-over-selected='false'] { opacity: 0.7; }
[data-mouse-over-selected='true']  { opacity: 1.0; }
]]>
</style>
<script type="application/ecmascript"><![CDATA[
document.addEventListener('DOMContentLoaded', (event) => {
  highlightEdges();
  highlightAdjacentNodes();
});
]]></script>
</svg>
