<?xml version="1.0" encoding="UTF-8" standalone="no"?>
<!DOCTYPE svg PUBLIC "-//W3C//DTD SVG 1.1//EN"
 "http://www.w3.org/Graphics/SVG/1.1/DTD/svg11.dtd">
<!-- Generated by graphviz version 12.2.0 (20241103.1931)
 -->
<!-- Title: src/group_29/include/libc/stdbool.h Pages: 1 -->
<svg width="1758pt" height="359pt"
 viewBox="0.00 0.00 1757.50 358.75" xmlns="http://www.w3.org/2000/svg" xmlns:xlink="http://www.w3.org/1999/xlink">
<g id="graph0" class="graph" transform="scale(1 1) rotate(0) translate(4 354.75)">
<title>src/group_29/include/libc/stdbool.h</title>
<!-- Node1 -->
<g id="Node000001" class="node">
<title>Node1</title>
<g id="a_Node000001"><a xlink:title=" ">
<polygon fill="#999999" stroke="#666666" points="891.88,-350.75 725.88,-350.75 725.88,-331.5 891.88,-331.5 891.88,-350.75"/>
<text text-anchor="middle" x="808.88" y="-337.25" font-family="Helvetica,sans-Serif" font-size="10.00">src/group_29/include/libc/stdbool.h</text>
</a>
</g>
</g>
<!-- Node2 -->
<g id="Node000002" class="node">
<title>Node2</title>
<g id="a_Node000002"><a xlink:href="../../d9/d8f/ata_8h.html" target="_top" xlink:title=" ">
<polygon fill="white" stroke="#666666" points="190.75,-240.25 57,-240.25 57,-221 190.75,-221 190.75,-240.25"/>
<text text-anchor="middle" x="123.88" y="-226.75" font-family="Helvetica,sans-Serif" font-size="10.00">src/group_29/src/disk/ata.h</text>
</a>
</g>
</g>
<!-- Node1&#45;&gt;Node2 -->
<g id="edge1_Node000001_Node000002" class="edge">
<title>Node1&#45;&gt;Node2</title>
<g id="a_edge1_Node000001_Node000002"><a xlink:title=" ">
<path fill="none" stroke="#63b8ff" d="M714.29,-339.84C568.22,-338.28 295.14,-330.59 204.88,-295.5 173.83,-283.43 145.14,-255.18 131.77,-240.63"/>
<polygon fill="#63b8ff" stroke="#63b8ff" points="713.9,-343.34 723.93,-339.94 713.97,-336.34 713.9,-343.34"/>
</a>
</g>
</g>
<!-- Node6 -->
<g id="Node000006" class="node">
<title>Node6</title>
<g id="a_Node000006"><a xlink:href="../../d9/d26/kernel_8c.html" target="_top" xlink:title=" ">
<polygon fill="white" stroke="#666666" points="904.62,-19.25 779.12,-19.25 779.12,0 904.62,0 904.62,-19.25"/>
<text text-anchor="middle" x="841.88" y="-5.75" font-family="Helvetica,sans-Serif" font-size="10.00">src/group_29/src/kernel.c</text>
</a>
</g>
</g>
<!-- Node1&#45;&gt;Node6 -->
<g id="edge19_Node000001_Node000006" class="edge">
<title>Node1&#45;&gt;Node6</title>
<g id="a_edge19_Node000001_Node000006"><a xlink:title=" ">
<path fill="none" stroke="#63b8ff" d="M833.66,-324.92C860.3,-306.45 898.88,-272.64 898.88,-231.62 898.88,-231.62 898.88,-231.62 898.88,-119.12 898.88,-78.06 866.48,-37.24 850.53,-19.64"/>
<polygon fill="#63b8ff" stroke="#63b8ff" points="831.81,-321.95 825.4,-330.39 835.67,-327.78 831.81,-321.95"/>
</a>
</g>
</g>
<!-- Node9 -->
<g id="Node000009" class="node">
<title>Node9</title>
<g id="a_Node000009"><a xlink:href="../../d9/d85/tinyfs_8h.html" target="_top" xlink:title=" ">
<polygon fill="white" stroke="#666666" points="323.75,-185 190,-185 190,-165.75 323.75,-165.75 323.75,-185"/>
<text text-anchor="middle" x="256.88" y="-171.5" font-family="Helvetica,sans-Serif" font-size="10.00">src/group_29/src/fs/tinyfs.h</text>
</a>
</g>
</g>
<!-- Node1&#45;&gt;Node9 -->
<g id="edge13_Node000001_Node000009" class="edge">
<title>Node1&#45;&gt;Node9</title>
<g id="a_edge13_Node000001_Node000009"><a xlink:title=" ">
<path fill="none" stroke="#63b8ff" d="M714.17,-336.79C572.76,-329.63 316.81,-307.49 258.88,-240.25 245.69,-224.95 250.24,-199.12 253.98,-185.47"/>
<polygon fill="#63b8ff" stroke="#63b8ff" points="713.73,-340.28 723.89,-337.27 714.07,-333.28 713.73,-340.28"/>
</a>
</g>
</g>
<!-- Node11 -->
<g id="Node000011" class="node">
<title>Node11</title>
<g id="a_Node000011"><a xlink:href="../../d6/ded/interrupts_8h.html" target="_top" xlink:title=" ">
<polygon fill="white" stroke="#666666" points="1466.5,-129.75 1283.25,-129.75 1283.25,-110.5 1466.5,-110.5 1466.5,-129.75"/>
<text text-anchor="middle" x="1374.88" y="-116.25" font-family="Helvetica,sans-Serif" font-size="10.00">src/group_29/src/interrupts/interrupts.h</text>
</a>
</g>
</g>
<!-- Node1&#45;&gt;Node11 -->
<g id="edge14_Node000001_Node000011" class="edge">
<title>Node1&#45;&gt;Node11</title>
<g id="a_edge14_Node000001_Node000011"><a xlink:title=" ">
<path fill="none" stroke="#63b8ff" d="M846.38,-327.39C871.74,-318.67 905.94,-306.7 935.88,-295.5 1097.17,-235.16 1289.25,-156.47 1353.07,-130.15"/>
<polygon fill="#63b8ff" stroke="#63b8ff" points="845.5,-323.99 837.18,-330.54 847.77,-330.61 845.5,-323.99"/>
</a>
</g>
</g>
<!-- Node15 -->
<g id="Node000015" class="node">
<title>Node15</title>
<g id="a_Node000015"><a xlink:href="../../d6/da0/keyboard_8h.html" target="_top" xlink:title=" ">
<polygon fill="white" stroke="#666666" points="1107,-129.75 926.75,-129.75 926.75,-110.5 1107,-110.5 1107,-129.75"/>
<text text-anchor="middle" x="1016.88" y="-116.25" font-family="Helvetica,sans-Serif" font-size="10.00">src/group_29/src/keyboard/keyboard.h</text>
</a>
</g>
</g>
<!-- Node1&#45;&gt;Node15 -->
<g id="edge20_Node000001_Node000015" class="edge">
<title>Node1&#45;&gt;Node15</title>
<g id="a_edge20_Node000001_Node000015"><a xlink:title=" ">
<path fill="none" stroke="#63b8ff" d="M855.02,-327.35C874.46,-320.29 896.36,-309.96 912.88,-295.5 969.36,-246.04 1003.85,-158.17 1013.84,-130.05"/>
<polygon fill="#63b8ff" stroke="#63b8ff" points="853.98,-324.01 845.65,-330.55 856.24,-330.63 853.98,-324.01"/>
</a>
</g>
</g>
<!-- Node17 -->
<g id="Node000017" class="node">
<title>Node17</title>
<g id="a_Node000017"><a xlink:href="../../da/ddb/heap_8h.html" target="_top" xlink:title=" ">
<polygon fill="white" stroke="#666666" points="798.75,-295.5 641,-295.5 641,-276.25 798.75,-276.25 798.75,-295.5"/>
<text text-anchor="middle" x="719.88" y="-282" font-family="Helvetica,sans-Serif" font-size="10.00">src/group_29/src/memory/heap.h</text>
</a>
</g>
</g>
<!-- Node1&#45;&gt;Node17 -->
<g id="edge25_Node000001_Node000017" class="edge">
<title>Node1&#45;&gt;Node17</title>
<g id="a_edge25_Node000001_Node000017"><a xlink:title=" ">
<path fill="none" stroke="#63b8ff" d="M784.14,-325.32C768.39,-315.9 748.5,-304 735.05,-295.95"/>
<polygon fill="#63b8ff" stroke="#63b8ff" points="782.1,-328.18 792.48,-330.31 785.69,-322.18 782.1,-328.18"/>
</a>
</g>
</g>
<!-- Node3 -->
<g id="Node000003" class="node">
<title>Node3</title>
<g id="a_Node000003"><a xlink:href="../../d0/d09/command_8h.html" target="_top" xlink:title=" ">
<polygon fill="white" stroke="#666666" points="474.75,-129.75 287,-129.75 287,-110.5 474.75,-110.5 474.75,-129.75"/>
<text text-anchor="middle" x="380.88" y="-116.25" font-family="Helvetica,sans-Serif" font-size="10.00">src/group_29/src/command/command.h</text>
</a>
</g>
</g>
<!-- Node2&#45;&gt;Node3 -->
<g id="edge2_Node000002_Node000003" class="edge">
<title>Node2&#45;&gt;Node3</title>
<g id="a_edge2_Node000002_Node000003"><a xlink:title=" ">
<path fill="none" stroke="#63b8ff" d="M135.61,-211.08C145.8,-196.51 161.9,-176.89 180.88,-165.75 212.71,-147.06 251.58,-136.19 286.57,-129.87"/>
<polygon fill="#63b8ff" stroke="#63b8ff" points="132.74,-209.07 130.11,-219.34 138.56,-212.95 132.74,-209.07"/>
</a>
</g>
</g>
<!-- Node8 -->
<g id="Node000008" class="node">
<title>Node8</title>
<g id="a_Node000008"><a xlink:href="../../d8/d58/ata_8c.html" target="_top" xlink:title=" ">
<polygon fill="white" stroke="#666666" points="133.75,-185 0,-185 0,-165.75 133.75,-165.75 133.75,-185"/>
<text text-anchor="middle" x="66.88" y="-171.5" font-family="Helvetica,sans-Serif" font-size="10.00">src/group_29/src/disk/ata.c</text>
</a>
</g>
</g>
<!-- Node2&#45;&gt;Node8 -->
<g id="edge7_Node000002_Node000008" class="edge">
<title>Node2&#45;&gt;Node8</title>
<g id="a_edge7_Node000002_Node000008"><a xlink:title=" ">
<path fill="none" stroke="#63b8ff" d="M105.93,-212.86C96.14,-203.72 84.43,-192.78 76.4,-185.27"/>
<polygon fill="#63b8ff" stroke="#63b8ff" points="103.4,-215.29 113.1,-219.56 108.18,-210.17 103.4,-215.29"/>
</a>
</g>
</g>
<!-- Node2&#45;&gt;Node9 -->
<g id="edge8_Node000002_Node000009" class="edge">
<title>Node2&#45;&gt;Node9</title>
<g id="a_edge8_Node000002_Node000009"><a xlink:title=" ">
<path fill="none" stroke="#63b8ff" d="M156.87,-216.41C180.95,-206.77 212.96,-193.96 234.2,-185.45"/>
<polygon fill="#63b8ff" stroke="#63b8ff" points="155.82,-213.06 147.84,-220.03 158.43,-219.56 155.82,-213.06"/>
</a>
</g>
</g>
<!-- Node4 -->
<g id="Node000004" class="node">
<title>Node4</title>
<g id="a_Node000004"><a xlink:href="../../d5/d2e/command_8c.html" target="_top" xlink:title=" ">
<polygon fill="white" stroke="#666666" points="438.75,-74.5 251,-74.5 251,-55.25 438.75,-55.25 438.75,-74.5"/>
<text text-anchor="middle" x="344.88" y="-61" font-family="Helvetica,sans-Serif" font-size="10.00">src/group_29/src/command/command.c</text>
</a>
</g>
</g>
<!-- Node3&#45;&gt;Node4 -->
<g id="edge3_Node000003_Node000004" class="edge">
<title>Node3&#45;&gt;Node4</title>
<g id="a_edge3_Node000003_Node000004"><a xlink:title=" ">
<path fill="none" stroke="#63b8ff" d="M368.56,-100.9C362.61,-92.11 355.75,-81.96 350.95,-74.86"/>
<polygon fill="#63b8ff" stroke="#63b8ff" points="365.58,-102.75 374.08,-109.08 371.38,-98.83 365.58,-102.75"/>
</a>
</g>
</g>
<!-- Node5 -->
<g id="Node000005" class="node">
<title>Node5</title>
<g id="a_Node000005"><a xlink:href="../../df/d03/shell_8h.html" target="_top" xlink:title=" ">
<polygon fill="white" stroke="#666666" points="599.25,-74.5 456.5,-74.5 456.5,-55.25 599.25,-55.25 599.25,-74.5"/>
<text text-anchor="middle" x="527.88" y="-61" font-family="Helvetica,sans-Serif" font-size="10.00">src/group_29/src/shell/shell.h</text>
</a>
</g>
</g>
<!-- Node3&#45;&gt;Node5 -->
<g id="edge4_Node000003_Node000005" class="edge">
<title>Node3&#45;&gt;Node5</title>
<g id="a_edge4_Node000003_Node000005"><a xlink:title=" ">
<path fill="none" stroke="#63b8ff" d="M416.63,-106.17C443.32,-96.5 479.12,-83.54 502.82,-74.95"/>
<polygon fill="#63b8ff" stroke="#63b8ff" points="415.44,-102.88 407.23,-109.58 417.83,-109.46 415.44,-102.88"/>
</a>
</g>
</g>
<!-- Node5&#45;&gt;Node6 -->
<g id="edge5_Node000005_Node000006" class="edge">
<title>Node5&#45;&gt;Node6</title>
<g id="a_edge5_Node000005_Node000006"><a xlink:title=" ">
<path fill="none" stroke="#63b8ff" d="M592.7,-52.88C650.49,-43.08 734.09,-28.9 788.21,-19.73"/>
<polygon fill="#63b8ff" stroke="#63b8ff" points="592.26,-49.41 582.99,-54.53 593.43,-56.31 592.26,-49.41"/>
</a>
</g>
</g>
<!-- Node7 -->
<g id="Node000007" class="node">
<title>Node7</title>
<g id="a_Node000007"><a xlink:href="../../d6/d4f/shell_8c.html" target="_top" xlink:title=" ">
<polygon fill="white" stroke="#666666" points="599.25,-19.25 456.5,-19.25 456.5,0 599.25,0 599.25,-19.25"/>
<text text-anchor="middle" x="527.88" y="-5.75" font-family="Helvetica,sans-Serif" font-size="10.00">src/group_29/src/shell/shell.c</text>
</a>
</g>
</g>
<!-- Node5&#45;&gt;Node7 -->
<g id="edge6_Node000005_Node000007" class="edge">
<title>Node5&#45;&gt;Node7</title>
<g id="a_edge6_Node000005_Node000007"><a xlink:title=" ">
<path fill="none" stroke="#63b8ff" d="M527.88,-43.63C527.88,-35.34 527.88,-26.17 527.88,-19.61"/>
<polygon fill="#63b8ff" stroke="#63b8ff" points="524.38,-43.57 527.88,-53.57 531.38,-43.57 524.38,-43.57"/>
</a>
</g>
</g>
<!-- Node9&#45;&gt;Node3 -->
<g id="edge9_Node000009_Node000003" class="edge">
<title>Node9&#45;&gt;Node3</title>
<g id="a_edge9_Node000009_Node000003"><a xlink:title=" ">
<path fill="none" stroke="#63b8ff" d="M288.25,-160.9C310.62,-151.29 340.11,-138.63 359.74,-130.2"/>
<polygon fill="#63b8ff" stroke="#63b8ff" points="287.11,-157.58 279.3,-164.74 289.87,-164.01 287.11,-157.58"/>
</a>
</g>
</g>
<!-- Node9&#45;&gt;Node5 -->
<g id="edge12_Node000009_Node000005" class="edge">
<title>Node9&#45;&gt;Node5</title>
<g id="a_edge12_Node000009_Node000005"><a xlink:title=" ">
<path fill="none" stroke="#63b8ff" d="M258.2,-154.22C260.24,-139.91 265.33,-121.39 277.88,-110.5 291.3,-98.85 387,-84.17 456,-74.9"/>
<polygon fill="#63b8ff" stroke="#63b8ff" points="254.74,-153.59 257.23,-163.89 261.71,-154.29 254.74,-153.59"/>
</a>
</g>
</g>
<!-- Node9&#45;&gt;Node6 -->
<g id="edge11_Node000009_Node000006" class="edge">
<title>Node9&#45;&gt;Node6</title>
<g id="a_edge11_Node000009_Node000006"><a xlink:title=" ">
<path fill="none" stroke="#63b8ff" d="M246.45,-155.38C233.69,-129.26 216.67,-82.4 241.88,-55.25 259.95,-35.78 628.43,-19.06 778.8,-13.03"/>
<polygon fill="#63b8ff" stroke="#63b8ff" points="243.28,-156.87 250.99,-164.14 249.5,-153.65 243.28,-156.87"/>
</a>
</g>
</g>
<!-- Node10 -->
<g id="Node000010" class="node">
<title>Node10</title>
<g id="a_Node000010"><a xlink:href="../../d7/dee/tinyfs_8c.html" target="_top" xlink:title=" ">
<polygon fill="white" stroke="#666666" points="192.75,-129.75 59,-129.75 59,-110.5 192.75,-110.5 192.75,-129.75"/>
<text text-anchor="middle" x="125.88" y="-116.25" font-family="Helvetica,sans-Serif" font-size="10.00">src/group_29/src/fs/tinyfs.c</text>
</a>
</g>
</g>
<!-- Node9&#45;&gt;Node10 -->
<g id="edge10_Node000009_Node000010" class="edge">
<title>Node9&#45;&gt;Node10</title>
<g id="a_edge10_Node000009_Node000010"><a xlink:title=" ">
<path fill="none" stroke="#63b8ff" d="M224.05,-161.03C200.37,-151.41 169.04,-138.67 148.21,-130.2"/>
<polygon fill="#63b8ff" stroke="#63b8ff" points="222.67,-164.25 233.25,-164.77 225.3,-157.76 222.67,-164.25"/>
</a>
</g>
</g>
<!-- Node11&#45;&gt;Node6 -->
<g id="edge17_Node000011_Node000006" class="edge">
<title>Node11&#45;&gt;Node6</title>
<g id="a_edge17_Node000011_Node000006"><a xlink:title=" ">
<path fill="none" stroke="#63b8ff" d="M1374.51,-98.68C1373.08,-84.23 1368.63,-65.66 1355.88,-55.25 1321.6,-27.3 1034.28,-15.92 904.76,-12.17"/>
<polygon fill="#63b8ff" stroke="#63b8ff" points="1371.01,-98.7 1375.04,-108.49 1378,-98.32 1371.01,-98.7"/>
</a>
</g>
</g>
<!-- Node12 -->
<g id="Node000012" class="node">
<title>Node12</title>
<g id="a_Node000012"><a xlink:href="../../d8/d22/interrupts_8c.html" target="_top" xlink:title=" ">
<polygon fill="white" stroke="#666666" points="1346.5,-74.5 1163.25,-74.5 1163.25,-55.25 1346.5,-55.25 1346.5,-74.5"/>
<text text-anchor="middle" x="1254.88" y="-61" font-family="Helvetica,sans-Serif" font-size="10.00">src/group_29/src/interrupts/interrupts.c</text>
</a>
</g>
</g>
<!-- Node11&#45;&gt;Node12 -->
<g id="edge15_Node000011_Node000012" class="edge">
<title>Node11&#45;&gt;Node12</title>
<g id="a_edge15_Node000011_Node000012"><a xlink:title=" ">
<path fill="none" stroke="#63b8ff" d="M1344.22,-105.52C1322.6,-95.93 1294.24,-83.34 1275.33,-74.95"/>
<polygon fill="#63b8ff" stroke="#63b8ff" points="1342.58,-108.62 1353.14,-109.48 1345.41,-102.22 1342.58,-108.62"/>
</a>
</g>
</g>
<!-- Node13 -->
<g id="Node000013" class="node">
<title>Node13</title>
<g id="a_Node000013"><a xlink:href="../../d8/df9/interrupts__test_8c.html" target="_top" xlink:title=" ">
<polygon fill="white" stroke="#666666" points="1608.38,-74.5 1403.38,-74.5 1403.38,-55.25 1608.38,-55.25 1608.38,-74.5"/>
<text text-anchor="middle" x="1505.88" y="-61" font-family="Helvetica,sans-Serif" font-size="10.00">src/group_29/src/interrupts/interrupts_test.c</text>
</a>
</g>
</g>
<!-- Node11&#45;&gt;Node13 -->
<g id="edge16_Node000011_Node000013" class="edge">
<title>Node11&#45;&gt;Node13</title>
<g id="a_edge16_Node000011_Node000013"><a xlink:title=" ">
<path fill="none" stroke="#63b8ff" d="M1407.7,-105.78C1431.38,-96.16 1462.71,-83.42 1483.54,-74.95"/>
<polygon fill="#63b8ff" stroke="#63b8ff" points="1406.45,-102.51 1398.5,-109.52 1409.08,-109 1406.45,-102.51"/>
</a>
</g>
</g>
<!-- Node14 -->
<g id="Node000014" class="node">
<title>Node14</title>
<g id="a_Node000014"><a xlink:href="../../d6/dbf/pit_8c.html" target="_top" xlink:title=" ">
<polygon fill="white" stroke="#666666" points="1749.5,-74.5 1626.25,-74.5 1626.25,-55.25 1749.5,-55.25 1749.5,-74.5"/>
<text text-anchor="middle" x="1687.88" y="-61" font-family="Helvetica,sans-Serif" font-size="10.00">src/group_29/src/pit/pit.c</text>
</a>
</g>
</g>
<!-- Node11&#45;&gt;Node14 -->
<g id="edge18_Node000011_Node000014" class="edge">
<title>Node11&#45;&gt;Node14</title>
<g id="a_edge18_Node000011_Node000014"><a xlink:title=" ">
<path fill="none" stroke="#63b8ff" d="M1439.49,-108.13C1497.1,-98.33 1580.43,-84.15 1634.38,-74.98"/>
<polygon fill="#63b8ff" stroke="#63b8ff" points="1439.09,-104.65 1429.82,-109.78 1440.26,-111.55 1439.09,-104.65"/>
</a>
</g>
</g>
<!-- Node15&#45;&gt;Node5 -->
<g id="edge24_Node000015_Node000005" class="edge">
<title>Node15&#45;&gt;Node5</title>
<g id="a_edge24_Node000015_Node000005"><a xlink:title=" ">
<path fill="none" stroke="#63b8ff" d="M921.82,-108.77C827.37,-98.49 684.65,-82.95 599.42,-73.67"/>
<polygon fill="#63b8ff" stroke="#63b8ff" points="921.27,-112.23 931.59,-109.84 922.02,-105.28 921.27,-112.23"/>
</a>
</g>
</g>
<!-- Node15&#45;&gt;Node6 -->
<g id="edge22_Node000015_Node000006" class="edge">
<title>Node15&#45;&gt;Node6</title>
<g id="a_edge22_Node000015_Node000006"><a xlink:title=" ">
<path fill="none" stroke="#63b8ff" d="M1065.97,-106.72C1099.78,-95.84 1135.36,-78.17 1115.88,-55.25 1089.34,-24.04 977.22,-14.6 904.88,-11.78"/>
<polygon fill="#63b8ff" stroke="#63b8ff" points="1065.13,-103.32 1056.58,-109.58 1067.16,-110.02 1065.13,-103.32"/>
</a>
</g>
</g>
<!-- Node15&#45;&gt;Node12 -->
<g id="edge21_Node000015_Node000012" class="edge">
<title>Node15&#45;&gt;Node12</title>
<g id="a_edge21_Node000015_Node000012"><a xlink:title=" ">
<path fill="none" stroke="#63b8ff" d="M1068.51,-107.57C1112.27,-97.78 1174.16,-83.94 1214.4,-74.93"/>
<polygon fill="#63b8ff" stroke="#63b8ff" points="1067.99,-104.1 1059,-109.7 1069.52,-110.93 1067.99,-104.1"/>
</a>
</g>
</g>
<!-- Node16 -->
<g id="Node000016" class="node">
<title>Node16</title>
<g id="a_Node000016"><a xlink:href="../../de/dbd/keyboard_8c.html" target="_top" xlink:title=" ">
<polygon fill="white" stroke="#666666" points="1107,-74.5 926.75,-74.5 926.75,-55.25 1107,-55.25 1107,-74.5"/>
<text text-anchor="middle" x="1016.88" y="-61" font-family="Helvetica,sans-Serif" font-size="10.00">src/group_29/src/keyboard/keyboard.c</text>
</a>
</g>
</g>
<!-- Node15&#45;&gt;Node16 -->
<g id="edge23_Node000015_Node000016" class="edge">
<title>Node15&#45;&gt;Node16</title>
<g id="a_edge23_Node000015_Node000016"><a xlink:title=" ">
<path fill="none" stroke="#63b8ff" d="M1016.88,-98.88C1016.88,-90.59 1016.88,-81.42 1016.88,-74.86"/>
<polygon fill="#63b8ff" stroke="#63b8ff" points="1013.38,-98.82 1016.88,-108.82 1020.38,-98.82 1013.38,-98.82"/>
</a>
</g>
</g>
<!-- Node17&#45;&gt;Node6 -->
<g id="edge27_Node000017_Node000006" class="edge">
<title>Node17&#45;&gt;Node6</title>
<g id="a_edge27_Node000017_Node000006"><a xlink:title=" ">
<path fill="none" stroke="#63b8ff" d="M762.93,-271.98C804.4,-256.58 860.88,-226.42 860.88,-176.38 860.88,-176.38 860.88,-176.38 860.88,-119.12 860.88,-81.64 849.74,-37.95 844.52,-19.53"/>
<polygon fill="#63b8ff" stroke="#63b8ff" points="761.92,-268.62 753.65,-275.25 764.25,-275.22 761.92,-268.62"/>
</a>
</g>
</g>
<!-- Node17&#45;&gt;Node9 -->
<g id="edge26_Node000017_Node000009" class="edge">
<title>Node17&#45;&gt;Node9</title>
<g id="a_edge26_Node000017_Node000009"><a xlink:title=" ">
<path fill="none" stroke="#63b8ff" d="M629.62,-281.13C507.71,-275.27 302.51,-262.27 275.88,-240.25 259.47,-226.68 256.83,-199.62 256.65,-185.47"/>
<polygon fill="#63b8ff" stroke="#63b8ff" points="629.12,-284.61 639.27,-281.59 629.45,-277.62 629.12,-284.61"/>
</a>
</g>
</g>
<!-- Node18 -->
<g id="Node000018" class="node">
<title>Node18</title>
<g id="a_Node000018"><a xlink:href="../../d2/d29/heap_8c.html" target="_top" xlink:title=" ">
<polygon fill="white" stroke="#666666" points="442.75,-240.25 285,-240.25 285,-221 442.75,-221 442.75,-240.25"/>
<text text-anchor="middle" x="363.88" y="-226.75" font-family="Helvetica,sans-Serif" font-size="10.00">src/group_29/src/memory/heap.c</text>
</a>
</g>
</g>
<!-- Node17&#45;&gt;Node18 -->
<g id="edge28_Node000017_Node000018" class="edge">
<title>Node17&#45;&gt;Node18</title>
<g id="a_edge28_Node000017_Node000018"><a xlink:title=" ">
<path fill="none" stroke="#63b8ff" d="M648.02,-274.13C582.44,-264.32 486.59,-249.98 424.72,-240.73"/>
<polygon fill="#63b8ff" stroke="#63b8ff" points="647.18,-277.54 657.58,-275.56 648.21,-270.62 647.18,-277.54"/>
</a>
</g>
</g>
<!-- Node19 -->
<g id="Node000019" class="node">
<title>Node19</title>
<g id="a_Node000019"><a xlink:href="../../de/d38/paging_8c.html" target="_top" xlink:title=" ">
<polygon fill="white" stroke="#666666" points="626.5,-240.25 461.25,-240.25 461.25,-221 626.5,-221 626.5,-240.25"/>
<text text-anchor="middle" x="543.88" y="-226.75" font-family="Helvetica,sans-Serif" font-size="10.00">src/group_29/src/memory/paging.c</text>
</a>
</g>
</g>
<!-- Node17&#45;&gt;Node19 -->
<g id="edge29_Node000017_Node000019" class="edge">
<title>Node17&#45;&gt;Node19</title>
<g id="a_edge29_Node000017_Node000019"><a xlink:title=" ">
<path fill="none" stroke="#63b8ff" d="M679.19,-272.57C647.03,-262.84 602.88,-249.48 573.88,-240.7"/>
<polygon fill="#63b8ff" stroke="#63b8ff" points="677.99,-275.86 688.57,-275.4 680.01,-269.16 677.99,-275.86"/>
</a>
</g>
</g>
<!-- Node20 -->
<g id="Node000020" class="node">
<title>Node20</title>
<g id="a_Node000020"><a xlink:href="../../d3/d23/src_2string_2string_8h.html" target="_top" xlink:title=" ">
<polygon fill="white" stroke="#666666" points="795,-240.25 644.75,-240.25 644.75,-221 795,-221 795,-240.25"/>
<text text-anchor="middle" x="719.88" y="-226.75" font-family="Helvetica,sans-Serif" font-size="10.00">src/group_29/src/string/string.h</text>
</a>
</g>
</g>
<!-- Node17&#45;&gt;Node20 -->
<g id="edge30_Node000017_Node000020" class="edge">
<title>Node17&#45;&gt;Node20</title>
<g id="a_edge30_Node000017_Node000020"><a xlink:title=" ">
<path fill="none" stroke="#63b8ff" d="M719.88,-264.63C719.88,-256.34 719.88,-247.17 719.88,-240.61"/>
<polygon fill="#63b8ff" stroke="#63b8ff" points="716.38,-264.57 719.88,-274.57 723.38,-264.57 716.38,-264.57"/>
</a>
</g>
</g>
<!-- Node22 -->
<g id="Node000022" class="node">
<title>Node22</title>
<g id="a_Node000022"><a xlink:href="../../d8/ddb/user_8h.html" target="_top" xlink:title=" ">
<polygon fill="white" stroke="#666666" points="832.75,-185 693,-185 693,-165.75 832.75,-165.75 832.75,-185"/>
<text text-anchor="middle" x="762.88" y="-171.5" font-family="Helvetica,sans-Serif" font-size="10.00">src/group_29/src/user/user.h</text>
</a>
</g>
</g>
<!-- Node17&#45;&gt;Node22 -->
<g id="edge41_Node000017_Node000022" class="edge">
<title>Node17&#45;&gt;Node22</title>
<g id="a_edge41_Node000017_Node000022"><a xlink:title=" ">
<path fill="none" stroke="#63b8ff" d="M764.91,-271.61C779.99,-264.78 795.17,-254.74 803.88,-240.25 815.82,-220.37 791.96,-197.64 775.88,-185.37"/>
<polygon fill="#63b8ff" stroke="#63b8ff" points="763.9,-268.24 755.97,-275.26 766.55,-274.72 763.9,-268.24"/>
</a>
</g>
</g>
<!-- Node20&#45;&gt;Node3 -->
<g id="edge31_Node000020_Node000003" class="edge">
<title>Node20&#45;&gt;Node3</title>
<g id="a_edge31_Node000020_Node000003"><a xlink:title=" ">
<path fill="none" stroke="#63b8ff" d="M638.5,-219C563.73,-208.82 461.98,-193.74 444.88,-185 418.88,-171.71 396.87,-144.01 386.78,-129.86"/>
<polygon fill="#63b8ff" stroke="#63b8ff" points="637.91,-222.45 648.29,-220.32 638.85,-215.51 637.91,-222.45"/>
</a>
</g>
</g>
<!-- Node20&#45;&gt;Node5 -->
<g id="edge34_Node000020_Node000005" class="edge">
<title>Node20&#45;&gt;Node5</title>
<g id="a_edge34_Node000020_Node000005"><a xlink:title=" ">
<path fill="none" stroke="#63b8ff" d="M633.26,-219.1C567.99,-210.28 488.03,-197.2 477.88,-185 462.95,-167.07 505.29,-99.64 521.69,-74.98"/>
<polygon fill="#63b8ff" stroke="#63b8ff" points="632.55,-222.54 642.92,-220.39 633.47,-215.6 632.55,-222.54"/>
</a>
</g>
</g>
<!-- Node20&#45;&gt;Node6 -->
<g id="edge33_Node000020_Node000006" class="edge">
<title>Node20&#45;&gt;Node6</title>
<g id="a_edge33_Node000020_Node000006"><a xlink:title=" ">
<path fill="none" stroke="#63b8ff" d="M697.53,-213.78C668.25,-190.99 623.13,-147.62 645.88,-110.5 678.3,-57.58 748.53,-31.6 795.51,-19.69"/>
<polygon fill="#63b8ff" stroke="#63b8ff" points="695.43,-216.58 705.53,-219.77 699.63,-210.97 695.43,-216.58"/>
</a>
</g>
</g>
<!-- Node20&#45;&gt;Node9 -->
<g id="edge32_Node000020_Node000009" class="edge">
<title>Node20&#45;&gt;Node9</title>
<g id="a_edge32_Node000020_Node000009"><a xlink:title=" ">
<path fill="none" stroke="#63b8ff" d="M633.23,-219.66C543.63,-209.36 405.63,-193.48 323.98,-184.09"/>
<polygon fill="#63b8ff" stroke="#63b8ff" points="632.62,-223.11 642.95,-220.78 633.42,-216.16 632.62,-223.11"/>
</a>
</g>
</g>
<!-- Node21 -->
<g id="Node000021" class="node">
<title>Node21</title>
<g id="a_Node000021"><a xlink:href="../../d1/db0/string_8c.html" target="_top" xlink:title=" ">
<polygon fill="white" stroke="#666666" points="637,-185 486.75,-185 486.75,-165.75 637,-165.75 637,-185"/>
<text text-anchor="middle" x="561.88" y="-171.5" font-family="Helvetica,sans-Serif" font-size="10.00">src/group_29/src/string/string.c</text>
</a>
</g>
</g>
<!-- Node20&#45;&gt;Node21 -->
<g id="edge35_Node000020_Node000021" class="edge">
<title>Node20&#45;&gt;Node21</title>
<g id="a_edge35_Node000020_Node000021"><a xlink:title=" ">
<path fill="none" stroke="#63b8ff" d="M682.21,-216.93C653.45,-207.24 614.5,-194.11 588.81,-185.45"/>
<polygon fill="#63b8ff" stroke="#63b8ff" points="681.04,-220.23 691.64,-220.11 683.28,-213.6 681.04,-220.23"/>
</a>
</g>
</g>
<!-- Node20&#45;&gt;Node22 -->
<g id="edge36_Node000020_Node000022" class="edge">
<title>Node20&#45;&gt;Node22</title>
<g id="a_edge36_Node000020_Node000022"><a xlink:title=" ">
<path fill="none" stroke="#63b8ff" d="M734.13,-211.97C741.33,-203.06 749.76,-192.62 755.62,-185.36"/>
<polygon fill="#63b8ff" stroke="#63b8ff" points="731.49,-209.68 727.93,-219.65 736.93,-214.07 731.49,-209.68"/>
</a>
</g>
</g>
<!-- Node22&#45;&gt;Node3 -->
<g id="edge37_Node000022_Node000003" class="edge">
<title>Node22&#45;&gt;Node3</title>
<g id="a_edge37_Node000022_Node000003"><a xlink:title=" ">
<path fill="none" stroke="#63b8ff" d="M686.64,-163.75C616.26,-153.94 512.83,-139.52 446.16,-130.23"/>
<polygon fill="#63b8ff" stroke="#63b8ff" points="685.75,-167.16 696.14,-165.07 686.72,-160.23 685.75,-167.16"/>
</a>
</g>
</g>
<!-- Node22&#45;&gt;Node5 -->
<g id="edge39_Node000022_Node000005" class="edge">
<title>Node22&#45;&gt;Node5</title>
<g id="a_edge39_Node000022_Node000005"><a xlink:title=" ">
<path fill="none" stroke="#63b8ff" d="M725.2,-161.44C702.01,-153.12 671.85,-141.67 645.88,-129.75 607.77,-112.26 564.91,-87.79 542.82,-74.8"/>
<polygon fill="#63b8ff" stroke="#63b8ff" points="723.96,-164.71 734.55,-164.75 726.29,-158.11 723.96,-164.71"/>
</a>
</g>
</g>
<!-- Node22&#45;&gt;Node6 -->
<g id="edge38_Node000022_Node000006" class="edge">
<title>Node22&#45;&gt;Node6</title>
<g id="a_edge38_Node000022_Node000006"><a xlink:title=" ">
<path fill="none" stroke="#63b8ff" d="M781.61,-157.55C789.39,-149.74 797.97,-139.93 803.88,-129.75 825.78,-92.01 836.71,-40.1 840.4,-19.53"/>
<polygon fill="#63b8ff" stroke="#63b8ff" points="779.25,-154.96 774.44,-164.4 784.09,-160.02 779.25,-154.96"/>
</a>
</g>
</g>
<!-- Node23 -->
<g id="Node000023" class="node">
<title>Node23</title>
<g id="a_Node000023"><a xlink:href="../../d3/d8d/user_8c.html" target="_top" xlink:title=" ">
<polygon fill="white" stroke="#666666" points="794.75,-129.75 655,-129.75 655,-110.5 794.75,-110.5 794.75,-129.75"/>
<text text-anchor="middle" x="724.88" y="-116.25" font-family="Helvetica,sans-Serif" font-size="10.00">src/group_29/src/user/user.c</text>
</a>
</g>
</g>
<!-- Node22&#45;&gt;Node23 -->
<g id="edge40_Node000022_Node000023" class="edge">
<title>Node22&#45;&gt;Node23</title>
<g id="a_edge40_Node000022_Node000023"><a xlink:title=" ">
<path fill="none" stroke="#63b8ff" d="M750.08,-156.44C743.76,-147.59 736.41,-137.29 731.29,-130.11"/>
<polygon fill="#63b8ff" stroke="#63b8ff" points="747.06,-158.24 755.72,-164.35 752.76,-154.18 747.06,-158.24"/>
</a>
</g>
</g>
</g>
</svg>
