<?xml version="1.0" encoding="UTF-8" standalone="no"?>
<!DOCTYPE svg PUBLIC "-//W3C//DTD SVG 1.1//EN"
 "http://www.w3.org/Graphics/SVG/1.1/DTD/svg11.dtd">
<!-- Generated by graphviz version 12.2.0 (20241103.1931)
 -->
<!-- Title: enable_speaker Pages: 1 -->
<svg width="203pt" height="64pt"
 viewBox="0.00 0.00 202.75 64.25" xmlns="http://www.w3.org/2000/svg" xmlns:xlink="http://www.w3.org/1999/xlink">
<g id="graph0" class="graph" transform="scale(1 1) rotate(0) translate(4 60.25)">
<title>enable_speaker</title>
<!-- Node1 -->
<g id="Node000001" class="node">
<title>Node1</title>
<g id="a_Node000001"><a xlink:title=" ">
<polygon fill="#999999" stroke="#666666" points="84.25,-37.25 0,-37.25 0,-18 84.25,-18 84.25,-37.25"/>
<text text-anchor="middle" x="42.12" y="-23.75" font-family="Helvetica,sans-Serif" font-size="10.00">enable_speaker</text>
</a>
</g>
</g>
<!-- Node2 -->
<g id="Node000002" class="node">
<title>Node2</title>
<g id="a_Node000002"><a xlink:href="../../d5/dcd/song__player_8c.html#a31509e30bfa95cefb9b4d362a4c4ccb0" target="_top" xlink:title=" ">
<polygon fill="white" stroke="#666666" points="191.75,-56.25 123.25,-56.25 123.25,-37 191.75,-37 191.75,-56.25"/>
<text text-anchor="middle" x="157.5" y="-42.75" font-family="Helvetica,sans-Serif" font-size="10.00">speaker_inb</text>
</a>
</g>
</g>
<!-- Node1&#45;&gt;Node2 -->
<g id="edge1_Node000001_Node000002" class="edge">
<title>Node1&#45;&gt;Node2</title>
<g id="a_edge1_Node000001_Node000002"><a xlink:title=" ">
<path fill="none" stroke="#63b8ff" d="M84.7,-34.59C93.59,-36.08 103.01,-37.66 112,-39.17"/>
<polygon fill="#63b8ff" stroke="#63b8ff" points="111.15,-42.57 121.59,-40.78 112.31,-35.67 111.15,-42.57"/>
</a>
</g>
</g>
<!-- Node3 -->
<g id="Node000003" class="node">
<title>Node3</title>
<g id="a_Node000003"><a xlink:href="../../d5/dcd/song__player_8c.html#af64c030b0231ecd6d2ca2d20c133b128" target="_top" xlink:title=" ">
<polygon fill="white" stroke="#666666" points="194.75,-19.25 120.25,-19.25 120.25,0 194.75,0 194.75,-19.25"/>
<text text-anchor="middle" x="157.5" y="-5.75" font-family="Helvetica,sans-Serif" font-size="10.00">speaker_outb</text>
</a>
</g>
</g>
<!-- Node1&#45;&gt;Node3 -->
<g id="edge2_Node000001_Node000003" class="edge">
<title>Node1&#45;&gt;Node3</title>
<g id="a_edge2_Node000001_Node000003"><a xlink:title=" ">
<path fill="none" stroke="#63b8ff" d="M84.7,-21.02C92.43,-19.8 100.56,-18.51 108.46,-17.25"/>
<polygon fill="#63b8ff" stroke="#63b8ff" points="108.98,-20.71 118.31,-15.69 107.88,-13.8 108.98,-20.71"/>
</a>
</g>
</g>
</g>
</svg>
