<?xml version="1.0" encoding="UTF-8" standalone="no"?>
<!DOCTYPE svg PUBLIC "-//W3C//DTD SVG 1.1//EN"
 "http://www.w3.org/Graphics/SVG/1.1/DTD/svg11.dtd">
<!-- Generated by graphviz version 12.2.0 (20241103.1931)
 -->
<!-- Title: multiboot_tag_vbe Pages: 1 -->
<svg width="402pt" height="231pt"
 viewBox="0.00 0.00 401.50 231.00" xmlns="http://www.w3.org/2000/svg" xmlns:xlink="http://www.w3.org/1999/xlink">
<g id="graph0" class="graph" transform="scale(1 1) rotate(0) translate(4 227)">
<title>multiboot_tag_vbe</title>
<!-- Node1 -->
<g id="Node000001" class="node">
<title>Node1</title>
<g id="a_Node000001"><a xlink:title=" ">
<polygon fill="#999999" stroke="none" points="286.38,-126 107.12,-126 107.12,0 286.38,0 286.38,-126"/>
<text text-anchor="start" x="157" y="-112.5" font-family="Helvetica,sans-Serif" font-size="10.00">multiboot_tag_vbe</text>
<text text-anchor="start" x="111.12" y="-97.25" font-family="Helvetica,sans-Serif" font-size="10.00">+</text>
<text text-anchor="start" x="121.12" y="-97.25" font-family="Helvetica,sans-Serif" font-size="10.00">multiboot_uint32_t type</text>
<text text-anchor="start" x="111.12" y="-82" font-family="Helvetica,sans-Serif" font-size="10.00">+</text>
<text text-anchor="start" x="121.12" y="-82" font-family="Helvetica,sans-Serif" font-size="10.00">multiboot_uint32_t size</text>
<text text-anchor="start" x="111.12" y="-66.75" font-family="Helvetica,sans-Serif" font-size="10.00">+</text>
<text text-anchor="start" x="121.12" y="-66.75" font-family="Helvetica,sans-Serif" font-size="10.00">multiboot_uint16_t vbe_mode</text>
<text text-anchor="start" x="111.12" y="-51.5" font-family="Helvetica,sans-Serif" font-size="10.00">+</text>
<text text-anchor="start" x="121.12" y="-51.5" font-family="Helvetica,sans-Serif" font-size="10.00">multiboot_uint16_t vbe_interface_seg</text>
<text text-anchor="start" x="111.12" y="-36.25" font-family="Helvetica,sans-Serif" font-size="10.00">+</text>
<text text-anchor="start" x="121.12" y="-36.25" font-family="Helvetica,sans-Serif" font-size="10.00">multiboot_uint16_t vbe_interface_off</text>
<text text-anchor="start" x="111.12" y="-21" font-family="Helvetica,sans-Serif" font-size="10.00">+</text>
<text text-anchor="start" x="121.12" y="-21" font-family="Helvetica,sans-Serif" font-size="10.00">multiboot_uint16_t vbe_interface_len</text>
<text text-anchor="start" x="195.25" y="-5.75" font-family="Helvetica,sans-Serif" font-size="10.00"> </text>
<polygon fill="#666666" stroke="#666666" points="107.12,-108.75 107.12,-108.75 286.38,-108.75 286.38,-108.75 107.12,-108.75"/>
<polygon fill="#666666" stroke="#666666" points="107.12,-17.25 107.12,-17.25 119.12,-17.25 119.12,-17.25 107.12,-17.25"/>
<polygon fill="#666666" stroke="#666666" points="119.12,-17.25 119.12,-17.25 286.38,-17.25 286.38,-17.25 119.12,-17.25"/>
<polygon fill="none" stroke="#666666" points="107.12,0 107.12,-126 286.38,-126 286.38,0 107.12,0"/>
</a>
</g>
</g>
<!-- Node2 -->
<g id="Node000002" class="node">
<title>Node2</title>
<g id="a_Node000002"><a xlink:href="../../d9/d69/structmultiboot__vbe__info__block.html" target="_top" xlink:title=" ">
<polygon fill="white" stroke="none" points="187.5,-223 0,-223 0,-173.25 187.5,-173.25 187.5,-223"/>
<text text-anchor="start" x="38.62" y="-209.5" font-family="Helvetica,sans-Serif" font-size="10.00">multiboot_vbe_info_block</text>
<text text-anchor="start" x="4" y="-194.25" font-family="Helvetica,sans-Serif" font-size="10.00">+</text>
<text text-anchor="start" x="14" y="-194.25" font-family="Helvetica,sans-Serif" font-size="10.00">multiboot_uint8_t external_specification</text>
<text text-anchor="start" x="92.25" y="-179" font-family="Helvetica,sans-Serif" font-size="10.00"> </text>
<polygon fill="#666666" stroke="#666666" points="0,-205.75 0,-205.75 187.5,-205.75 187.5,-205.75 0,-205.75"/>
<polygon fill="#666666" stroke="#666666" points="0,-190.5 0,-190.5 12,-190.5 12,-190.5 0,-190.5"/>
<polygon fill="#666666" stroke="#666666" points="12,-190.5 12,-190.5 187.5,-190.5 187.5,-190.5 12,-190.5"/>
<polygon fill="none" stroke="#666666" points="0,-173.25 0,-223 187.5,-223 187.5,-173.25 0,-173.25"/>
</a>
</g>
</g>
<!-- Node2&#45;&gt;Node1 -->
<g id="edge1_Node000001_Node000002" class="edge">
<title>Node2&#45;&gt;Node1</title>
<g id="a_edge1_Node000001_Node000002"><a xlink:title=" ">
<path fill="none" stroke="#63b8ff" d="M112.16,-173.32C120.37,-162.72 130.52,-149.6 140.91,-136.17"/>
<polygon fill="none" stroke="#63b8ff" points="140.98,-136.08 141.49,-128.89 148.32,-126.59 147.82,-133.78 140.98,-136.08"/>
</a>
</g>
<text text-anchor="middle" x="172.75" y="-145.75" font-family="Helvetica,sans-Serif" font-size="10.00" fill="grey"> +vbe_control_info</text>
</g>
<!-- Node3 -->
<g id="Node000003" class="node">
<title>Node3</title>
<g id="a_Node000003"><a xlink:href="../../d6/d6f/structmultiboot__vbe__mode__info__block.html" target="_top" xlink:title=" ">
<polygon fill="white" stroke="none" points="393.5,-223 206,-223 206,-173.25 393.5,-173.25 393.5,-223"/>
<text text-anchor="start" x="230" y="-209.5" font-family="Helvetica,sans-Serif" font-size="10.00">multiboot_vbe_mode_info_block</text>
<text text-anchor="start" x="210" y="-194.25" font-family="Helvetica,sans-Serif" font-size="10.00">+</text>
<text text-anchor="start" x="220" y="-194.25" font-family="Helvetica,sans-Serif" font-size="10.00">multiboot_uint8_t external_specification</text>
<text text-anchor="start" x="298.25" y="-179" font-family="Helvetica,sans-Serif" font-size="10.00"> </text>
<polygon fill="#666666" stroke="#666666" points="206,-205.75 206,-205.75 393.5,-205.75 393.5,-205.75 206,-205.75"/>
<polygon fill="#666666" stroke="#666666" points="206,-190.5 206,-190.5 218,-190.5 218,-190.5 206,-190.5"/>
<polygon fill="#666666" stroke="#666666" points="218,-190.5 218,-190.5 393.5,-190.5 393.5,-190.5 218,-190.5"/>
<polygon fill="none" stroke="#666666" points="206,-173.25 206,-223 393.5,-223 393.5,-173.25 206,-173.25"/>
</a>
</g>
</g>
<!-- Node3&#45;&gt;Node1 -->
<g id="edge2_Node000001_Node000003" class="edge">
<title>Node3&#45;&gt;Node1</title>
<g id="a_edge2_Node000001_Node000003"><a xlink:title=" ">
<path fill="none" stroke="#63b8ff" d="M281.34,-173.32C273.13,-162.72 262.98,-149.6 252.59,-136.17"/>
<polygon fill="none" stroke="#63b8ff" points="252.52,-136.08 245.68,-133.78 245.18,-126.59 252.01,-128.89 252.52,-136.08"/>
</a>
</g>
<text text-anchor="middle" x="303.56" y="-145.75" font-family="Helvetica,sans-Serif" font-size="10.00" fill="grey"> +vbe_mode_info</text>
</g>
</g>
</svg>
